<svg width="242" height="267" viewBox="0 0 242 267" fill="none" xmlns="http://www.w3.org/2000/svg">
<path d="M6.04054 156.759C-7.84233 184.886 6.55104 238.931 6.55104 238.931L7.41791 230.463C7.41791 230.463 15.0753 251.558 31.8703 259.359C48.662 267.16 74.1353 266.696 87.4564 264.542C100.781 262.387 98.2795 259.204 98.2795 259.204L92.2049 256.998L109.867 252.173L108.181 256.843C108.181 256.843 117.113 253.506 123.75 250.479C125.23 254.74 126.048 258.844 129.108 262.796C132.784 267.518 137.889 266.03 153.763 265.311C151.519 256.331 145.239 259.204 143.248 259.101C141.257 258.998 137.787 248.169 137.889 245.193C137.889 244.781 138.246 243.959 138.808 242.935C143.197 240.983 147.13 239.443 147.281 239.392C147.281 239.443 147.281 239.495 147.281 239.598L142.638 246.169C142.638 246.169 144.526 245.141 147.383 243.602C147.537 245.296 147.894 246.836 148.404 248.014C150.6 253.249 151.059 258.177 154.736 262.899C158.409 267.621 163.514 266.133 179.39 265.414C177.143 256.431 170.863 259.307 168.872 259.204C166.882 259.101 163.411 248.272 163.514 245.296C163.565 243.189 171.527 231.9 176.225 225.329C178.01 224.047 180.87 222.095 180.87 222.095L179.901 228.051C179.901 228.051 188.014 220.555 194.243 208.905C200.42 197.306 199.653 194.79 200.776 181.291C201.9 167.743 211.548 162.251 211.548 162.251L209.506 169.437C209.506 169.437 216.499 161.121 224.513 156.605C232.527 152.037 235.538 154.089 240.133 141.72C244.676 129.352 240.695 116.725 230.738 109.079C221.398 101.892 187.452 91.627 168.464 92.2422C167.19 92.2938 166.015 92.3453 164.891 92.4999C146.975 94.7579 130.03 107.178 120.892 116.162C109.507 124.784 79.1375 113.491 79.1375 113.491L85.6199 118.471C85.6199 118.471 70.0514 117.134 51.0636 118.726C32.0725 120.317 21.9654 127.348 21.9654 127.348L36.1565 124.681C35.9542 124.578 19.9266 128.685 6.04054 156.759Z" fill="#956B3A"/>
<path d="M155.999 97.5117C155.999 97.5117 156.317 84.0385 147.007 85.2991C137.698 86.5628 138.334 98.6741 144.986 103.216C155.467 100.34 155.999 97.5117 155.999 97.5117Z" fill="#956B3A"/>
<mask id="mask0_0_1" style="mask-type:luminance" maskUnits="userSpaceOnUse" x="171" y="82" width="13" height="15">
<path d="M171.608 82H183.937V96.4142H171.608V82Z" fill="white"/>
</mask>
<g mask="url(#mask0_0_1)">
<path d="M181.583 95.7878C183.93 89.0803 185.513 82.0194 178.061 82.1703C170.609 82.3759 172.446 93.9439 172.446 93.9439C172.446 93.9439 176.019 96.1958 181.583 95.7878Z" fill="#956B3A"/>
</g>
<path d="M147.941 88.4084C141.066 90.2338 142.627 96.5175 145.111 100.216C148.086 99.1505 152.67 98.2919 152.67 98.2919C152.67 98.2919 154.863 86.5863 147.941 88.4084Z" fill="#604525"/>
<path d="M235.997 126.16C235.997 126.16 235.647 122.933 231.872 124.794C228.096 126.706 228.343 129.553 230.878 130.758C233.413 131.96 236.094 130.919 235.997 126.16Z" fill="#3E2D18"/>
<path d="M191 111.05C186.412 105.704 179.991 105.251 177.695 107.47C175.454 109.638 178.308 116.751 191 111.05Z" fill="#3E2D18"/>
<path d="M185 108.163C185 108.163 182.741 106.456 181.287 107.625C179.883 108.746 184.044 110.272 185 108.163Z" fill="white"/>
<path d="M216.508 148.137C217.554 149.181 225.341 153.301 229 151.945C221.002 148.814 216.821 147.718 215.775 145.216L214 149.024C214.053 149.024 215.463 147.092 216.508 148.137Z" fill="#3E2D18"/>
<path d="M17.1699 241.854C15.6382 239.544 5.37502 215.42 3.2845 199.197C2.36287 192.268 1.34169 185.133 0.47465 178.771C-2.0783 206.487 6.49896 238.929 6.49896 238.929L7.366 230.46C7.366 230.46 15.0248 251.556 31.8229 259.358C48.6177 267.16 74.0958 266.697 87.4193 264.541C100.746 262.386 98.2444 259.204 98.2444 259.204L92.1687 256.997L109.834 252.172L108.148 256.843C108.148 256.843 117.082 253.505 123.719 250.477C125.2 254.739 126.019 258.843 129.079 262.796C132.756 267.518 137.862 266.03 153.738 265.311C151.493 256.327 145.212 259.204 143.221 259.101C141.23 258.998 137.759 248.168 137.862 245.191C137.862 244.779 138.218 243.957 138.78 242.933C143.17 240.981 147.104 239.441 147.255 239.389C147.255 239.441 147.255 239.493 147.255 239.596L142.611 246.164C142.611 246.164 144.499 245.14 147.357 243.6C147.511 245.294 147.868 246.834 148.378 248.013C150.575 253.248 151.034 258.176 154.711 262.899C158.385 267.621 163.491 266.133 179.37 265.414C177.122 256.43 170.841 259.307 168.85 259.204C166.859 259.101 163.388 248.271 163.491 245.294C163.542 243.187 171.506 231.897 176.204 225.325C177.989 224.043 180.851 222.091 180.851 222.091L179.881 228.047C179.881 228.047 188.047 220.551 194.226 208.9C200.404 197.3 199.636 194.784 200.76 181.283C201.884 167.735 211.534 162.242 211.534 162.242L209.492 169.426C209.492 169.426 216.486 161.112 224.501 156.595C231.8 152.437 235.018 153.67 239 144.428C234.353 143.813 228.432 142.786 222.969 141.246C220.211 140.476 217.507 140.17 215.006 140.221C214.187 140.221 213.371 140.273 212.604 140.376L222.051 142.119C222.051 142.119 215.311 141.4 210.513 144.277C205.712 147.15 196.268 156.75 196.268 156.75L204.845 154.746C204.845 154.746 196.933 160.445 192.694 166.04C188.506 171.636 179.47 186.057 176.101 193.859C179.675 190.831 182.688 187.494 182.688 187.494C182.688 187.494 183.606 193.756 176.612 201.765C169.669 209.773 161.448 214.289 161.448 214.289L168.953 213.725C168.953 213.725 172.273 216.393 159.814 220.964C147.357 225.583 137.964 230.048 137.964 230.048L146.439 231.024C146.439 231.024 141.333 234.103 133.369 236.052C125.405 238.056 108.251 239.183 108.251 239.183L116.471 243.29C116.471 243.29 113.97 246.731 102.991 248.271C92.0146 249.81 77.2589 248.064 77.2589 248.064L85.5311 254.069C85.5311 254.069 54.7448 255.97 45.506 246.934C36.3154 237.901 46.0648 254.993 46.0648 254.993C46.0648 254.993 23.3484 248.425 15.1276 227.071C14.7711 237.492 18.7531 244.163 17.1699 241.854Z" fill="#6A4D29" fill-opacity="0.78"/>
<path d="M91.4544 199.464C81.1969 196.167 77 200.444 77 200.444C77 200.444 87.7235 201.578 97.7203 210.076C107.773 218.573 104.455 226.813 104.455 226.813L99.0693 220.118C99.0693 220.118 103.005 230.678 100.105 241.545C97.2022 252.464 90.9363 254.216 90.9363 254.216L110.207 250.764C110.207 250.764 113.315 234.282 111.347 227.123C109.327 219.963 104.716 211.776 104.716 211.776L111.034 215.07C111.086 215.07 101.712 202.761 91.4544 199.464Z" fill="#74532D"/>
<g clip-path="url(#clip0_0_1)">
<mask id="mask1_0_1" style="mask-type:luminance" maskUnits="userSpaceOnUse" x="166" y="-1" width="35" height="57">
<path d="M166.014 -0.0183105H200.929V55.255H166.014V-0.0183105Z" fill="white"/>
</mask>
<g mask="url(#mask1_0_1)">
<path d="M175.777 49.3145C175.638 42.8585 186.015 41.5164 188.522 46.9521C192.566 55.7246 175.99 59.2598 175.777 49.3145ZM177.674 38.4621C177.625 35.64 178.252 31.2896 181.527 27.2588C184.351 23.7841 189.66 20.7904 188.763 15.4859C187.689 9.13187 178.971 11.0806 179.241 17.7306C179.308 19.3889 168.287 17.7553 166.629 17.1195C164.972 16.4838 166.87 9.54448 169.854 6.43195C181.101 -5.29612 197.837 0.139603 200.694 13.3309C203.086 24.3772 187.99 28.9014 187.884 38.8131C187.872 39.9018 177.702 40.1473 177.674 38.4621Z" fill="#52D5F2"/>
</g>
</g>
<defs>
<clipPath id="clip0_0_1">
<rect width="38" height="55" fill="white" transform="translate(163)"/>
</clipPath>
</defs>
</svg>
