<svg width="50" height="39" viewBox="0 0 50 39" fill="none" xmlns="http://www.w3.org/2000/svg">
<path d="M1.24805 15.4463C-1.62032 21.2575 1.35352 32.4239 1.35352 32.4239L1.53263 30.6743C1.53263 30.6743 3.11474 35.0327 6.58477 36.6445C10.0541 38.2564 15.3172 38.1606 18.0695 37.7153C20.8224 37.2701 20.3057 36.6126 20.3057 36.6126L19.0506 36.1567L22.6997 35.1598L22.3515 36.1248C22.3515 36.1248 24.1969 35.4353 25.5681 34.8098C25.8739 35.6902 26.0431 36.5381 26.6752 37.3546C27.4348 38.3303 28.4895 38.0228 31.7692 37.8744C31.3055 36.019 30.008 36.6126 29.5967 36.5913C29.1854 36.57 28.4683 34.3326 28.4895 33.7177C28.4895 33.6325 28.5632 33.4628 28.6793 33.2512C29.5861 32.8479 30.3987 32.5297 30.4299 32.5191C30.4299 32.5297 30.4299 32.5404 30.4299 32.5617L29.4706 33.9193C29.4706 33.9193 29.8607 33.707 30.4511 33.3889C30.4829 33.739 30.5566 34.0571 30.662 34.3006C31.1158 35.3821 31.2106 36.4003 31.9702 37.3759C32.7291 38.3516 33.7838 38.0441 37.0641 37.8957C36.5998 36.0396 35.3022 36.6339 34.8909 36.6126C34.4797 36.5913 33.7626 34.3539 33.7838 33.739C33.7944 33.3037 35.4395 30.9711 36.41 29.6135C36.7789 29.3486 37.3699 28.9454 37.3699 28.9454L37.1696 30.1759C37.1696 30.1759 38.8459 28.6272 40.1328 26.2201C41.4091 23.8236 41.2506 23.3039 41.4827 20.5148C41.7149 17.7157 43.7083 16.581 43.7083 16.581L43.2864 18.0657C43.2864 18.0657 44.7312 16.3474 46.387 15.4144C48.0427 14.4707 48.6649 14.8946 49.6142 12.3391C50.5528 9.78355 49.7303 7.17478 47.6732 5.59488C45.7435 4.11014 38.7298 1.98919 34.8067 2.1163C34.5433 2.12695 34.3006 2.13759 34.0684 2.16954C30.3668 2.63605 26.8656 5.20223 24.9777 7.05832C22.6254 8.83987 16.3507 6.50662 16.3507 6.50662L17.6901 7.53548C17.6901 7.53548 14.4734 7.2593 10.5503 7.58806C6.62656 7.91681 4.5383 9.36961 4.5383 9.36961L7.47035 8.81857C7.42856 8.79727 4.11707 9.64579 1.24805 15.4463Z" fill="#956B3A"/>
<path d="M32.2312 3.20503C32.2312 3.20503 32.2969 0.421307 30.3735 0.681749C28.4501 0.942845 28.5814 3.44518 29.9559 4.38356C32.1212 3.78938 32.2312 3.20503 32.2312 3.20503Z" fill="#956B3A"/>
<mask id="mask0_153_202" style="mask-type:luminance" maskUnits="userSpaceOnUse" x="35" y="0" width="4" height="3">
<path d="M35.4562 0H38.0035V2.97814H35.4562V0Z" fill="white"/>
</mask>
<g mask="url(#mask0_153_202)">
<path d="M37.5173 2.84869C38.0022 1.46283 38.3292 0.00396445 36.7896 0.0351596C35.2499 0.077638 35.6294 2.46771 35.6294 2.46771C35.6294 2.46771 36.3677 2.93299 37.5173 2.84869Z" fill="#956B3A"/>
</g>
<path d="M30.5664 1.32398C29.1458 1.70111 29.4683 2.9994 29.9816 3.76352C30.5961 3.54341 31.5434 3.36602 31.5434 3.36602C31.5434 3.36602 31.9964 0.947501 30.5664 1.32398Z" fill="#604525"/>
<path d="M48.7598 9.12395C48.7598 9.12395 48.6875 8.45711 47.9074 8.84161C47.1273 9.23675 47.1783 9.82484 47.7021 10.0738C48.2258 10.3221 48.7799 10.1072 48.7598 9.12395Z" fill="#3E2D18"/>
<path d="M39.4628 6.00226C38.5149 4.89758 37.1881 4.80405 36.7139 5.26254C36.2508 5.71056 36.8404 7.1802 39.4628 6.00226Z" fill="#3E2D18"/>
<path d="M38.2232 5.40561C38.2232 5.40561 37.7564 5.05304 37.4559 5.29449C37.1659 5.52605 38.0257 5.84139 38.2232 5.40561Z" fill="white"/>
<path d="M44.7331 13.6645C44.9491 13.8803 46.5581 14.7314 47.314 14.4513C45.6615 13.8046 44.7976 13.5779 44.5816 13.061L44.2148 13.8479C44.2257 13.8479 44.5171 13.4487 44.7331 13.6645Z" fill="#3E2D18"/>
<path d="M3.54751 33.0274C3.23103 32.5502 1.11054 27.5658 0.678615 24.2141C0.488195 22.7824 0.277208 21.3082 0.0980682 19.9937C-0.4294 25.7202 1.34276 32.4231 1.34276 32.4231L1.5219 30.6733C1.5219 30.6733 3.1043 35.0321 6.57498 36.6441C10.045 38.2561 15.3091 38.1602 18.0618 37.7149C20.8153 37.2697 20.2984 36.6121 20.2984 36.6121L19.0431 36.1562L22.6929 35.1592L22.3446 36.1243C22.3446 36.1243 24.1904 35.4347 25.5618 34.8091C25.8677 35.6896 26.0369 36.5376 26.6692 37.3542C27.4289 38.3299 28.4838 38.0224 31.7641 37.874C31.3003 36.0178 30.0025 36.6121 29.5912 36.5908C29.1798 36.5695 28.4626 34.3319 28.4838 33.7169C28.4838 33.6317 28.5575 33.462 28.6736 33.2504C29.5805 32.847 30.3933 32.5289 30.4245 32.5183C30.4245 32.5289 30.4245 32.5396 30.4245 32.5608L29.4651 33.9179C29.4651 33.9179 29.8552 33.7063 30.4457 33.3881C30.4776 33.7382 30.5512 34.0564 30.6567 34.3C31.1105 35.3815 31.2054 36.3998 31.9651 37.3755C32.7241 38.3512 33.7791 38.0437 37.06 37.8953C36.5955 36.0391 35.2978 36.6334 34.8864 36.6121C34.475 36.5908 33.7578 34.3532 33.7791 33.7382C33.7897 33.3029 35.4351 30.9702 36.4058 29.6124C36.7747 29.3475 37.3658 28.9442 37.3658 28.9442L37.1655 30.1748C37.1655 30.1748 38.8527 28.6261 40.1292 26.2187C41.4058 23.822 41.2472 23.3022 41.4794 20.5129C41.7116 17.7135 43.7054 16.5787 43.7054 16.5787L43.2834 18.0629C43.2834 18.0629 44.7285 16.3451 46.3845 15.412C47.8926 14.5528 48.5574 14.8077 49.3802 12.8982C48.4201 12.7711 47.1966 12.5588 46.0681 12.2406C45.4981 12.0816 44.9395 12.0183 44.4226 12.029C44.2534 12.029 44.0849 12.0396 43.9263 12.0609L45.8783 12.421C45.8783 12.421 44.4857 12.2726 43.4944 12.8669C42.5025 13.4606 40.5512 15.444 40.5512 15.444L42.3234 15.03C42.3234 15.03 40.6886 16.2074 39.8128 17.3634C38.9476 18.5195 37.0805 21.4992 36.3845 23.1112C37.123 22.4856 37.7453 21.7961 37.7453 21.7961C37.7453 21.7961 37.9351 23.0899 36.49 24.7445C35.0556 26.3991 33.3571 27.3322 33.3571 27.3322L34.9076 27.2157C34.9076 27.2157 35.5937 27.7668 33.0194 28.7112C30.4457 29.6657 28.505 30.5881 28.505 30.5881L30.256 30.7898C30.256 30.7898 29.201 31.4261 27.5556 31.8287C25.9102 32.2427 22.3658 32.4757 22.3658 32.4757L24.0644 33.3242C24.0644 33.3242 23.5475 34.0351 21.2791 34.3532C19.0113 34.6713 15.9626 34.3106 15.9626 34.3106L17.6717 35.5512C17.6717 35.5512 11.3109 35.9439 9.40207 34.077C7.50319 32.2108 9.51752 35.7422 9.51752 35.7422C9.51752 35.7422 4.82405 34.3851 3.12554 29.9731C3.05189 32.1262 3.87461 33.5046 3.54751 33.0274Z" fill="#6A4D29" fill-opacity="0.78"/>
<path d="M18.8955 24.2696C16.7762 23.5885 15.9091 24.472 15.9091 24.472C15.9091 24.472 18.1247 24.7064 20.1901 26.4621C22.267 28.2178 21.5817 29.9201 21.5817 29.9201L20.4688 28.5371C20.4688 28.5371 21.2821 30.7188 20.6829 32.9641C20.0831 35.22 18.7885 35.582 18.7885 35.582L22.7699 34.8687C22.7699 34.8687 23.4122 31.4635 23.0056 29.9842C22.5882 28.505 21.6355 26.8134 21.6355 26.8134L22.9409 27.4939C22.9517 27.4939 21.0148 24.9508 18.8955 24.2696Z" fill="#74532D"/>
</svg>
