<svg width="45" height="45" viewBox="0 0 45 45" fill="none" xmlns="http://www.w3.org/2000/svg">
<mask id="mask0_0_1" style="mask-type:luminance" maskUnits="userSpaceOnUse" x="0" y="0" width="45" height="45">
<path d="M0.628326 0.808594H45V45.0002H0.628326V0.808594Z" fill="white"/>
</mask>
<g mask="url(#mask0_0_1)">
<path d="M35.4508 4.13573C38.0673 4.13573 40.1976 6.25016 40.1976 8.84816V35.4849C40.1976 38.0829 38.0673 40.1973 35.4508 40.1973H8.6244C6.00784 40.1973 3.8783 38.0829 3.8783 35.4849V8.84816C3.8783 6.25016 6.00784 4.13573 8.6244 4.13573H35.4508ZM35.4508 0.85791H8.6244C4.17899 0.85791 0.576355 4.43429 0.576355 8.84816V35.4849C0.576355 39.8988 4.17899 43.4752 8.6244 43.4752H35.4508C39.8969 43.4752 43.4988 39.8988 43.4988 35.4849V8.84816C43.4988 4.43429 39.8983 0.85791 35.4508 0.85791Z" fill="#F0CA19"/>
</g>
<path d="M36.067 10.4808L33.4285 8.69925C32.7022 8.21357 31.707 8.4007 31.215 9.11836L18.3001 28.0291L12.364 22.135C11.7449 21.5204 10.7342 21.5204 10.1123 22.135L7.85997 24.3791C7.23601 24.9951 7.23601 26.0001 7.85997 26.6162L16.983 35.6773C17.4976 36.1861 18.2966 36.5779 19.0201 36.5779C19.745 36.5779 20.4727 36.1237 20.9414 35.4467L36.4912 12.6737C36.9846 11.956 36.7947 10.9693 36.067 10.4808Z" fill="#F0CA19"/>
</svg>
