<svg width="46" height="45" viewBox="0 0 46 45" fill="none" xmlns="http://www.w3.org/2000/svg">
<g clip-path="url(#clip0_55_15)">
<mask id="mask0_55_15" style="mask-type:luminance" maskUnits="userSpaceOnUse" x="1" y="0" width="45" height="45">
<path d="M1.62833 0.808594H46V45.0002H1.62833V0.808594Z" fill="white"/>
</mask>
<g mask="url(#mask0_55_15)">
<path d="M36.4508 4.13573C39.0673 4.13573 41.1976 6.25016 41.1976 8.84816V35.4849C41.1976 38.0829 39.0673 40.1973 36.4508 40.1973H9.6244C7.00784 40.1973 4.8783 38.0829 4.8783 35.4849V8.84816C4.8783 6.25016 7.00784 4.13573 9.6244 4.13573H36.4508ZM36.4508 0.85791H9.6244C5.17899 0.85791 1.57635 4.43429 1.57635 8.84816V35.4849C1.57635 39.8988 5.17899 43.4752 9.6244 43.4752H36.4508C40.8969 43.4752 44.4988 39.8988 44.4988 35.4849V8.84816C44.4988 4.43429 40.8983 0.85791 36.4508 0.85791Z" fill="#0378A6"/>
</g>
<path d="M37.067 10.4808L34.4285 8.69925C33.7022 8.21357 32.707 8.4007 32.215 9.11836L19.3001 28.0291L13.364 22.135C12.7449 21.5204 11.7342 21.5204 11.1123 22.135L8.85997 24.3791C8.23601 24.9951 8.23601 26.0001 8.85997 26.6162L17.983 35.6773C18.4976 36.1861 19.2966 36.5779 20.0201 36.5779C20.745 36.5779 21.4727 36.1237 21.9414 35.4467L37.4912 12.6737C37.9846 11.956 37.7947 10.9693 37.067 10.4808Z" fill="#0378A6"/>
</g>
<defs>
<clipPath id="clip0_55_15">
<rect width="46" height="45" fill="white"/>
</clipPath>
</defs>
</svg>
