<svg width="46" height="46" viewBox="0 0 46 46" fill="none" xmlns="http://www.w3.org/2000/svg">
<mask id="mask0_0_1" style="mask-type:luminance" maskUnits="userSpaceOnUse" x="0" y="0" width="46" height="46">
<path d="M0 0H46V46H0V0Z" fill="white"/>
</mask>
<g mask="url(#mask0_0_1)">
<path d="M36.1005 3.46322C38.8131 3.46322 41.0215 5.66417 41.0215 8.36849V36.0952C41.0215 38.7996 38.8131 41.0005 36.1005 41.0005H8.28968C5.57709 41.0005 3.36941 38.7996 3.36941 36.0952V8.36849C3.36941 5.66417 5.57709 3.46322 8.28968 3.46322H36.1005ZM36.1005 0.0512695H8.28968C3.68113 0.0512695 -0.0537109 3.77399 -0.0537109 8.36849V36.0952C-0.0537109 40.6897 3.68113 44.4125 8.28968 44.4125H36.1005C40.7098 44.4125 44.4439 40.6897 44.4439 36.0952V8.36849C44.4439 3.77399 40.7112 0.0512695 36.1005 0.0512695Z" fill="#52D5F2"/>
</g>
<path d="M36.2864 10.1136L33.5917 8.27822C32.8499 7.77785 31.8334 7.97064 31.331 8.71L18.1407 28.1926L12.078 22.1203C11.4458 21.4871 10.4134 21.4871 9.77833 22.1203L7.47795 24.4323C6.84068 25.0669 6.84068 26.1023 7.47795 26.737L16.7955 36.0722C17.3211 36.5964 18.1371 37 18.876 37C19.6164 37 20.3596 36.5321 20.8383 35.8346L36.7197 12.3729C37.2236 11.6335 37.0297 10.6169 36.2864 10.1136Z" fill="#52D5F2"/>
<mask id="mask1_0_1" style="mask-type:luminance" maskUnits="userSpaceOnUse" x="0" y="0" width="46" height="46">
<path d="M0 0H46V46H0V0Z" fill="white"/>
</mask>
<g mask="url(#mask1_0_1)">
<path d="M36.1005 3.46322C38.8131 3.46322 41.0215 5.66417 41.0215 8.36849V36.0952C41.0215 38.7996 38.8131 41.0005 36.1005 41.0005H8.28968C5.57709 41.0005 3.36941 38.7996 3.36941 36.0952V8.36849C3.36941 5.66417 5.57709 3.46322 8.28968 3.46322H36.1005ZM36.1005 0.0512695H8.28968C3.68113 0.0512695 -0.0537109 3.77399 -0.0537109 8.36849V36.0952C-0.0537109 40.6897 3.68113 44.4125 8.28968 44.4125H36.1005C40.7098 44.4125 44.4439 40.6897 44.4439 36.0952V8.36849C44.4439 3.77399 40.7112 0.0512695 36.1005 0.0512695Z" fill="#52D5F2"/>
</g>
<path d="M36.2864 10.1136L33.5917 8.27822C32.8499 7.77785 31.8334 7.97064 31.331 8.71L18.1407 28.1926L12.078 22.1203C11.4458 21.4871 10.4134 21.4871 9.77833 22.1203L7.47795 24.4323C6.84068 25.0669 6.84068 26.1023 7.47795 26.737L16.7955 36.0722C17.3211 36.5964 18.1371 37 18.876 37C19.6164 37 20.3596 36.5321 20.8383 35.8346L36.7197 12.3729C37.2236 11.6335 37.0297 10.6169 36.2864 10.1136Z" fill="#52D5F2"/>
<mask id="mask2_0_1" style="mask-type:luminance" maskUnits="userSpaceOnUse" x="0" y="0" width="46" height="46">
<path d="M0 0H46V46H0V0Z" fill="white"/>
</mask>
<g mask="url(#mask2_0_1)">
<path d="M36.1005 3.46322C38.8131 3.46322 41.0215 5.66417 41.0215 8.36849V36.0952C41.0215 38.7996 38.8131 41.0005 36.1005 41.0005H8.28968C5.57709 41.0005 3.36941 38.7996 3.36941 36.0952V8.36849C3.36941 5.66417 5.57709 3.46322 8.28968 3.46322H36.1005ZM36.1005 0.0512695H8.28968C3.68113 0.0512695 -0.0537109 3.77399 -0.0537109 8.36849V36.0952C-0.0537109 40.6897 3.68113 44.4125 8.28968 44.4125H36.1005C40.7098 44.4125 44.4439 40.6897 44.4439 36.0952V8.36849C44.4439 3.77399 40.7112 0.0512695 36.1005 0.0512695Z" fill="#52D5F2"/>
</g>
<path d="M36.2864 10.1136L33.5917 8.27822C32.8499 7.77785 31.8334 7.97064 31.331 8.71L18.1407 28.1926L12.078 22.1203C11.4458 21.4871 10.4134 21.4871 9.77833 22.1203L7.47795 24.4323C6.84068 25.0669 6.84068 26.1023 7.47795 26.737L16.7955 36.0722C17.3211 36.5964 18.1371 37 18.876 37C19.6164 37 20.3596 36.5321 20.8383 35.8346L36.7197 12.3729C37.2236 11.6335 37.0297 10.6169 36.2864 10.1136Z" fill="#52D5F2"/>
<mask id="mask3_0_1" style="mask-type:luminance" maskUnits="userSpaceOnUse" x="0" y="0" width="46" height="46">
<path d="M0 0H46V46H0V0Z" fill="white"/>
</mask>
<g mask="url(#mask3_0_1)">
<path d="M36.1005 3.46322C38.8131 3.46322 41.0215 5.66417 41.0215 8.36849V36.0952C41.0215 38.7996 38.8131 41.0005 36.1005 41.0005H8.28968C5.57709 41.0005 3.36941 38.7996 3.36941 36.0952V8.36849C3.36941 5.66417 5.57709 3.46322 8.28968 3.46322H36.1005ZM36.1005 0.0512695H8.28968C3.68113 0.0512695 -0.0537109 3.77399 -0.0537109 8.36849V36.0952C-0.0537109 40.6897 3.68113 44.4125 8.28968 44.4125H36.1005C40.7098 44.4125 44.4439 40.6897 44.4439 36.0952V8.36849C44.4439 3.77399 40.7112 0.0512695 36.1005 0.0512695Z" fill="#52D5F2"/>
</g>
<path d="M36.2864 10.1136L33.5917 8.27822C32.8499 7.77785 31.8334 7.97064 31.331 8.71L18.1407 28.1926L12.078 22.1203C11.4458 21.4871 10.4134 21.4871 9.77833 22.1203L7.47795 24.4323C6.84068 25.0669 6.84068 26.1023 7.47795 26.737L16.7955 36.0722C17.3211 36.5964 18.1371 37 18.876 37C19.6164 37 20.3596 36.5321 20.8383 35.8346L36.7197 12.3729C37.2236 11.6335 37.0297 10.6169 36.2864 10.1136Z" fill="#52D5F2"/>
</svg>
