<svg width="125" height="125" viewBox="0 0 125 125" fill="none" xmlns="http://www.w3.org/2000/svg">
<rect width="125" height="125" rx="25" fill="#0378A6"/>
<path d="M85.2539 89.696V97.1667H39.6972V90.9656C41.3574 87.157 43.3593 83.7878 45.7031 80.8582C48.0794 77.9285 50.6022 75.2917 53.2714 72.948C55.9407 70.6042 58.5774 68.4233 61.1816 66.405C62.4837 65.3959 63.7044 64.3868 64.8437 63.3777C66.0156 62.3686 67.1224 61.3595 68.164 60.3503C70.2474 58.3321 71.9238 56.2162 73.1933 54.0027C74.4954 51.7891 75.1464 49.2826 75.1464 46.4832C75.1464 42.7071 74.0397 39.7774 71.8261 37.6941C69.6126 35.6108 66.5364 34.5691 62.5976 34.5691C58.8541 34.5691 55.7617 35.5945 53.3203 37.6453C50.9114 39.6635 49.4954 42.5118 49.0722 46.1902L40.0879 45.3601C40.7389 39.8588 43.0664 35.4806 47.0703 32.2253C51.1067 28.9701 56.2825 27.3425 62.5976 27.3425C69.5312 27.3425 74.8535 28.9864 78.5644 32.2742C82.3079 35.5294 84.1796 40.1681 84.1796 46.1902C84.1796 48.8595 83.5612 51.5125 82.3242 54.1492C81.1198 56.7859 79.3131 59.4226 76.9043 62.0593C75.6998 63.3614 73.942 65.0378 71.6308 67.0886C69.3196 69.1394 66.4713 71.5483 63.0859 74.3152C59.3424 77.3751 56.3639 80.142 54.1504 82.616C51.9368 85.0574 50.3418 87.4174 49.3652 89.696H85.2539Z" fill="white"/>
</svg>
