<svg width="500" height="312" viewBox="0 0 500 312" fill="none" xmlns="http://www.w3.org/2000/svg">
<path d="M76.0133 176.289C80.2689 176.289 83.5505 175.809 85.8371 174.839C88.1237 173.879 89.701 171.961 90.5797 169.082C91.4477 166.183 91.8923 162.004 91.8923 156.546L91.8923 43.3757L107.771 43.3757L107.771 155.65C107.771 169.413 105.485 178.506 100.912 182.941C96.3597 187.375 88.7271 189.593 78.0035 189.593C69.3335 189.593 62.8019 188.783 58.3981 187.162L58.3981 172.749C65.0038 175.116 70.8685 176.289 76.0133 176.289Z" fill="#F0CA19"/>
<path d="M183.149 99.2158C165.767 99.2158 151.709 113.394 151.709 130.866C151.709 143.446 158.992 154.319 169.578 159.415L169.578 170.246L196.752 170.246L196.752 159.415C207.296 154.319 214.621 143.446 214.621 130.866C214.579 113.394 200.5 99.2158 183.149 99.2158Z" fill="#FAC51B"/>
<path d="M169.546 170.278L169.546 181.503C169.546 185.17 172.489 188.134 176.141 188.134L190.125 188.134C193.767 188.134 196.71 185.17 196.71 181.503L196.71 170.278L169.546 170.278Z" fill="#52D5F2"/>
<mask id="mask0_20_138" style="mask-type:luminance" maskUnits="userSpaceOnUse" x="121" y="69" width="125" height="121">
<path d="M121.665 69.1962L245.649 69.1962L245.649 189.956L121.665 189.956L121.665 69.1962Z" fill="white"/>
</mask>
<g mask="url(#mask0_20_138)">
<path d="M183.149 98.1604C165.238 98.1604 150.671 112.84 150.671 130.866C150.671 143.168 157.647 154.564 168.54 160.076L168.54 181.748C168.54 185.756 171.801 189.05 175.792 189.05L190.57 189.05C194.561 189.05 197.821 185.756 197.821 181.748L197.821 160.118C208.683 154.596 215.691 143.2 215.691 130.909C215.627 112.84 201.05 98.1604 183.149 98.1604ZM176.342 138.137C171.557 137.582 169.228 136.111 169.228 132.508C169.228 129.331 170.933 127.86 172.489 127.86C173.431 127.86 174.331 128.35 175.03 129.193C175.898 130.28 176.342 131.879 176.342 133.84L176.342 138.137ZM183.149 140.514C184.779 140.514 186.378 140.482 187.828 140.407L187.828 169.233L178.428 169.233L178.428 140.407C179.92 140.482 181.519 140.514 183.149 140.514ZM195.672 171.333L195.672 174.755L170.584 174.755L170.584 171.333L195.672 171.333ZM170.584 176.855L195.672 176.855L195.672 180.277L170.584 180.277L170.584 176.855ZM190.538 186.918L175.76 186.918C173.114 186.918 170.965 184.925 170.615 182.377L195.641 182.377C195.323 184.925 193.174 186.918 190.538 186.918ZM196.265 158.477C195.916 158.647 195.672 159.031 195.672 159.415L195.672 169.201L189.914 169.201L189.914 140.237C195.323 139.64 199.102 137.859 199.102 132.476C199.102 128.073 196.403 125.728 193.767 125.728C192.2 125.728 190.676 126.506 189.596 127.86C188.453 129.331 187.828 131.389 187.828 133.809L187.828 138.275C186.441 138.35 184.843 138.382 183.149 138.382C181.445 138.382 179.846 138.35 178.46 138.275L178.46 133.809C178.46 131.389 177.835 129.331 176.692 127.86C175.612 126.506 174.087 125.728 172.531 125.728C169.853 125.728 167.185 128.041 167.185 132.476C167.185 137.859 170.965 139.64 176.385 140.237L176.385 169.233L170.584 169.233L170.584 159.447C170.584 159.031 170.34 158.679 169.991 158.509C159.521 153.445 152.714 142.614 152.714 130.909C152.714 114.023 166.349 100.292 183.107 100.292C199.875 100.292 213.51 114.023 213.51 130.909C213.542 142.571 206.777 153.402 196.265 158.477ZM189.914 138.137L189.914 133.84C189.914 131.879 190.358 130.28 191.226 129.193C191.925 128.318 192.825 127.86 193.767 127.86C195.323 127.86 197.027 129.331 197.027 132.508C197.027 136.111 194.73 137.582 189.914 138.137ZM184.187 70.3476L184.187 88.63C184.187 89.2164 183.731 89.6747 183.149 89.6747C182.556 89.6747 182.101 89.2164 182.101 88.63L182.101 70.3476C182.101 69.7612 182.556 69.3029 183.149 69.3029C183.731 69.3029 184.187 69.7612 184.187 70.3476ZM141.123 131.293L122.703 131.293C122.11 131.293 121.665 130.834 121.665 130.237C121.665 129.651 122.11 129.193 122.703 129.193L141.123 129.193C141.715 129.193 142.171 129.651 142.171 130.237C142.171 130.834 141.715 131.293 141.123 131.293ZM244.633 130.237C244.633 130.834 244.178 131.293 243.585 131.293L225.165 131.293C224.572 131.293 224.128 130.834 224.128 130.237C224.128 129.651 224.572 129.193 225.165 129.193L243.585 129.193C244.146 129.193 244.633 129.651 244.633 130.237ZM154.175 100.047C154.588 100.474 154.588 101.135 154.175 101.518C153.963 101.732 153.688 101.838 153.445 101.838C153.169 101.838 152.926 101.732 152.714 101.518L139.672 88.5874C139.249 88.1716 139.249 87.5107 139.672 87.1269C140.085 86.7005 140.741 86.7005 141.123 87.1269L154.175 100.047ZM226.626 171.855C227.039 172.271 227.039 172.943 226.626 173.326C226.414 173.529 226.139 173.636 225.896 173.636C225.62 173.636 225.377 173.529 225.165 173.326L212.123 160.395C211.7 159.98 211.7 159.308 212.123 158.924C212.536 158.509 213.192 158.509 213.573 158.924L226.626 171.855ZM154.175 158.924C154.588 159.351 154.556 160.012 154.175 160.395L141.123 173.326C140.921 173.529 140.678 173.636 140.403 173.636C140.117 173.636 139.842 173.529 139.672 173.326C139.249 172.9 139.291 172.239 139.672 171.855L152.714 158.924C153.138 158.509 153.794 158.509 154.175 158.924ZM212.081 101.55C211.668 101.135 211.7 100.474 212.081 100.09L225.133 87.1589C225.546 86.7432 226.203 86.7751 226.584 87.1589C227.007 87.5747 226.965 88.2463 226.584 88.63L213.542 101.55C213.33 101.764 213.086 101.87 212.811 101.87C212.568 101.87 212.293 101.764 212.081 101.55ZM167.979 91.3164C168.191 91.8388 167.948 92.4678 167.429 92.681C167.291 92.7449 167.154 92.7449 167.016 92.7449C166.593 92.7449 166.211 92.4997 166.042 92.116L162.739 84.2593C162.538 83.7369 162.782 83.108 163.3 82.8948C163.819 82.6816 164.444 82.9268 164.655 83.4598L167.979 91.3164ZM144.669 147.155L136.719 150.407C136.581 150.471 136.444 150.471 136.338 150.471C135.925 150.471 135.544 150.225 135.364 149.81C135.163 149.287 135.406 148.658 135.925 148.445L143.864 145.194C144.394 144.981 145.018 145.226 145.219 145.759C145.431 146.345 145.188 146.942 144.669 147.155ZM221.629 113.33L229.569 110.079C230.088 109.865 230.712 110.111 230.924 110.644C231.136 111.166 230.892 111.795 230.373 111.997L222.423 115.249C222.286 115.324 222.148 115.324 222.042 115.324C221.629 115.324 221.248 115.078 221.068 114.652C220.825 114.13 221.1 113.543 221.629 113.33ZM203.474 84.2593L200.182 92.116C200.013 92.4997 199.632 92.7449 199.208 92.7449C199.071 92.7449 198.933 92.7129 198.795 92.681C198.277 92.4678 198.033 91.8388 198.234 91.3164L201.537 83.4598C201.749 82.9268 202.373 82.6816 202.892 82.8948C203.474 83.108 203.718 83.6943 203.474 84.2593ZM135.364 110.644C135.575 110.111 136.2 109.833 136.719 110.079L144.669 113.33C145.188 113.543 145.463 114.172 145.219 114.695C145.05 115.11 144.669 115.355 144.245 115.355C144.108 115.355 143.97 115.324 143.864 115.281L135.925 112.04C135.406 111.752 135.12 111.166 135.364 110.644ZM230.924 149.842C230.755 150.257 230.373 150.503 229.95 150.503C229.812 150.503 229.675 150.471 229.569 150.439L221.629 147.187C221.1 146.974 220.825 146.345 221.068 145.823C221.28 145.3 221.905 145.023 222.423 145.268L230.373 148.52C230.892 148.722 231.136 149.319 230.924 149.842Z" fill="#3F3F3F"/>
</g>
<path d="M263.567 112.856C263.567 101.066 265.949 93.049 270.723 88.8062C275.519 84.5421 282.516 82.41 291.726 82.41C303.72 82.41 310.717 86.0239 312.729 93.2409L312.729 84.2863L324.627 84.2863L324.627 185.218C324.627 198.288 321.917 207.115 316.497 211.699C310.961 216.155 302.831 218.393 292.107 218.393C287.195 218.393 282.77 218.191 278.853 217.796C274.958 217.423 271.496 216.911 268.479 216.261L268.479 204.108C273.899 204.983 278.684 205.643 282.834 206.07C287.005 206.518 290.477 206.752 293.25 206.752C299.062 206.752 303.635 205.537 306.97 203.128C310.294 200.708 311.967 195.889 311.967 188.672L311.967 166.584C311.85 169.889 310.622 172.383 308.283 174.089C305.964 175.795 303.222 176.925 300.068 177.5C296.903 178.097 293.886 178.396 291.006 178.396C280.526 178.396 273.275 176.296 269.241 172.085C265.451 167.906 263.567 160.678 263.567 150.38L263.567 112.856ZM311.967 151.532L311.967 109.828C311.967 103.976 310.76 99.8503 308.367 97.4624C305.848 95.309 300.883 94.2217 293.462 94.2217C286.264 94.2217 281.585 95.309 279.446 97.4624C277.297 99.6265 276.228 103.752 276.228 109.828L276.228 151.532C276.228 157.875 277.371 162 279.658 163.898C281.796 165.944 286.454 166.968 293.632 166.968C300.068 166.968 304.736 165.891 307.647 163.727C310.527 161.574 311.967 157.501 311.967 151.532Z" fill="#52D5F2"/>
<path d="M401.049 176.477L388.726 176.477L388.726 167.735C387.594 174.846 380.66 178.396 367.935 178.396C358.62 178.396 352.067 176.423 348.288 172.468C344.752 168.801 342.995 160.998 342.995 149.058C342.995 138.771 344.689 131.661 348.076 127.738C351.485 123.932 358.048 122.024 367.766 122.024L388.388 122.024L388.388 107.355C388.388 102.27 387.181 98.8483 384.788 97.0786C382.385 95.2877 378.035 94.3922 371.746 94.3922C364.654 94.3922 356.767 95.1598 348.076 96.6949L348.076 84.1157C357.529 82.9857 366.041 82.41 373.61 82.41C385.095 82.41 392.537 84.2436 395.925 87.9108C399.334 91.7272 401.049 99.5412 401.049 111.363L401.049 176.477ZM355.444 149.613C355.444 156.243 356.206 160.817 357.731 163.343C359.255 165.88 362.526 167.138 367.554 167.138L370.222 167.138C372.615 167.138 375.229 167.053 378.056 166.882C380.903 166.691 383.328 165.923 385.339 164.58C387.371 163.247 388.388 160.987 388.388 157.8L388.388 132.684L368.528 132.684C364.738 132.684 361.901 133.068 360.017 133.835C358.122 134.582 356.884 136.127 356.291 138.483C355.719 140.85 355.444 144.56 355.444 149.613Z" fill="#52D5F2"/>
<path d="M435.265 99.3386C435.265 96.0446 436.292 93.1343 438.356 90.5972C440.442 88.0707 442.972 86.0772 445.936 84.6274C448.9 83.1563 451.578 82.41 453.981 82.41L460.206 82.41L460.206 97.0786L453.219 97.0786C448.159 97.0786 444.03 97.9102 440.812 99.5518C437.615 101.204 436.027 105.202 436.027 111.534L436.027 176.477L423.324 176.477L423.324 84.2863L435.265 84.2863L435.265 99.3386Z" fill="#52D5F2"/>
</svg>
