<svg width="433" height="100" viewBox="0 0 433 100" fill="none" xmlns="http://www.w3.org/2000/svg">
<path d="M51.7315 15.2695C50.3204 14.9155 48.2072 14.5417 45.3919 14.148C42.5732 13.7487 39.7127 13.4061 36.814 13.1172C33.9119 12.8312 31.5797 12.6868 29.821 12.6868C16.2695 12.6868 9.49546 16.9176 9.49546 25.3737V58.2804C9.49546 60.931 10.1767 63.0465 11.5391 64.6238C12.9016 66.204 14.6394 67.3708 16.7526 68.1241C18.8658 68.8717 21.0207 69.4267 23.2173 69.7892C24.2739 69.9336 25.3931 70.0582 26.5817 70.163C27.7774 70.2706 28.9904 70.3216 30.2242 70.3216C34.6174 70.3216 39.32 69.6816 44.3353 68.3959V43.9849H32.7267L29.2927 36.6673H53.3164V74.1956C44.6029 76.3479 36.682 77.424 29.5569 77.424C23.5788 77.424 18.0594 76.6707 12.9989 75.1698C7.93837 73.6604 4.26114 70.8285 1.97417 66.6741C0.656897 64.3038 0 61.5767 0 58.4956V25.487C0 21.1145 0.962753 17.6369 2.89174 15.0542C4.82767 12.4716 7.33361 10.5005 10.413 9.14124C13.4994 7.78192 16.7561 6.81625 20.1865 6.24137C23.0018 5.73729 26.1264 5.48242 29.5569 5.48242C33.5122 5.48242 37.3423 5.62685 41.0404 5.91287C44.7385 6.20172 48.301 6.63217 51.7315 7.20422V15.2695Z" fill="#FF3131"/>
<path d="M86.8357 23.2217C91.2289 23.2217 94.8991 23.7427 97.8465 24.7849C100.794 25.827 103.011 27.6225 104.506 30.1655C106.007 32.7114 106.758 36.3136 106.758 40.972V52.4809H74.5597V60.3309C74.5597 64.4173 75.9221 67.1246 78.647 68.4528C81.3719 69.7753 84.7572 70.4351 88.8098 70.4351C93.3872 70.4351 98.7536 69.5742 104.909 67.8524V75.272C98.8371 76.705 93.0779 77.4243 87.6281 77.4243C72.9261 77.4243 65.5786 72.1201 65.5786 61.509V40.972C65.5786 36.3136 66.4128 32.7114 68.0811 30.1655C69.7563 27.6225 72.1754 25.827 75.3382 24.7849C78.508 23.7427 82.3382 23.2217 86.8357 23.2217ZM86.3074 29.6784C82.7831 29.6784 79.9435 30.1627 77.7851 31.1283C75.6337 32.0969 74.5597 34.3737 74.5597 37.9589V46.1261H97.916V37.9589C97.916 34.3737 96.8803 32.0969 94.8157 31.1283C92.7477 30.1627 89.9116 29.6784 86.3074 29.6784Z" fill="#FF3131"/>
<path d="M187.002 40.4283C187.002 33.762 188.674 29.2253 192.021 26.8239C195.364 24.4224 200.251 23.2217 206.674 23.2217C215.023 23.2217 219.902 25.2691 221.314 29.3612V24.2978H229.627V81.2983C229.627 88.6754 227.737 93.6567 223.955 96.2394C220.09 98.7456 214.418 100 206.938 100C203.497 100 200.418 99.8926 197.693 99.683C194.968 99.4706 192.549 99.1846 190.436 98.8221V91.9349C194.217 92.439 197.557 92.8185 200.46 93.0677C203.369 93.3169 205.791 93.4415 207.731 93.4415C211.769 93.4415 214.953 92.7618 217.282 91.4025C219.617 90.0432 220.785 87.3189 220.785 83.2353V70.7523C220.702 72.6185 219.843 74.0345 218.213 75.0002C216.59 75.9687 214.675 76.6115 212.471 76.9372C210.275 77.26 208.165 77.4243 206.146 77.4243C198.84 77.4243 193.779 76.2434 190.964 73.8787C188.323 71.5084 187.002 67.4192 187.002 61.6109V40.4283ZM220.785 62.2566V38.7065C220.785 35.4158 219.951 33.0852 218.283 31.7174C216.521 30.5025 213.045 29.8936 207.856 29.8936C202.84 29.8936 199.587 30.5025 198.096 31.7174C196.595 32.9408 195.844 35.2714 195.844 38.7065V62.2566C195.844 65.8446 196.636 68.1753 198.221 69.2457C199.712 70.3955 202.969 70.9675 207.995 70.9675C212.478 70.9675 215.732 70.3615 217.754 69.1438C219.774 67.9289 220.785 65.6322 220.785 62.2566Z" fill="#FF3131"/>
<path d="M253.512 32.7935C253.512 30.9358 254.235 29.2904 255.681 27.8547C257.134 26.4217 258.896 25.2918 260.964 24.4677C263.039 23.638 264.913 23.2217 266.581 23.2217H270.932V31.5022H266.053C262.528 31.5022 259.647 31.9723 257.405 32.9068C255.16 33.8356 254.041 36.0955 254.041 39.6807V76.3481H245.199V24.2978H253.512V32.7935Z" fill="#FF3131"/>
<path d="M317.651 76.3481H309.073V71.398C308.284 75.4164 303.446 77.4243 294.559 77.4243C288.042 77.4243 283.468 76.3142 280.837 74.0939C278.37 72.0097 277.139 67.6004 277.139 60.8633C277.139 55.0579 278.324 51.0423 280.698 48.8221C283.069 46.6698 287.643 45.5937 294.42 45.5937H308.809V37.3132C308.809 34.4445 307.975 32.5075 306.307 31.5022C304.628 30.5053 301.594 30.0069 297.201 30.0069C292.269 30.0069 286.767 30.4345 280.698 31.2869V24.1959C287.295 23.5473 293.238 23.2217 298.521 23.2217C306.519 23.2217 311.708 24.2638 314.092 26.3481C316.463 28.5003 317.651 32.9068 317.651 39.5674V76.3481ZM285.842 61.1805C285.842 64.9129 286.37 67.4956 287.427 68.9286C288.484 70.3643 290.771 71.0808 294.295 71.0808H296.144C297.812 71.0808 299.634 71.0298 301.608 70.9222C303.589 70.8089 305.285 70.3785 306.696 69.6309C308.104 68.8776 308.809 67.6032 308.809 65.8135V51.62H294.948C292.307 51.62 290.326 51.8352 289.012 52.2657C287.695 52.6961 286.836 53.5768 286.44 54.905C286.04 56.2275 285.842 58.3203 285.842 61.1805Z" fill="#FF3131"/>
<path d="M355.519 6.34346C352.266 6.34346 349.909 6.93816 348.456 8.12189C347.01 9.29996 346.288 11.6844 346.288 15.2696V24.2977H362.262V30.6412H346.288V76.348H337.445V30.6412H326.49V24.2977H337.445V15.9153C337.445 9.89749 339.006 5.74026 342.131 3.44359C345.252 1.14975 349.628 0 355.255 0C356.485 0 357.785 0.0538063 359.147 0.158586C360.517 0.266199 361.904 0.390802 363.304 0.532397V6.88718C362.164 6.74559 360.955 6.62098 359.676 6.51337C358.404 6.4001 357.02 6.34346 355.519 6.34346Z" fill="#FF3131"/>
<path d="M379.671 15.5866H370.829V5.48242H379.671V15.5866ZM379.671 76.3479H370.829V24.2976H379.671V76.3479Z" fill="#FF3131"/>
<path d="M432.987 76.3481H424.409V71.398C423.62 75.4164 418.782 77.4243 409.895 77.4243C403.378 77.4243 398.804 76.3142 396.173 74.0939C393.705 72.0097 392.475 67.6004 392.475 60.8633C392.475 55.0579 393.66 51.0423 396.034 48.8221C398.404 46.6698 402.978 45.5937 409.756 45.5937H424.145V37.3132C424.145 34.4445 423.311 32.5075 421.642 31.5022C419.963 30.5053 416.929 30.0069 412.536 30.0069C407.604 30.0069 402.102 30.4345 396.034 31.2869V24.1959C402.63 23.5473 408.574 23.2217 413.857 23.2217C421.854 23.2217 427.043 24.2638 429.428 26.3481C431.798 28.5003 432.987 32.9068 432.987 39.5674V76.3481ZM401.178 61.1805C401.178 64.9129 401.706 67.4956 402.763 68.9286C403.819 70.3643 406.106 71.0808 409.63 71.0808H411.479C413.148 71.0808 414.969 71.0298 416.943 70.9222C418.924 70.8089 420.62 70.3785 422.031 69.6309C423.439 68.8776 424.145 67.6032 424.145 65.8135V51.62H410.284C407.642 51.62 405.661 51.8352 404.347 52.2657C403.03 52.6961 402.172 53.5768 401.775 54.905C401.376 56.2275 401.178 58.3203 401.178 61.1805Z" fill="#FF3131"/>
<path d="M146.462 33.3066C135.793 33.3066 127.171 40.4119 127.171 49.1627C127.171 55.4609 131.641 60.9033 138.138 63.4593V68.8844H154.811V63.4593C161.283 60.9033 165.777 55.4609 165.777 49.1627C165.756 40.4119 157.11 33.3066 146.462 33.3066Z" fill="#F0CA19"/>
<path d="M137.769 68.8848V74.1167C137.769 75.8259 139.577 77.2115 141.808 77.2115H150.38C152.614 77.2115 154.422 75.8259 154.422 74.1167V68.8848H137.769Z" fill="#D9D9D9"/>
<mask id="mask0_417_165" style="mask-type:luminance" maskUnits="userSpaceOnUse" x="109" y="18" width="76" height="60">
<path d="M109.049 18.54H184.3V77.7777H109.049V18.54Z" fill="white"/>
</mask>
<g mask="url(#mask0_417_165)">
<path d="M146.575 32.8438C135.648 32.8438 126.754 40.0934 126.754 48.9969C126.754 55.0685 131.011 60.6955 137.66 63.4226V74.1187C137.66 76.1039 139.652 77.7266 142.085 77.7266H151.108C153.544 77.7266 155.536 76.1039 155.536 74.1187V63.4396C162.164 60.7125 166.442 55.0884 166.442 49.0139C166.397 40.0934 157.503 32.8438 146.575 32.8438ZM142.425 52.585C139.502 52.3103 138.084 51.5853 138.084 49.8069C138.084 48.238 139.12 47.513 140.076 47.513C140.646 47.513 141.195 47.7537 141.619 48.1672C142.151 48.7024 142.425 49.4954 142.425 50.4639V52.585ZM146.575 53.7574C147.573 53.7574 148.546 53.7404 149.436 53.7064V67.9424H143.694V53.7064C144.608 53.7404 145.581 53.7574 146.575 53.7574ZM154.222 68.9788V70.6695H138.908V68.9788H154.222ZM138.908 71.7031H154.222V73.3938H138.908V71.7031ZM151.087 76.6731H142.064C140.455 76.6731 139.141 75.6904 138.932 74.4302H154.201C154.01 75.6904 152.696 76.6731 151.087 76.6731ZM154.58 62.6269C154.368 62.7147 154.222 62.9044 154.222 63.0941V67.9254H150.704V53.6214C154.01 53.3269 156.318 52.4462 156.318 49.7899C156.318 47.615 154.667 46.4596 153.057 46.4596C152.102 46.4596 151.17 46.839 150.517 47.513C149.815 48.238 149.436 49.2546 149.436 50.444V52.6529C148.588 52.6897 147.615 52.7067 146.575 52.7067C145.54 52.7067 144.563 52.6897 143.718 52.6529V50.444C143.718 49.2546 143.336 48.238 142.637 47.513C141.981 46.839 141.049 46.4596 140.097 46.4596C138.463 46.4596 136.833 47.598 136.833 49.7899C136.833 52.4462 139.141 53.3269 142.446 53.6214V67.9424H138.908V63.1111C138.908 62.9044 138.762 62.7317 138.55 62.6439C132.155 60.1433 128.002 54.7938 128.002 49.0139C128.002 40.6796 136.326 33.8972 146.555 33.8972C156.783 33.8972 165.107 40.6796 165.107 49.0139C165.128 54.7768 160.999 60.1263 154.58 62.6269ZM150.704 52.585V50.4639C150.704 49.4954 150.982 48.7024 151.511 48.1672C151.935 47.7367 152.484 47.513 153.057 47.513C154.01 47.513 155.046 48.238 155.046 49.8069C155.046 51.5853 153.648 52.3103 150.704 52.585ZM147.211 19.1091V28.1343C147.211 28.4288 146.937 28.6526 146.575 28.6526C146.217 28.6526 145.939 28.4288 145.939 28.1343V19.1091C145.939 18.8174 146.217 18.5908 146.575 18.5908C146.937 18.5908 147.211 18.8174 147.211 19.1091ZM120.929 49.2037H109.685C109.323 49.2037 109.049 48.9799 109.049 48.6854C109.049 48.3909 109.323 48.1672 109.685 48.1672H120.929C121.29 48.1672 121.565 48.3909 121.565 48.6854C121.565 48.9799 121.29 49.2037 120.929 49.2037ZM184.102 48.6854C184.102 48.9799 183.827 49.2037 183.469 49.2037H172.222C171.861 49.2037 171.586 48.9799 171.586 48.6854C171.586 48.3909 171.861 48.1672 172.222 48.1672H183.469C183.806 48.1672 184.102 48.3909 184.102 48.6854ZM128.891 33.7755C129.145 33.985 129.145 34.3107 128.891 34.5004C128.766 34.6052 128.596 34.6562 128.446 34.6562C128.28 34.6562 128.13 34.6052 128.002 34.5004L120.039 28.1173C119.785 27.9106 119.785 27.5821 120.039 27.3924C120.296 27.1856 120.696 27.1856 120.929 27.3924L128.891 33.7755ZM173.112 69.2365C173.366 69.4433 173.366 69.7718 173.112 69.9615C172.983 70.0634 172.816 70.1173 172.667 70.1173C172.497 70.1173 172.351 70.0634 172.222 69.9615L164.259 63.5756C164.006 63.3688 164.006 63.0403 164.259 62.8506C164.513 62.6439 164.916 62.6439 165.149 62.8506L173.112 69.2365ZM128.891 62.8506C129.145 63.0602 129.124 63.3858 128.891 63.5756L120.929 69.9615C120.803 70.0634 120.654 70.1173 120.484 70.1173C120.317 70.1173 120.147 70.0634 120.039 69.9615C119.785 69.7548 119.806 69.4263 120.039 69.2365L128.002 62.8506C128.259 62.6439 128.658 62.6439 128.891 62.8506ZM164.239 34.5174C163.985 34.3107 164.006 33.985 164.239 33.7953L172.201 27.4094C172.455 27.2026 172.858 27.2196 173.091 27.4094C173.345 27.6161 173.324 27.9446 173.091 28.1343L165.128 34.5174C165 34.6222 164.854 34.6732 164.683 34.6732C164.534 34.6732 164.364 34.6222 164.239 34.5174ZM137.32 29.4625C137.448 29.723 137.299 30.0317 136.983 30.1365C136.899 30.1705 136.812 30.1705 136.729 30.1705C136.475 30.1705 136.242 30.0487 136.135 29.859L134.122 25.9764C133.997 25.7187 134.143 25.4072 134.463 25.3053C134.779 25.2005 135.161 25.3222 135.286 25.58L137.32 29.4625ZM123.09 57.0367L118.238 58.6424C118.155 58.6764 118.072 58.6764 118.006 58.6764C117.752 58.6764 117.519 58.5546 117.415 58.3479C117.286 58.0902 117.436 57.7787 117.752 57.6767L122.604 56.071C122.92 55.9662 123.302 56.088 123.428 56.3457C123.556 56.6402 123.407 56.9348 123.09 57.0367ZM170.064 40.3342L174.912 38.7285C175.229 38.6265 175.611 38.7455 175.739 39.006C175.865 39.2637 175.715 39.5752 175.399 39.6772L170.55 41.2828C170.463 41.3168 170.38 41.3168 170.317 41.3168C170.064 41.3168 169.831 41.1979 169.723 40.9883C169.574 40.7306 169.744 40.4361 170.064 40.3342ZM158.987 25.9764L156.974 29.859C156.867 30.0487 156.634 30.1705 156.38 30.1705C156.297 30.1705 156.213 30.1535 156.126 30.1365C155.81 30.0317 155.661 29.723 155.789 29.4625L157.802 25.58C157.927 25.3222 158.309 25.2005 158.625 25.3053C158.987 25.4072 159.133 25.7017 158.987 25.9764ZM117.415 39.006C117.54 38.7455 117.922 38.6095 118.238 38.7285L123.09 40.3342C123.407 40.4361 123.577 40.7476 123.428 41.0053C123.323 41.2149 123.09 41.3338 122.837 41.3338C122.75 41.3338 122.666 41.3168 122.604 41.2998L117.752 39.6941C117.436 39.5582 117.265 39.2637 117.415 39.006ZM175.739 58.3649C175.632 58.5716 175.399 58.6934 175.145 58.6934C175.062 58.6934 174.975 58.6764 174.912 58.6594L170.064 57.0537C169.744 56.9517 169.574 56.6402 169.723 56.3825C169.852 56.122 170.231 55.9832 170.55 56.105L175.399 57.7107C175.715 57.8126 175.865 58.1072 175.739 58.3649Z" fill="#3F3F3F"/>
</g>
</svg>
