<svg width="226" height="131" viewBox="0 0 226 131" fill="none" xmlns="http://www.w3.org/2000/svg">
<path d="M173.298 27.9005C163.983 27.9005 156.454 35.4446 156.454 44.7345C156.454 51.4259 160.361 57.2058 166.028 59.9186L166.028 65.68L180.586 65.68L180.586 59.9186C186.235 57.2058 190.16 51.4259 190.16 44.7345C190.142 35.4446 182.591 27.9005 173.298 27.9005Z" fill="#FAC51B"/>
<path d="M166.01 65.6985L166.01 71.6629C166.01 73.6153 167.59 75.195 169.543 75.195L177.034 75.195C178.988 75.195 180.568 73.6153 180.568 71.6629L180.568 65.6985L166.01 65.6985Z" fill="#52D5F2"/>
<mask id="mask0_20_3" style="mask-type:luminance" maskUnits="userSpaceOnUse" x="140" y="11" width="67" height="65">
<path d="M140.357 11.9929L206.284 11.9929L206.284 75.7116L140.357 75.7116L140.357 11.9929Z" fill="white"/>
</mask>
<g mask="url(#mask0_20_3)">
<path d="M173.298 27.3431C163.706 27.3431 155.897 35.1456 155.897 44.7344C155.897 51.2783 159.633 57.3349 165.471 60.2728L165.471 71.792C165.471 73.929 167.221 75.6784 169.359 75.6784L177.275 75.6784C179.416 75.6784 181.162 73.929 181.162 71.792L181.162 60.2913C186.981 57.3534 190.736 51.2967 190.736 44.7565C190.699 35.1456 182.89 27.3431 173.298 27.3431ZM169.654 48.6024C167.088 48.3034 165.844 47.5247 165.844 45.6091C165.844 43.9187 166.756 43.1363 167.59 43.1363C168.092 43.1363 168.576 43.3983 168.949 43.8449C169.414 44.4207 169.654 45.2733 169.654 46.3141L169.654 48.6024ZM173.298 49.8647C174.173 49.8647 175.026 49.8462 175.809 49.8093L175.809 65.1411L170.769 65.1411L170.769 49.8093C171.57 49.8462 172.423 49.8647 173.298 49.8647ZM180.01 66.2557L180.01 68.0753L166.567 68.0753L166.567 66.2557L180.01 66.2557ZM166.567 69.1936L180.01 69.1936L180.01 71.0132L166.567 71.0132L166.567 69.1936ZM177.256 74.5453L169.34 74.5453C167.926 74.5453 166.774 73.4861 166.586 72.1278L179.992 72.1278C179.822 73.4861 178.67 74.5453 177.256 74.5453ZM180.324 59.4166C180.14 59.5088 180.01 59.7155 180.01 59.9185L180.01 65.1226L176.924 65.1226L176.924 49.717C179.822 49.3996 181.849 48.4511 181.849 45.5907C181.849 43.2507 180.398 42.0032 178.988 42.0032C178.15 42.0032 177.334 42.4129 176.758 43.1363C176.141 43.9187 175.809 45.0149 175.809 46.2956L175.809 48.6762C175.063 48.7131 174.21 48.7316 173.298 48.7316C172.386 48.7316 171.533 48.7131 170.787 48.6762L170.787 46.2956C170.787 45.0149 170.455 43.9187 169.839 43.1363C169.263 42.4129 168.447 42.0032 167.608 42.0032C166.18 42.0032 164.747 43.2322 164.747 45.5907C164.747 48.4511 166.774 49.3996 169.672 49.717L169.672 65.1411L166.567 65.1411L166.567 59.937C166.567 59.7155 166.438 59.5273 166.253 59.435C160.638 56.7407 156.994 50.9793 156.994 44.7565C156.994 35.7804 164.3 28.4762 173.28 28.4762C182.259 28.4762 189.566 35.7804 189.566 44.7565C189.584 50.9608 185.959 56.7223 180.324 59.4166ZM176.924 48.6024L176.924 46.3141C176.924 45.2733 177.164 44.4207 177.629 43.8449C178.002 43.3799 178.486 43.1363 178.988 43.1363C179.822 43.1363 180.734 43.9187 180.734 45.6091C180.734 47.5247 179.508 48.3034 176.924 48.6024ZM173.856 12.5502L173.856 22.2682C173.856 22.5856 173.616 22.8255 173.298 22.8255C172.981 22.8255 172.741 22.5856 172.741 22.2682L172.741 12.5502C172.741 12.2328 172.981 11.9929 173.298 11.9929C173.616 11.9929 173.856 12.2328 173.856 12.5502ZM150.787 44.9595L140.914 44.9595C140.597 44.9595 140.357 44.7159 140.357 44.4022C140.357 44.0848 140.597 43.8449 140.914 43.8449L150.787 43.8449C151.101 43.8449 151.344 44.0848 151.344 44.4022C151.344 44.7159 151.101 44.9595 150.787 44.9595ZM206.24 44.4022C206.24 44.7159 206 44.9595 205.682 44.9595L195.809 44.9595C195.495 44.9595 195.252 44.7159 195.252 44.4022C195.252 44.0848 195.495 43.8449 195.809 43.8449L205.682 43.8449C205.981 43.8449 206.24 44.0848 206.24 44.4022ZM157.776 28.347C157.998 28.5685 157.998 28.9228 157.776 29.1258C157.665 29.2365 157.514 29.2919 157.385 29.2919C157.237 29.2919 157.108 29.2365 156.994 29.1258L150.004 22.2498C149.783 22.0283 149.783 21.674 150.004 21.471C150.229 21.2459 150.58 21.2459 150.787 21.471L157.776 28.347ZM196.592 66.5362C196.813 66.7577 196.813 67.112 196.592 67.315C196.481 67.4257 196.33 67.4811 196.201 67.4811C196.053 67.4811 195.924 67.4257 195.809 67.315L188.82 60.4389C188.598 60.2175 188.598 59.8632 188.82 59.6602C189.045 59.435 189.396 59.435 189.603 59.6602L196.592 66.5362ZM157.776 59.6602C157.998 59.8816 157.979 60.2359 157.776 60.4389L150.787 67.315C150.673 67.4257 150.543 67.4811 150.396 67.4811C150.248 67.4811 150.097 67.4257 150.004 67.315C149.783 67.0935 149.801 66.7392 150.004 66.5362L156.994 59.6602C157.219 59.435 157.569 59.435 157.776 59.6602ZM188.801 29.1443C188.58 28.9228 188.598 28.5685 188.801 28.3655L195.791 21.4895C196.016 21.2643 196.367 21.2828 196.573 21.4895C196.795 21.7109 196.777 22.0652 196.573 22.2682L189.584 29.1443C189.47 29.255 189.341 29.3104 189.193 29.3104C189.064 29.3104 188.912 29.255 188.801 29.1443ZM165.175 23.7003C165.286 23.9771 165.157 24.313 164.876 24.4237C164.802 24.4606 164.729 24.4606 164.655 24.4606C164.43 24.4606 164.226 24.3314 164.134 24.1284L162.366 19.9467C162.255 19.6662 162.384 19.334 162.665 19.2196C162.945 19.1089 163.278 19.238 163.388 19.5186L165.175 23.7003ZM152.681 53.3968L148.424 55.1241C148.35 55.161 148.276 55.161 148.221 55.161C147.996 55.161 147.793 55.0318 147.7 54.8067C147.59 54.5299 147.719 54.194 147.996 54.0833L152.253 52.356C152.533 52.2453 152.869 52.3744 152.98 52.6513C153.091 52.9687 152.962 53.2861 152.681 53.3968ZM193.915 35.4076L198.172 33.6803C198.449 33.5659 198.785 33.6988 198.896 33.9756C199.007 34.2561 198.877 34.5883 198.6 34.7027L194.343 36.43C194.266 36.4669 194.192 36.4669 194.137 36.4669C193.915 36.4669 193.708 36.3377 193.616 36.1126C193.487 35.8358 193.635 35.5184 193.915 35.4076ZM184.194 19.9467L182.425 24.1284C182.333 24.3314 182.13 24.4606 181.905 24.4606C181.831 24.4606 181.757 24.4421 181.683 24.4237C181.402 24.313 181.273 23.9771 181.384 23.7003L183.152 19.5186C183.263 19.238 183.596 19.1089 183.876 19.2196C184.194 19.334 184.323 19.6477 184.194 19.9467ZM147.7 33.9756C147.811 33.6988 148.147 33.5474 148.424 33.6803L152.681 35.4076C152.962 35.5184 153.109 35.8542 152.98 36.131C152.888 36.3562 152.681 36.4854 152.46 36.4854C152.386 36.4854 152.308 36.4669 152.253 36.4485L147.996 34.7211C147.719 34.5698 147.571 34.2561 147.7 33.9756ZM198.896 54.8252C198.804 55.0503 198.6 55.1795 198.375 55.1795C198.301 55.1795 198.228 55.161 198.172 55.1426L193.915 53.4153C193.635 53.3045 193.487 52.9687 193.616 52.6882C193.727 52.4114 194.063 52.2637 194.343 52.3929L198.6 54.1202C198.877 54.2309 199.007 54.5483 198.896 54.8252Z" fill="#3F3F3F"/>
</g>
<mask id="mask1_20_3" style="mask-type:luminance" maskUnits="userSpaceOnUse" x="140" y="12" width="67" height="64">
<path d="M140.357 12.2242L206.284 12.2242L206.284 75.943L140.357 75.943L140.357 12.2242Z" fill="white"/>
</mask>
<g mask="url(#mask1_20_3)">
<path d="M173.298 27.5745C163.706 27.5745 155.897 35.3769 155.897 44.9657C155.897 51.5096 159.633 57.5663 165.471 60.5042L165.471 72.0233C165.471 74.1603 167.221 75.9098 169.359 75.9098L177.275 75.9098C179.416 75.9098 181.162 74.1603 181.162 72.0233L181.162 60.5226C186.981 57.5847 190.736 51.528 190.736 44.9879C190.699 35.3769 182.89 27.5745 173.298 27.5745ZM169.654 48.8337C167.088 48.5348 165.844 47.756 165.844 45.8404C165.844 44.15 166.756 43.3676 167.59 43.3676C168.092 43.3676 168.576 43.6296 168.949 44.0762C169.414 44.652 169.654 45.5046 169.654 46.5454L169.654 48.8337ZM173.298 50.096C174.173 50.096 175.026 50.0775 175.809 50.0406L175.809 65.3724L170.769 65.3724L170.769 50.0406C171.57 50.0775 172.423 50.096 173.298 50.096ZM180.01 66.487L180.01 68.3066L166.567 68.3066L166.567 66.487L180.01 66.487ZM166.567 69.4249L180.01 69.4249L180.01 71.2445L166.567 71.2445L166.567 69.4249ZM177.256 74.7767L169.34 74.7767C167.926 74.7767 166.774 73.7174 166.586 72.3592L179.992 72.3592C179.822 73.7174 178.67 74.7767 177.256 74.7767ZM180.324 59.6479C180.14 59.7402 180.01 59.9469 180.01 60.1498L180.01 65.3539L176.924 65.3539L176.924 49.9484C179.822 49.6309 181.849 48.6824 181.849 45.822C181.849 43.482 180.398 42.2345 178.988 42.2345C178.15 42.2345 177.334 42.6442 176.758 43.3676C176.141 44.15 175.809 45.2462 175.809 46.5269L175.809 48.9075C175.063 48.9444 174.21 48.9629 173.298 48.9629C172.386 48.9629 171.533 48.9444 170.787 48.9075L170.787 46.5269C170.787 45.2462 170.455 44.15 169.839 43.3676C169.263 42.6442 168.447 42.2345 167.608 42.2345C166.18 42.2345 164.747 43.4635 164.747 45.822C164.747 48.6824 166.774 49.6309 169.672 49.9484L169.672 65.3724L166.567 65.3724L166.567 60.1683C166.567 59.9468 166.438 59.7586 166.253 59.6663C160.638 56.972 156.994 51.2106 156.994 44.9879C156.994 36.0117 164.3 28.7076 173.28 28.7076C182.259 28.7076 189.566 36.0117 189.566 44.9879C189.584 51.1922 185.959 56.9536 180.324 59.6479ZM176.924 48.8337L176.924 46.5454C176.924 45.5046 177.164 44.652 177.629 44.0762C178.002 43.6112 178.486 43.3676 178.988 43.3676C179.822 43.3676 180.734 44.15 180.734 45.8404C180.734 47.756 179.508 48.5348 176.924 48.8337ZM173.856 12.7816L173.856 22.4996C173.856 22.817 173.616 23.0569 173.298 23.0569C172.981 23.0569 172.741 22.817 172.741 22.4996L172.741 12.7816C172.741 12.4641 172.981 12.2242 173.298 12.2242C173.616 12.2242 173.856 12.4641 173.856 12.7816ZM150.787 45.1909L140.914 45.1909C140.597 45.1909 140.357 44.9473 140.357 44.6335C140.357 44.3161 140.597 44.0762 140.914 44.0762L150.787 44.0762C151.101 44.0762 151.344 44.3161 151.344 44.6335C151.344 44.9473 151.101 45.1909 150.787 45.1909ZM206.24 44.6335C206.24 44.9473 206 45.1909 205.682 45.1909L195.809 45.1909C195.495 45.1909 195.252 44.9473 195.252 44.6335C195.252 44.3161 195.495 44.0762 195.809 44.0762L205.682 44.0762C205.981 44.0762 206.24 44.3161 206.24 44.6335ZM157.776 28.5784C157.998 28.7998 157.998 29.1541 157.776 29.3571C157.665 29.4679 157.514 29.5232 157.385 29.5232C157.237 29.5232 157.108 29.4679 156.994 29.3571L150.004 22.4811C149.783 22.2596 149.783 21.9053 150.004 21.7023C150.229 21.4772 150.58 21.4772 150.787 21.7023L157.776 28.5784ZM196.592 66.7675C196.813 66.989 196.813 67.3433 196.592 67.5463C196.481 67.657 196.33 67.7124 196.201 67.7124C196.053 67.7124 195.924 67.657 195.809 67.5463L188.82 60.6703C188.598 60.4488 188.598 60.0945 188.82 59.8915C189.045 59.6663 189.396 59.6663 189.603 59.8915L196.592 66.7675ZM157.776 59.8915C157.998 60.1129 157.979 60.4673 157.776 60.6703L150.787 67.5463C150.673 67.657 150.543 67.7124 150.396 67.7124C150.248 67.7124 150.097 67.657 150.004 67.5463C149.783 67.3248 149.801 66.9705 150.004 66.7675L156.994 59.8915C157.219 59.6663 157.569 59.6663 157.776 59.8915ZM188.801 29.3756C188.58 29.1541 188.598 28.7998 188.801 28.5968L195.791 21.7208C196.016 21.4956 196.367 21.5141 196.573 21.7208C196.795 21.9422 196.777 22.2966 196.573 22.4996L189.584 29.3756C189.47 29.4863 189.341 29.5417 189.193 29.5417C189.064 29.5417 188.912 29.4863 188.801 29.3756ZM165.175 23.9316C165.286 24.2084 165.157 24.5443 164.876 24.655C164.802 24.6919 164.729 24.6919 164.655 24.6919C164.43 24.6919 164.226 24.5627 164.134 24.3597L162.366 20.178C162.255 19.8975 162.384 19.5653 162.665 19.4509C162.945 19.3402 163.278 19.4694 163.388 19.7499L165.175 23.9316ZM152.681 53.6281L148.424 55.3554C148.35 55.3923 148.276 55.3923 148.221 55.3923C147.996 55.3923 147.793 55.2632 147.7 55.038C147.59 54.7612 147.719 54.4254 147.996 54.3146L152.253 52.5873C152.533 52.4766 152.869 52.6058 152.98 52.8826C153.091 53.2 152.962 53.5174 152.681 53.6281ZM193.915 35.639L198.172 33.9116C198.449 33.7972 198.785 33.9301 198.896 34.2069C199.007 34.4874 198.877 34.8196 198.6 34.934L194.343 36.6613C194.266 36.6982 194.192 36.6982 194.137 36.6982C193.915 36.6982 193.708 36.569 193.616 36.3439C193.487 36.0671 193.635 35.7497 193.915 35.639ZM184.194 20.178L182.425 24.3597C182.333 24.5627 182.13 24.6919 181.905 24.6919C181.831 24.6919 181.757 24.6735 181.683 24.655C181.402 24.5443 181.273 24.2084 181.384 23.9316L183.152 19.7499C183.263 19.4694 183.596 19.3402 183.876 19.4509C184.194 19.5653 184.323 19.8791 184.194 20.178ZM147.7 34.2069C147.811 33.9301 148.147 33.7788 148.424 33.9116L152.681 35.639C152.962 35.7497 153.109 36.0855 152.98 36.3624C152.888 36.5875 152.681 36.7167 152.46 36.7167C152.386 36.7167 152.308 36.6982 152.253 36.6798L147.996 34.9525C147.719 34.8011 147.571 34.4874 147.7 34.2069ZM198.896 55.0565C198.804 55.2816 198.6 55.4108 198.375 55.4108C198.301 55.4108 198.228 55.3923 198.172 55.3739L193.915 53.6466C193.635 53.5359 193.487 53.2 193.616 52.9195C193.727 52.6427 194.063 52.495 194.343 52.6242L198.6 54.3515C198.877 54.4623 199.007 54.7797 198.896 55.0565Z" fill="#3F3F3F"/>
</g>
<mask id="mask2_20_3" style="mask-type:luminance" maskUnits="userSpaceOnUse" x="140" y="11" width="67" height="65">
<path d="M140.357 11.9929L206.284 11.9929L206.284 75.7116L140.357 75.7116L140.357 11.9929Z" fill="white"/>
</mask>
<g mask="url(#mask2_20_3)">
<path d="M173.298 27.3431C163.706 27.3431 155.897 35.1456 155.897 44.7344C155.897 51.2783 159.633 57.3349 165.471 60.2728L165.471 71.792C165.471 73.929 167.221 75.6784 169.359 75.6784L177.275 75.6784C179.416 75.6784 181.162 73.929 181.162 71.792L181.162 60.2913C186.981 57.3534 190.736 51.2967 190.736 44.7565C190.699 35.1456 182.89 27.3431 173.298 27.3431ZM169.654 48.6024C167.088 48.3034 165.844 47.5247 165.844 45.6091C165.844 43.9187 166.756 43.1363 167.59 43.1363C168.092 43.1363 168.576 43.3983 168.949 43.8449C169.414 44.4207 169.654 45.2733 169.654 46.3141L169.654 48.6024ZM173.298 49.8647C174.173 49.8647 175.026 49.8462 175.809 49.8093L175.809 65.1411L170.769 65.1411L170.769 49.8093C171.57 49.8462 172.423 49.8647 173.298 49.8647ZM180.01 66.2557L180.01 68.0753L166.567 68.0753L166.567 66.2557L180.01 66.2557ZM166.567 69.1936L180.01 69.1936L180.01 71.0132L166.567 71.0132L166.567 69.1936ZM177.256 74.5453L169.34 74.5453C167.926 74.5453 166.774 73.4861 166.586 72.1278L179.992 72.1278C179.822 73.4861 178.67 74.5453 177.256 74.5453ZM180.324 59.4166C180.14 59.5088 180.01 59.7155 180.01 59.9185L180.01 65.1226L176.924 65.1226L176.924 49.717C179.822 49.3996 181.849 48.4511 181.849 45.5907C181.849 43.2507 180.398 42.0032 178.988 42.0032C178.15 42.0032 177.334 42.4129 176.758 43.1363C176.141 43.9187 175.809 45.0149 175.809 46.2956L175.809 48.6762C175.063 48.7131 174.21 48.7316 173.298 48.7316C172.386 48.7316 171.533 48.7131 170.787 48.6762L170.787 46.2956C170.787 45.0149 170.455 43.9187 169.839 43.1363C169.263 42.4129 168.447 42.0032 167.608 42.0032C166.18 42.0032 164.747 43.2322 164.747 45.5907C164.747 48.4511 166.774 49.3996 169.672 49.717L169.672 65.1411L166.567 65.1411L166.567 59.937C166.567 59.7155 166.438 59.5273 166.253 59.435C160.638 56.7407 156.994 50.9793 156.994 44.7565C156.994 35.7804 164.3 28.4762 173.28 28.4762C182.259 28.4762 189.566 35.7804 189.566 44.7565C189.584 50.9608 185.959 56.7223 180.324 59.4166ZM176.924 48.6024L176.924 46.3141C176.924 45.2733 177.164 44.4207 177.629 43.8449C178.002 43.3799 178.486 43.1363 178.988 43.1363C179.822 43.1363 180.734 43.9187 180.734 45.6091C180.734 47.5247 179.508 48.3034 176.924 48.6024ZM173.856 12.5502L173.856 22.2682C173.856 22.5856 173.616 22.8255 173.298 22.8255C172.981 22.8255 172.741 22.5856 172.741 22.2682L172.741 12.5502C172.741 12.2328 172.981 11.9929 173.298 11.9929C173.616 11.9929 173.856 12.2328 173.856 12.5502ZM150.787 44.9595L140.914 44.9595C140.597 44.9595 140.357 44.7159 140.357 44.4022C140.357 44.0848 140.597 43.8449 140.914 43.8449L150.787 43.8449C151.101 43.8449 151.344 44.0848 151.344 44.4022C151.344 44.7159 151.101 44.9595 150.787 44.9595ZM206.24 44.4022C206.24 44.7159 206 44.9595 205.682 44.9595L195.809 44.9595C195.495 44.9595 195.252 44.7159 195.252 44.4022C195.252 44.0848 195.495 43.8449 195.809 43.8449L205.682 43.8449C205.981 43.8449 206.24 44.0848 206.24 44.4022ZM157.776 28.347C157.998 28.5685 157.998 28.9228 157.776 29.1258C157.665 29.2365 157.514 29.2919 157.385 29.2919C157.237 29.2919 157.108 29.2365 156.994 29.1258L150.004 22.2498C149.783 22.0283 149.783 21.674 150.004 21.471C150.229 21.2459 150.58 21.2459 150.787 21.471L157.776 28.347ZM196.592 66.5362C196.813 66.7577 196.813 67.112 196.592 67.315C196.481 67.4257 196.33 67.4811 196.201 67.4811C196.053 67.4811 195.924 67.4257 195.809 67.315L188.82 60.4389C188.598 60.2175 188.598 59.8632 188.82 59.6602C189.045 59.435 189.396 59.435 189.603 59.6602L196.592 66.5362ZM157.776 59.6602C157.998 59.8816 157.979 60.2359 157.776 60.4389L150.787 67.315C150.673 67.4257 150.543 67.4811 150.396 67.4811C150.248 67.4811 150.097 67.4257 150.004 67.315C149.783 67.0935 149.801 66.7392 150.004 66.5362L156.994 59.6602C157.219 59.435 157.569 59.435 157.776 59.6602ZM188.801 29.1443C188.58 28.9228 188.598 28.5685 188.801 28.3655L195.791 21.4895C196.016 21.2643 196.367 21.2828 196.573 21.4895C196.795 21.7109 196.777 22.0652 196.573 22.2682L189.584 29.1443C189.47 29.255 189.341 29.3104 189.193 29.3104C189.064 29.3104 188.912 29.255 188.801 29.1443ZM165.175 23.7003C165.286 23.9771 165.157 24.313 164.876 24.4237C164.802 24.4606 164.729 24.4606 164.655 24.4606C164.43 24.4606 164.226 24.3314 164.134 24.1284L162.366 19.9467C162.255 19.6662 162.384 19.334 162.665 19.2196C162.945 19.1089 163.278 19.238 163.388 19.5186L165.175 23.7003ZM152.681 53.3968L148.424 55.1241C148.35 55.161 148.276 55.161 148.221 55.161C147.996 55.161 147.793 55.0318 147.7 54.8067C147.59 54.5299 147.719 54.194 147.996 54.0833L152.253 52.356C152.533 52.2453 152.869 52.3744 152.98 52.6513C153.091 52.9687 152.962 53.2861 152.681 53.3968ZM193.915 35.4076L198.172 33.6803C198.449 33.5659 198.785 33.6988 198.896 33.9756C199.007 34.2561 198.877 34.5883 198.6 34.7027L194.343 36.43C194.266 36.4669 194.192 36.4669 194.137 36.4669C193.915 36.4669 193.708 36.3377 193.616 36.1126C193.487 35.8358 193.635 35.5184 193.915 35.4076ZM184.194 19.9467L182.425 24.1284C182.333 24.3314 182.13 24.4606 181.905 24.4606C181.831 24.4606 181.757 24.4421 181.683 24.4237C181.402 24.313 181.273 23.9771 181.384 23.7003L183.152 19.5186C183.263 19.238 183.596 19.1089 183.876 19.2196C184.194 19.334 184.323 19.6477 184.194 19.9467ZM147.7 33.9756C147.811 33.6988 148.147 33.5474 148.424 33.6803L152.681 35.4076C152.962 35.5184 153.109 35.8542 152.98 36.131C152.888 36.3562 152.681 36.4854 152.46 36.4854C152.386 36.4854 152.308 36.4669 152.253 36.4485L147.996 34.7211C147.719 34.5698 147.571 34.2561 147.7 33.9756ZM198.896 54.8252C198.804 55.0503 198.6 55.1795 198.375 55.1795C198.301 55.1795 198.228 55.161 198.172 55.1426L193.915 53.4153C193.635 53.3045 193.487 52.9687 193.616 52.6882C193.727 52.4114 194.063 52.2637 194.343 52.3929L198.6 54.1202C198.877 54.2309 199.007 54.5483 198.896 54.8252Z" fill="#3F3F3F"/>
</g>
<mask id="mask3_20_3" style="mask-type:luminance" maskUnits="userSpaceOnUse" x="140" y="12" width="67" height="64">
<path d="M140.357 12.2242L206.284 12.2242L206.284 75.943L140.357 75.943L140.357 12.2242Z" fill="white"/>
</mask>
<g mask="url(#mask3_20_3)">
<path d="M173.298 27.5745C163.706 27.5745 155.897 35.3769 155.897 44.9657C155.897 51.5096 159.633 57.5663 165.471 60.5042L165.471 72.0233C165.471 74.1603 167.221 75.9098 169.359 75.9098L177.275 75.9098C179.416 75.9098 181.162 74.1603 181.162 72.0233L181.162 60.5226C186.981 57.5847 190.736 51.528 190.736 44.9879C190.699 35.3769 182.89 27.5745 173.298 27.5745ZM169.654 48.8337C167.088 48.5348 165.844 47.756 165.844 45.8404C165.844 44.15 166.756 43.3676 167.59 43.3676C168.092 43.3676 168.576 43.6296 168.949 44.0762C169.414 44.652 169.654 45.5046 169.654 46.5454L169.654 48.8337ZM173.298 50.096C174.173 50.096 175.026 50.0775 175.809 50.0406L175.809 65.3724L170.769 65.3724L170.769 50.0406C171.57 50.0775 172.423 50.096 173.298 50.096ZM180.01 66.487L180.01 68.3066L166.567 68.3066L166.567 66.487L180.01 66.487ZM166.567 69.4249L180.01 69.4249L180.01 71.2445L166.567 71.2445L166.567 69.4249ZM177.256 74.7767L169.34 74.7767C167.926 74.7767 166.774 73.7174 166.586 72.3592L179.992 72.3592C179.822 73.7174 178.67 74.7767 177.256 74.7767ZM180.324 59.6479C180.14 59.7402 180.01 59.9469 180.01 60.1498L180.01 65.3539L176.924 65.3539L176.924 49.9484C179.822 49.6309 181.849 48.6824 181.849 45.822C181.849 43.482 180.398 42.2345 178.988 42.2345C178.15 42.2345 177.334 42.6442 176.758 43.3676C176.141 44.15 175.809 45.2462 175.809 46.5269L175.809 48.9075C175.063 48.9444 174.21 48.9629 173.298 48.9629C172.386 48.9629 171.533 48.9444 170.787 48.9075L170.787 46.5269C170.787 45.2462 170.455 44.15 169.839 43.3676C169.263 42.6442 168.447 42.2345 167.608 42.2345C166.18 42.2345 164.747 43.4635 164.747 45.822C164.747 48.6824 166.774 49.6309 169.672 49.9484L169.672 65.3724L166.567 65.3724L166.567 60.1683C166.567 59.9468 166.438 59.7586 166.253 59.6663C160.638 56.972 156.994 51.2106 156.994 44.9879C156.994 36.0117 164.3 28.7076 173.28 28.7076C182.259 28.7076 189.566 36.0117 189.566 44.9879C189.584 51.1922 185.959 56.9536 180.324 59.6479ZM176.924 48.8337L176.924 46.5454C176.924 45.5046 177.164 44.652 177.629 44.0762C178.002 43.6112 178.486 43.3676 178.988 43.3676C179.822 43.3676 180.734 44.15 180.734 45.8404C180.734 47.756 179.508 48.5348 176.924 48.8337ZM173.856 12.7816L173.856 22.4996C173.856 22.817 173.616 23.0569 173.298 23.0569C172.981 23.0569 172.741 22.817 172.741 22.4996L172.741 12.7816C172.741 12.4641 172.981 12.2242 173.298 12.2242C173.616 12.2242 173.856 12.4641 173.856 12.7816ZM150.787 45.1909L140.914 45.1909C140.597 45.1909 140.357 44.9473 140.357 44.6335C140.357 44.3161 140.597 44.0762 140.914 44.0762L150.787 44.0762C151.101 44.0762 151.344 44.3161 151.344 44.6335C151.344 44.9473 151.101 45.1909 150.787 45.1909ZM206.24 44.6335C206.24 44.9473 206 45.1909 205.682 45.1909L195.809 45.1909C195.495 45.1909 195.252 44.9473 195.252 44.6335C195.252 44.3161 195.495 44.0762 195.809 44.0762L205.682 44.0762C205.981 44.0762 206.24 44.3161 206.24 44.6335ZM157.776 28.5784C157.998 28.7998 157.998 29.1541 157.776 29.3571C157.665 29.4679 157.514 29.5232 157.385 29.5232C157.237 29.5232 157.108 29.4679 156.994 29.3571L150.004 22.4811C149.783 22.2596 149.783 21.9053 150.004 21.7023C150.229 21.4772 150.58 21.4772 150.787 21.7023L157.776 28.5784ZM196.592 66.7675C196.813 66.989 196.813 67.3433 196.592 67.5463C196.481 67.657 196.33 67.7124 196.201 67.7124C196.053 67.7124 195.924 67.657 195.809 67.5463L188.82 60.6703C188.598 60.4488 188.598 60.0945 188.82 59.8915C189.045 59.6663 189.396 59.6663 189.603 59.8915L196.592 66.7675ZM157.776 59.8915C157.998 60.1129 157.979 60.4673 157.776 60.6703L150.787 67.5463C150.673 67.657 150.543 67.7124 150.396 67.7124C150.248 67.7124 150.097 67.657 150.004 67.5463C149.783 67.3248 149.801 66.9705 150.004 66.7675L156.994 59.8915C157.219 59.6663 157.569 59.6663 157.776 59.8915ZM188.801 29.3756C188.58 29.1541 188.598 28.7998 188.801 28.5968L195.791 21.7208C196.016 21.4956 196.367 21.5141 196.573 21.7208C196.795 21.9422 196.777 22.2966 196.573 22.4996L189.584 29.3756C189.47 29.4863 189.341 29.5417 189.193 29.5417C189.064 29.5417 188.912 29.4863 188.801 29.3756ZM165.175 23.9316C165.286 24.2084 165.157 24.5443 164.876 24.655C164.802 24.6919 164.729 24.6919 164.655 24.6919C164.43 24.6919 164.226 24.5627 164.134 24.3597L162.366 20.178C162.255 19.8975 162.384 19.5653 162.665 19.4509C162.945 19.3402 163.278 19.4694 163.388 19.7499L165.175 23.9316ZM152.681 53.6281L148.424 55.3554C148.35 55.3923 148.276 55.3923 148.221 55.3923C147.996 55.3923 147.793 55.2632 147.7 55.038C147.59 54.7612 147.719 54.4254 147.996 54.3146L152.253 52.5873C152.533 52.4766 152.869 52.6058 152.98 52.8826C153.091 53.2 152.962 53.5174 152.681 53.6281ZM193.915 35.639L198.172 33.9116C198.449 33.7972 198.785 33.9301 198.896 34.2069C199.007 34.4874 198.877 34.8196 198.6 34.934L194.343 36.6613C194.266 36.6982 194.192 36.6982 194.137 36.6982C193.915 36.6982 193.708 36.569 193.616 36.3439C193.487 36.0671 193.635 35.7497 193.915 35.639ZM184.194 20.178L182.425 24.3597C182.333 24.5627 182.13 24.6919 181.905 24.6919C181.831 24.6919 181.757 24.6735 181.683 24.655C181.402 24.5443 181.273 24.2084 181.384 23.9316L183.152 19.7499C183.263 19.4694 183.596 19.3402 183.876 19.4509C184.194 19.5653 184.323 19.8791 184.194 20.178ZM147.7 34.2069C147.811 33.9301 148.147 33.7788 148.424 33.9116L152.681 35.639C152.962 35.7497 153.109 36.0855 152.98 36.3624C152.888 36.5875 152.681 36.7167 152.46 36.7167C152.386 36.7167 152.308 36.6982 152.253 36.6798L147.996 34.9525C147.719 34.8011 147.571 34.4874 147.7 34.2069ZM198.896 55.0565C198.804 55.2816 198.6 55.4108 198.375 55.4108C198.301 55.4108 198.228 55.3923 198.172 55.3739L193.915 53.6466C193.635 53.5359 193.487 53.2 193.616 52.9195C193.727 52.6427 194.063 52.495 194.343 52.6242L198.6 54.3515C198.877 54.4623 199.007 54.7797 198.896 55.0565Z" fill="#3F3F3F"/>
</g>
<path d="M62.8101 70.7921L47.0372 70.7921L47.0372 40.2467L62.4262 40.2467L62.4262 43.4504L50.4783 43.4504L50.4783 53.4304L61.2594 53.4304L61.2594 56.6193L50.4783 56.6193L50.4783 67.5885L62.8101 67.5885L62.8101 70.7921Z" fill="#52D5F2"/>
<path d="M73.5848 47.5397C74.2715 47.5397 75.0395 47.6209 75.8887 47.776C76.7342 47.9347 77.4726 48.2262 78.104 48.647C78.7316 49.0714 79.0492 49.6767 79.0492 50.4629L79.1378 50.4629C79.1082 49.1748 79.0824 48.0417 79.0639 47.0673C79.0528 46.0929 79.0492 45.2957 79.0492 44.6757L79.0492 37.8402L82.254 37.8402L82.254 70.7921L79.1378 70.7921L79.1378 68.1051C79.1378 68.9245 78.6209 69.6479 77.5871 70.2753C76.5533 70.9323 75.1539 71.2645 73.3928 71.2645C70.9486 71.2645 69.2059 70.7478 68.1647 69.7143C67.1604 68.644 66.6583 66.7432 66.6583 64.0157L66.6583 53.9913C66.6583 52.2308 66.9315 50.8873 67.4853 49.9609C68.0354 49.0382 68.8293 48.4034 69.8631 48.0565C70.8969 47.7132 72.1374 47.5397 73.5848 47.5397ZM74.1017 68.3413C75.0173 68.3413 75.8481 68.2638 76.5976 68.1051C77.3545 67.9501 77.9489 67.6179 78.3846 67.116C78.8276 66.614 79.0492 65.8463 79.0492 64.8129L79.0492 53.5632C79.0492 51.5259 77.4911 50.5072 74.3823 50.5072C72.4697 50.5072 71.2292 50.6954 70.6606 51.0682C70.0994 51.4447 69.8188 52.2751 69.8188 53.5632L69.8188 64.8129C69.8188 66.3483 70.2064 67.3227 70.9855 67.736C71.7719 68.142 72.8094 68.3413 74.1017 68.3413Z" fill="#52D5F2"/>
<path d="M93.408 71.2645C91.3699 71.2645 89.8672 70.7958 88.9036 69.862C87.9473 68.9171 87.471 67.2046 87.471 64.7243L87.471 48.0122L90.6315 48.0122L90.6315 64.4881C90.6315 66.4 91.1927 67.5442 92.3151 67.928C92.7877 68.1458 93.4449 68.2528 94.2941 68.2528C96.0553 68.2528 97.2811 68.0313 97.9715 67.5884C98.6583 67.1566 99.0053 66.3594 99.0053 65.1968L99.0053 48.0122L102.166 48.0122L102.166 70.7921L99.0053 70.7921L99.0053 68.0166C98.6878 70.1831 96.8233 71.2645 93.408 71.2645Z" fill="#52D5F2"/>
<path d="M120.053 70.6002C118.458 71.0431 116.642 71.2645 114.604 71.2645C113.902 71.2645 113.326 71.2535 112.876 71.235C112.422 71.2239 111.997 71.1833 111.606 71.1169C111.211 71.0579 110.734 70.9176 110.173 70.7035C109.413 70.4489 108.848 70.0687 108.475 69.5667C108.098 69.0648 107.77 68.3266 107.485 67.3522C107.197 66.4185 107.057 65.2411 107.057 63.8238L107.057 55.453C107.057 54.2645 107.135 53.2052 107.293 52.2788C107.448 51.3451 107.736 50.5811 108.15 49.9905C108.552 49.4295 108.951 48.9792 109.346 48.6323C109.738 48.278 110.28 48.0233 110.971 47.8646C111.728 47.717 112.359 47.6284 112.861 47.5988C113.363 47.5619 114.05 47.5398 114.929 47.5398C116.561 47.5398 118.193 47.776 119.817 48.2484L119.817 51.3487C117.934 50.7287 116.177 50.4187 114.545 50.4187C112.791 50.4187 111.65 50.6992 111.118 51.2602C110.576 51.8618 110.306 53.0539 110.306 54.8329L110.306 64.1486C110.306 65.8538 110.605 66.9536 111.207 67.4556C111.835 68.0166 113.075 68.2971 114.929 68.2971C116.649 68.2971 118.359 67.9981 120.053 67.3965L120.053 70.6002Z" fill="#FAC51B"/>
<path d="M137.573 70.7921L134.516 70.7921L134.516 68.6219C134.228 70.3861 132.5 71.2645 129.332 71.2645C127.006 71.2645 125.374 70.7773 124.429 69.803C123.55 68.8987 123.114 66.9684 123.114 64.0157C123.114 61.4764 123.535 59.7196 124.384 58.7452C125.23 57.8003 126.865 57.3279 129.287 57.3279L134.412 57.3279L134.412 53.7109C134.412 52.4523 134.117 51.6071 133.526 51.1716C132.924 50.7287 131.842 50.5072 130.277 50.5072C128.512 50.5072 126.548 50.6955 124.384 51.0682L124.384 47.9679C126.736 47.6837 128.859 47.5398 130.75 47.5398C133.604 47.5398 135.453 47.9975 136.303 48.9128C137.148 49.8503 137.573 51.7769 137.573 54.7L137.573 70.7921ZM126.23 64.1486C126.23 65.7836 126.415 66.9167 126.792 67.5442C127.164 68.1753 127.98 68.489 129.243 68.489L129.893 68.489C130.491 68.489 131.141 68.4669 131.842 68.4152C132.551 68.3672 133.157 68.179 133.659 67.8542C134.161 67.522 134.412 66.9647 134.412 66.1859L134.412 59.9706L129.479 59.9706C128.534 59.9706 127.825 60.0665 127.353 60.2511C126.88 60.4393 126.574 60.8231 126.437 61.4026C126.297 61.9858 126.23 62.9011 126.23 64.1486Z" fill="#52D5F2"/>
<path d="M122.152 109.888C120.557 110.331 118.74 110.552 116.702 110.552C116.001 110.552 115.425 110.541 114.974 110.523C114.52 110.512 114.096 110.471 113.704 110.405C113.309 110.345 112.833 110.205 112.272 109.991C111.511 109.736 110.946 109.356 110.573 108.854C110.197 108.352 109.868 107.614 109.584 106.64C109.296 105.706 109.156 104.529 109.156 103.111L109.156 94.7406C109.156 93.5521 109.233 92.4928 109.392 91.5664C109.547 90.6327 109.835 89.8686 110.249 89.2781C110.651 88.7171 111.05 88.2668 111.445 87.9199C111.836 87.5656 112.379 87.3109 113.069 87.1522C113.826 87.0046 114.458 86.916 114.96 86.8864C115.462 86.8495 116.149 86.8274 117.027 86.8274C118.659 86.8274 120.291 87.0636 121.916 87.536L121.916 90.6363C120.033 90.0163 118.275 89.7063 116.643 89.7063C114.89 89.7063 113.749 89.9868 113.217 90.5478C112.674 91.1494 112.405 92.3415 112.405 94.1205L112.405 103.436C112.405 105.141 112.704 106.241 113.306 106.743C113.933 107.304 115.174 107.585 117.027 107.585C118.748 107.585 120.457 107.286 122.152 106.684L122.152 109.888Z" fill="#52D5F2"/>
<path d="M141.311 94.9768L141.311 102.875C141.311 104.794 141.067 106.345 140.587 107.526C140.103 108.699 139.31 109.5 138.209 109.932C137.39 110.246 136.659 110.427 136.009 110.478C135.366 110.526 134.502 110.552 133.409 110.552C132.058 110.552 131.002 110.5 130.234 110.405C129.466 110.316 128.639 109.987 127.753 109.415C126.933 108.913 126.357 108.116 126.025 107.024C125.7 105.924 125.538 104.54 125.538 102.875L125.538 94.9768C125.538 92.9985 125.774 91.3597 126.247 90.0606C126.719 88.754 127.52 87.883 128.654 87.4475C129.47 87.1042 130.19 86.916 130.81 86.8864C131.438 86.8495 132.306 86.8274 133.409 86.8274C134.539 86.8274 135.411 86.8495 136.024 86.8864C136.633 86.916 137.36 87.1042 138.209 87.4475C138.996 87.7538 139.575 88.1967 139.952 88.7762C140.325 89.3593 140.639 90.1492 140.897 91.1531C141.17 92.1976 141.311 93.4709 141.311 94.9768ZM138.062 103.495L138.062 94.2681C138.062 92.1644 137.737 90.8578 137.087 90.3558C136.485 89.8539 135.259 89.6029 133.409 89.6029C131.586 89.6029 130.36 89.8539 129.732 90.3558C129.101 90.8873 128.787 92.1939 128.787 94.2681L128.787 103.495C128.787 104.433 128.864 105.208 129.023 105.828C129.178 106.441 129.496 106.883 129.968 107.157C130.5 107.474 131.002 107.655 131.475 107.703C131.947 107.754 132.59 107.777 133.409 107.777C134.255 107.777 134.916 107.754 135.388 107.703C135.861 107.655 136.363 107.474 136.895 107.157C137.367 106.883 137.678 106.441 137.825 105.828C137.98 105.208 138.062 104.433 138.062 103.495Z" fill="#FAC51B"/>
<path d="M152.518 86.8275C153.205 86.8275 153.973 86.9087 154.822 87.0637C155.668 87.2224 156.406 87.514 157.037 87.9347C157.665 88.3592 157.983 88.9645 157.983 89.7506L158.071 89.7506C158.042 88.4625 158.016 87.3294 157.997 86.355C157.986 85.3807 157.983 84.5834 157.983 83.9634L157.983 77.1279L161.187 77.1279L161.187 110.08L158.071 110.08L158.071 107.393C158.071 108.212 157.554 108.936 156.521 109.563C155.487 110.22 154.087 110.552 152.326 110.552C149.882 110.552 148.139 110.035 147.098 109.002C146.094 107.932 145.592 106.031 145.592 103.303L145.592 93.2791C145.592 91.5185 145.865 90.1751 146.419 89.2487C146.969 88.3259 147.763 87.6911 148.797 87.3442C149.83 87.0009 151.071 86.8275 152.518 86.8275ZM153.035 107.629C153.951 107.629 154.782 107.552 155.531 107.393C156.288 107.238 156.882 106.906 157.318 106.404C157.761 105.902 157.983 105.134 157.983 104.101L157.983 92.8509C157.983 90.8136 156.425 89.7949 153.316 89.7949C151.403 89.7949 150.163 89.9831 149.594 90.3559C149.033 90.7324 148.752 91.5628 148.752 92.8509L148.752 104.101C148.752 105.636 149.14 106.61 149.919 107.024C150.705 107.43 151.743 107.629 153.035 107.629Z" fill="#FAC51B"/>
<path d="M173.331 86.8274C174.896 86.8274 176.203 87.0599 177.259 87.5213C178.312 87.9752 179.105 88.7577 179.637 89.8686C180.169 90.9833 180.435 92.5556 180.435 94.5929L180.435 99.6272L168.945 99.6272L168.945 103.067C168.945 104.861 169.432 106.046 170.407 106.625C171.381 107.208 172.593 107.496 174.04 107.496C175.664 107.496 177.573 107.12 179.77 106.359L179.77 109.607C177.614 110.235 175.561 110.552 173.612 110.552C168.361 110.552 165.74 108.231 165.74 103.584L165.74 94.5929C165.74 92.5556 166.039 90.9833 166.641 89.8686C167.239 88.7577 168.103 87.9752 169.225 87.5213C170.355 87.0599 171.725 86.8274 173.331 86.8274ZM173.139 89.6472C171.876 89.6472 170.865 89.8613 170.097 90.282C169.329 90.7065 168.945 91.7067 168.945 93.279L168.945 96.8517L177.289 96.8517L177.289 93.279C177.289 91.7067 176.92 90.7065 176.181 90.282C175.443 89.8613 174.428 89.6472 173.139 89.6472Z" fill="#FAC51B"/>
</svg>
