<svg width="561" height="101" viewBox="0 0 561 101" fill="none" xmlns="http://www.w3.org/2000/svg">
<path d="M69.6814 98.0825H61.2063V25.4759H60.6895L40.053 98.0825H31.3195L10.0285 25.4759H9.51168V98.0825H0.916016V12.2637H15.3168L35.9533 83.6646L36.2117 83.8024L55.7974 12.2637H69.6814V98.0825Z" fill="#F0CA19"/>
<path d="M123.634 98.0829H115.039V92.0022C114.233 96.9417 109.38 99.4093 100.483 99.4093C93.9587 99.4093 89.3766 98.0441 86.7367 95.3095C84.2648 92.7515 83.0332 87.3297 83.0332 79.0484C83.0332 71.9083 84.2218 66.9688 86.5989 64.2342C88.9761 61.5814 93.5582 60.2551 100.345 60.2551H114.763V50.0746C114.763 46.5519 113.923 44.1748 112.248 42.9431C110.569 41.7029 107.533 41.0828 103.136 41.0828C98.1962 41.0828 92.6839 41.6124 86.5989 42.6675V33.9513C93.2136 33.1589 99.1608 32.7627 104.445 32.7627C112.472 32.7627 117.674 34.0374 120.051 36.5868C122.437 39.2396 123.634 44.6614 123.634 52.848V98.0829ZM91.7495 79.4446C91.7495 84.0266 92.2748 87.2048 93.3342 88.9704C94.4022 90.7275 96.6976 91.606 100.225 91.606H102.068C103.743 91.606 105.573 91.5457 107.563 91.4165C109.548 91.2787 111.24 90.7533 112.644 89.8317C114.057 88.9015 114.763 87.334 114.763 85.1291V67.6621H100.879C98.235 67.6621 96.254 67.9291 94.9362 68.4545C93.6141 68.9842 92.7529 70.0651 92.3524 71.693C91.9475 73.3251 91.7495 75.909 91.7495 79.4446Z" fill="#F0CA19"/>
<path d="M152.184 80.0993C152.184 84.9484 152.912 88.0748 154.372 89.4874C155.827 90.8999 158.454 91.6061 162.244 91.6061C162.769 91.6061 163.626 91.52 164.81 91.3477C166.003 91.1669 167.523 90.8956 169.375 90.5381V98.3414C166.033 99.052 162.683 99.4094 159.333 99.4094C155.358 99.4094 152.184 98.8323 149.807 97.6868C147.43 96.5413 145.728 94.513 144.708 91.6061C143.696 88.6907 143.192 84.6383 143.192 79.4447V41.8753H132.478V34.072H143.192V14.2451H152.184V34.072H169.375V41.8753H152.184V80.0993Z" fill="#F0CA19"/>
<path d="M198.596 32.7627C203.006 32.7627 206.684 33.4 209.638 34.6748C212.601 35.9495 214.827 38.1544 216.322 41.2895C217.825 44.4159 218.578 48.843 218.578 54.5705V68.7301H186.314V78.3766C186.314 83.4065 187.675 86.7397 190.397 88.3675C193.127 89.9997 196.529 90.8136 200.594 90.8136C205.176 90.8136 210.551 89.7585 216.718 87.6441V96.7565C210.628 98.5221 204.858 99.4093 199.406 99.4093C184.669 99.4093 177.305 92.8893 177.305 79.8408V54.5705C177.305 48.843 178.141 44.4159 179.82 41.2895C181.495 38.1544 183.92 35.9495 187.089 34.6748C190.268 33.4 194.105 32.7627 198.596 32.7627ZM198.079 40.6866C194.552 40.6866 191.71 41.2852 189.553 42.478C187.391 43.6623 186.314 46.4572 186.314 50.867V60.9269H209.707V50.867C209.707 46.4572 208.673 43.6623 206.606 42.478C204.539 41.2852 201.697 40.6866 198.079 40.6866Z" fill="#F0CA19"/>
<path d="M288.659 32.7627C294.214 32.7627 298.314 34.1063 300.958 36.7935C303.598 39.4808 304.92 44.2652 304.92 51.1426V98.0829H296.066V51.935C296.066 46.6424 294.481 43.3824 291.311 42.1507C289.899 41.6254 288.043 41.3584 285.747 41.3584C280.636 41.3584 277.242 42.1077 275.567 43.5977C274.154 45.0102 273.448 47.7922 273.448 51.935V98.0829H264.456V51.935C264.456 47.6975 263.569 44.881 261.804 43.4771C260.046 42.0646 257.536 41.3584 254.276 41.3584C248.901 41.3584 245.374 42.0603 243.699 43.4599C241.929 44.9672 241.046 47.7922 241.046 51.935V98.0829H232.192V34.0719H241.046V41.8751C242.02 35.803 247.403 32.7627 257.187 32.7627C265.292 32.7627 270.317 35.6695 272.26 41.4789C272.785 39.1965 273.887 37.4395 275.567 36.2079C277.242 34.9676 279.27 34.0848 281.648 33.5551C284.025 33.0297 286.359 32.7627 288.659 32.7627Z" fill="#F0CA19"/>
<path d="M424.999 80.0993C424.999 84.9484 425.727 88.0748 427.187 89.4874C428.643 90.8999 431.269 91.6061 435.059 91.6061C435.585 91.6061 436.441 91.52 437.626 91.3477C438.819 91.1669 440.339 90.8956 442.191 90.5381V98.3414C438.849 99.052 435.498 99.4094 432.148 99.4094C428.173 99.4094 424.999 98.8323 422.622 97.6868C420.245 96.5413 418.544 94.513 417.523 91.6061C416.511 88.6907 416.007 84.6383 416.007 79.4447V41.8753H405.293V34.072H416.007V14.2451H424.999V34.072H442.191V41.8753H424.999V80.0993Z" fill="#F0CA19"/>
<path d="M460.835 23.3573H451.981V10.9375H460.835V23.3573ZM460.835 98.0828H451.981V34.0717H460.835V98.0828Z" fill="#F0CA19"/>
<path d="M511.086 97.5489C506.595 98.7891 501.483 99.4093 495.755 99.4093C493.813 99.4093 492.198 99.3834 490.915 99.3404C489.64 99.293 488.452 99.1767 487.349 98.9959C486.247 98.8236 484.903 98.4317 483.318 97.8245C481.204 97.1139 479.619 96.0589 478.564 94.655C477.505 93.2424 476.583 91.171 475.791 88.4364C474.985 85.7837 474.585 82.4763 474.585 78.5144V54.9667C474.585 51.6249 474.8 48.6578 475.24 46.061C475.687 43.4556 476.484 41.3153 477.634 39.6358C478.779 38.051 479.908 36.7763 481.01 35.8117C482.113 34.8384 483.633 34.1235 485.575 33.6757C487.685 33.2407 489.451 32.9823 490.863 32.9005C492.276 32.8101 494.214 32.7627 496.686 32.7627C501.268 32.7627 505.85 33.4259 510.432 34.7437V43.4599C505.135 41.7029 500.2 40.8244 495.618 40.8244C490.678 40.8244 487.461 41.6168 485.971 43.2015C484.464 44.881 483.715 48.2271 483.715 53.2442V79.4446C483.715 84.1989 484.55 87.2823 486.23 88.6948C487.995 90.2796 491.483 91.072 496.686 91.072C501.53 91.072 506.332 90.2365 511.086 88.557V97.5489Z" fill="#F0CA19"/>
<path d="M560.291 98.0829H551.695V92.0022C550.89 96.9417 546.036 99.4093 537.139 99.4093C530.615 99.4093 526.033 98.0441 523.393 95.3095C520.921 92.7515 519.689 87.3297 519.689 79.0484C519.689 71.9083 520.878 66.9688 523.255 64.2342C525.632 61.5814 530.214 60.2551 537.001 60.2551H551.419V50.0746C551.419 46.5519 550.58 44.1748 548.904 42.9431C547.225 41.7029 544.189 41.0828 539.792 41.0828C534.852 41.0828 529.34 41.6124 523.255 42.6675V33.9513C529.87 33.1589 535.817 32.7627 541.101 32.7627C549.128 32.7627 554.331 34.0374 556.708 36.5868C559.093 39.2396 560.291 44.6614 560.291 52.848V98.0829ZM528.406 79.4446C528.406 84.0266 528.931 87.2048 529.99 88.9704C531.058 90.7275 533.354 91.606 536.881 91.606H538.724C540.399 91.606 542.229 91.5457 544.219 91.4165C546.204 91.2787 547.897 90.7533 549.301 89.8317C550.713 88.9015 551.419 87.334 551.419 85.1291V67.6621H537.535C534.891 67.6621 532.91 67.9291 531.592 68.4545C530.27 68.9842 529.409 70.0651 529.009 71.693C528.604 73.3251 528.406 75.909 528.406 79.4446Z" fill="#F0CA19"/>
<path d="M360.134 25.9287C345.566 25.9287 333.788 37.737 333.788 52.2756C333.788 62.7488 339.894 71.7924 348.765 76.0385V85.0562H371.538V76.0385C380.379 71.7924 386.516 62.7488 386.516 52.2756C386.486 37.737 374.677 25.9287 360.134 25.9287Z" fill="#F0CA19"/>
<path d="M348.735 85.082V94.4184C348.735 97.4717 351.207 99.9436 354.261 99.9436H365.983C369.036 99.9436 371.508 97.4717 371.508 94.4184V85.082H348.735Z" fill="#D9D9D9"/>
<mask id="mask0_417_167" style="mask-type:luminance" maskUnits="userSpaceOnUse" x="308" y="0" width="104" height="101">
<path d="M308.6 0.942871H411.907V100.943H308.6V0.942871Z" fill="white"/>
</mask>
<g mask="url(#mask0_417_167)">
<path d="M360.135 25.0546C345.131 25.0546 332.914 37.272 332.914 52.2756C332.914 62.5163 338.762 71.9948 347.892 76.5898V94.6209C347.892 97.967 350.626 100.702 353.972 100.702H366.362C369.704 100.702 372.438 97.967 372.438 94.6209V76.62C381.542 72.025 387.416 62.5422 387.416 52.3058C387.36 37.272 375.143 25.0546 360.135 25.0546ZM354.437 58.3262C350.424 57.8611 348.473 56.638 348.473 53.6451C348.473 50.9966 349.898 49.7779 351.208 49.7779C351.991 49.7779 352.749 50.1827 353.331 50.8803C354.058 51.7847 354.437 53.1197 354.437 54.7475V58.3262ZM360.135 60.3028C361.504 60.3028 362.839 60.277 364.062 60.2167V84.2122H356.182V60.2167C357.43 60.277 358.77 60.3028 360.135 60.3028ZM370.634 85.9563V88.8072H349.61V85.9563H370.634ZM349.61 90.5513H370.634V93.4022H349.61V90.5513ZM366.332 98.9274H353.942C351.733 98.9274 349.929 97.2694 349.636 95.1463H370.608C370.345 97.2694 368.541 98.9274 366.332 98.9274ZM371.129 75.2548C370.841 75.3969 370.634 75.7199 370.634 76.0386V84.1821H365.806V60.0703C370.345 59.5793 373.515 58.0936 373.515 53.6149C373.515 49.9501 371.245 48.0036 369.036 48.0036C367.727 48.0036 366.448 48.641 365.548 49.7779C364.588 50.9966 364.062 52.7149 364.062 54.7217V58.4424C362.9 58.5027 361.56 58.5286 360.135 58.5286C358.709 58.5286 357.374 58.5027 356.212 58.4424V54.7217C356.212 52.7149 355.686 50.9966 354.726 49.7779C353.826 48.641 352.547 48.0036 351.238 48.0036C348.998 48.0036 346.759 49.92 346.759 53.6149C346.759 58.0936 349.929 59.5793 354.463 60.0703V84.2122H349.61V76.0687C349.61 75.7199 349.403 75.4271 349.115 75.2807C340.33 71.0646 334.632 62.0512 334.632 52.3058C334.632 38.2581 346.061 26.8288 360.109 26.8288C374.157 26.8288 385.586 38.2581 385.586 52.3058C385.612 62.0211 379.94 71.0345 371.129 75.2548ZM365.806 58.3262V54.7475C365.806 53.1197 366.185 51.7847 366.913 50.8803C367.495 50.1525 368.253 49.7779 369.036 49.7779C370.345 49.7779 371.771 50.9966 371.771 53.6451C371.771 56.638 369.85 57.8611 365.806 58.3262ZM361.009 1.90311V17.1135C361.009 17.6087 360.63 17.9877 360.135 17.9877C359.644 17.9877 359.265 17.6087 359.265 17.1135V1.90311C359.265 1.41217 359.644 1.0332 360.135 1.0332C360.63 1.0332 361.009 1.41217 361.009 1.90311ZM324.917 52.6244H309.474C308.979 52.6244 308.6 52.2498 308.6 51.7545C308.6 51.2593 308.979 50.8803 309.474 50.8803H324.917C325.412 50.8803 325.791 51.2593 325.791 51.7545C325.791 52.2498 325.412 52.6244 324.917 52.6244ZM411.674 51.7545C411.674 52.2498 411.295 52.6244 410.8 52.6244H395.357C394.862 52.6244 394.483 52.2498 394.483 51.7545C394.483 51.2593 394.862 50.8803 395.357 50.8803H410.8C411.265 50.8803 411.674 51.2593 411.674 51.7545ZM335.851 26.6264C336.2 26.9752 336.2 27.5265 335.851 27.8451C335.679 28.0217 335.446 28.1078 335.239 28.1078C335.007 28.1078 334.804 28.0217 334.632 27.8451L323.694 17.0876C323.345 16.7388 323.345 16.1833 323.694 15.8646C324.043 15.5158 324.598 15.5158 324.917 15.8646L335.851 26.6264ZM396.576 86.3913C396.929 86.7401 396.929 87.2956 396.576 87.6143C396.404 87.7866 396.171 87.877 395.969 87.877C395.736 87.877 395.53 87.7866 395.357 87.6143L384.423 76.8525C384.07 76.5037 384.07 75.9525 384.423 75.6295C384.772 75.2807 385.323 75.2807 385.642 75.6295L396.576 86.3913ZM335.851 75.6295C336.2 75.9783 336.174 76.5338 335.851 76.8525L324.917 87.6143C324.74 87.7866 324.538 87.877 324.305 87.877C324.073 87.877 323.84 87.7866 323.694 87.6143C323.345 87.2655 323.375 86.71 323.694 86.3913L334.632 75.6295C334.981 75.2807 335.532 75.2807 335.851 75.6295ZM384.393 27.8753C384.044 27.5265 384.07 26.9752 384.393 26.6566L395.327 15.8948C395.676 15.5459 396.227 15.5718 396.55 15.8948C396.899 16.2436 396.869 16.7948 396.55 17.1135L385.612 27.8753C385.44 28.0518 385.237 28.138 385.005 28.138C384.798 28.138 384.565 28.0518 384.393 27.8753ZM347.427 19.3528C347.603 19.7921 347.396 20.3132 346.961 20.4897C346.845 20.5457 346.729 20.5457 346.613 20.5457C346.264 20.5457 345.945 20.3433 345.799 20.0246L343.034 13.4788C342.862 13.0439 343.064 12.5185 343.499 12.3462C343.938 12.1697 344.459 12.3764 344.636 12.8113L347.427 19.3528ZM327.884 65.8323L321.222 68.5368C321.106 68.5927 320.989 68.5927 320.903 68.5927C320.554 68.5927 320.236 68.3903 320.089 68.0415C319.913 67.6023 320.119 67.0812 320.554 66.9046L327.212 64.2002C327.651 64.0279 328.172 64.2303 328.349 64.6653C328.521 65.1605 328.319 65.6557 327.884 65.8323ZM392.39 37.6768L399.052 34.9723C399.487 34.8001 400.008 35.0025 400.185 35.4374C400.357 35.8724 400.155 36.3977 399.72 36.5743L393.058 39.2788C392.941 39.3347 392.825 39.3347 392.739 39.3347C392.39 39.3347 392.071 39.1323 391.925 38.7835C391.723 38.3443 391.955 37.8533 392.39 37.6768ZM377.18 13.4788L374.415 20.0246C374.273 20.3433 373.95 20.5457 373.601 20.5457C373.485 20.5457 373.369 20.5199 373.252 20.4897C372.817 20.3132 372.615 19.7921 372.787 19.3528L375.552 12.8113C375.724 12.3764 376.25 12.1697 376.685 12.3462C377.18 12.5185 377.382 13.0137 377.18 13.4788ZM320.089 35.4374C320.261 35.0025 320.787 34.7699 321.222 34.9723L327.884 37.6768C328.319 37.8533 328.551 38.3744 328.349 38.8137C328.203 39.1625 327.884 39.3649 327.535 39.3649C327.419 39.3649 327.303 39.3347 327.212 39.3046L320.554 36.6001C320.119 36.3676 319.887 35.8724 320.089 35.4374ZM400.185 68.0717C400.038 68.4205 399.72 68.6229 399.371 68.6229C399.255 68.6229 399.138 68.5927 399.052 68.5626L392.39 65.8581C391.955 65.6859 391.723 65.1605 391.925 64.7256C392.097 64.2906 392.623 64.0581 393.058 64.2605L399.72 66.9649C400.155 67.1372 400.357 67.6324 400.185 68.0717Z" fill="#3F3F3F"/>
</g>
</svg>
