<svg width="430" height="150" viewBox="0 0 430 150" fill="none" xmlns="http://www.w3.org/2000/svg">
<path d="M126.957 53.1052C117.915 53.1052 110.604 59.2339 110.604 66.7895C110.604 72.2293 114.393 76.9255 119.901 79.1288V83.8141H134.039V79.1288C139.521 76.9255 143.329 72.2293 143.329 66.7895C143.316 59.2339 135.986 53.1052 126.957 53.1052Z" fill="#F0CA19"/>
<mask id="mask0_37_228" style="mask-type:luminance" maskUnits="userSpaceOnUse" x="118" y="83" width="17" height="9">
<path d="M118.98 83.2019H134.032V91.5612H118.98V83.2019Z" fill="white"/>
</mask>
<g mask="url(#mask0_37_228)">
<path d="M119.881 83.8306V88.6745C119.881 90.2654 121.417 91.5447 123.311 91.5447H130.589C132.484 91.5447 134.019 90.2654 134.019 88.6745V83.8306H119.881Z" fill="#52D5F2"/>
</g>
<mask id="mask1_37_228" style="mask-type:luminance" maskUnits="userSpaceOnUse" x="94" y="40" width="65" height="52">
<path d="M94.9696 40.1262H158.944V91.5611H94.9696V40.1262Z" fill="white"/>
</mask>
<g mask="url(#mask1_37_228)">
<path d="M126.957 52.6513C117.647 52.6513 110.062 58.9932 110.062 66.7893C110.062 72.1034 113.694 77.0293 119.358 79.4184V88.7836C119.358 90.5222 121.057 91.9382 123.135 91.9382H130.824C132.896 91.9382 134.594 90.5222 134.594 88.7836V79.4293C140.246 77.0457 143.891 72.1198 143.891 66.8057C143.858 58.9932 136.273 52.6513 126.957 52.6513ZM123.422 69.9329C120.933 69.6869 119.718 69.0527 119.718 67.5C119.718 66.1223 120.606 65.4881 121.416 65.4881C121.906 65.4881 122.377 65.7014 122.736 66.0622C123.187 66.5324 123.422 67.2267 123.422 68.0741V69.9329ZM126.957 70.9553C127.806 70.9553 128.636 70.9443 129.394 70.9115V83.3766H124.507V70.9115C125.278 70.9443 126.114 70.9553 126.957 70.9553ZM133.477 84.2787V85.7603H120.423V84.2787H133.477ZM120.423 86.6678H133.477V88.1494H120.423V86.6678ZM130.805 91.0197H123.115C121.743 91.0197 120.626 90.1559 120.443 89.057H133.457C133.294 90.1559 132.177 91.0197 130.805 91.0197ZM133.784 78.7241C133.601 78.7952 133.477 78.9646 133.477 79.1287V83.3602H130.478V70.835C133.294 70.5781 135.261 69.8072 135.261 67.4836C135.261 65.5811 133.856 64.5697 132.484 64.5697C131.674 64.5697 130.877 64.9032 130.315 65.4881C129.72 66.1223 129.394 67.0135 129.394 68.0577V69.9931C128.675 70.0204 127.845 70.0368 126.957 70.0368C126.075 70.0368 125.245 70.0204 124.52 69.9931V68.0577C124.52 67.0135 124.2 66.1223 123.605 65.4881C123.043 64.9032 122.246 64.5697 121.436 64.5697C120.044 64.5697 118.653 65.5647 118.653 67.4836C118.653 69.8072 120.626 70.5781 123.442 70.835V83.3766H120.423V79.1451C120.423 78.9646 120.299 78.8116 120.116 78.735C114.668 76.5482 111.127 71.8628 111.127 66.8057C111.127 59.5071 118.222 53.5698 126.944 53.5698C135.659 53.5698 142.754 59.5071 142.754 66.8057C142.774 71.8464 139.252 76.5318 133.784 78.7241ZM130.478 69.9329V68.0741C130.478 67.2267 130.713 66.5324 131.164 66.0622C131.524 65.685 131.994 65.4881 132.484 65.4881C133.294 65.4881 134.183 66.1223 134.183 67.5C134.183 69.0527 132.987 69.6869 130.478 69.9329ZM127.499 40.6236V48.5236C127.499 48.7806 127.264 48.9774 126.957 48.9774C126.65 48.9774 126.421 48.7806 126.421 48.5236V40.6236C126.421 40.3666 126.65 40.1753 126.957 40.1753C127.264 40.1753 127.499 40.3666 127.499 40.6236ZM105.096 66.9697H95.5119C95.2048 66.9697 94.9696 66.7729 94.9696 66.516C94.9696 66.259 95.2048 66.0622 95.5119 66.0622H105.096C105.403 66.0622 105.639 66.259 105.639 66.516C105.639 66.7729 105.403 66.9697 105.096 66.9697ZM158.944 66.516C158.944 66.7729 158.709 66.9697 158.408 66.9697H148.817C148.51 66.9697 148.275 66.7729 148.275 66.516C148.275 66.259 148.51 66.0622 148.817 66.0622H158.408C158.696 66.0622 158.944 66.259 158.944 66.516ZM111.884 53.4659C112.1 53.6463 112.1 53.9361 111.884 54.1001C111.78 54.193 111.636 54.2368 111.505 54.2368C111.362 54.2368 111.238 54.193 111.127 54.1001L104.338 48.5127C104.123 48.3323 104.123 48.0425 104.338 47.8785C104.561 47.6926 104.9 47.6926 105.096 47.8785L111.884 53.4659ZM149.575 84.5083C149.797 84.6887 149.797 84.9785 149.575 85.1425C149.471 85.23 149.327 85.2792 149.196 85.2792C149.052 85.2792 148.928 85.23 148.817 85.1425L142.036 79.5551C141.814 79.3692 141.814 79.0849 142.036 78.9209C142.251 78.735 142.591 78.735 142.794 78.9209L149.575 84.5083ZM111.884 78.9209C112.1 79.1013 112.087 79.3856 111.884 79.5551L105.096 85.1425C104.992 85.23 104.868 85.2792 104.717 85.2792C104.574 85.2792 104.43 85.23 104.338 85.1425C104.123 84.9621 104.142 84.6723 104.338 84.5083L111.127 78.9209C111.342 78.735 111.688 78.735 111.884 78.9209ZM142.016 54.1165C141.8 53.9361 141.814 53.6463 142.016 53.4823L148.804 47.8894C149.02 47.709 149.36 47.7254 149.562 47.8894C149.778 48.0753 149.758 48.3596 149.562 48.5236L142.774 54.1165C142.663 54.204 142.539 54.2532 142.395 54.2532C142.264 54.2532 142.121 54.204 142.016 54.1165ZM119.071 49.6881C119.182 49.9177 119.051 50.1856 118.784 50.2786C118.712 50.3059 118.64 50.3059 118.568 50.3059C118.346 50.3059 118.15 50.202 118.058 50.038L116.347 46.6375C116.236 46.4133 116.366 46.1399 116.634 46.047C116.902 45.9595 117.229 46.0634 117.34 46.293L119.071 49.6881ZM106.939 73.8255L102.81 75.2306C102.731 75.2634 102.659 75.2634 102.607 75.2634C102.391 75.2634 102.195 75.1595 102.104 74.9736C101.993 74.7495 102.124 74.4761 102.391 74.3886L106.527 72.9836C106.795 72.8906 107.122 72.9945 107.226 73.2241C107.337 73.4811 107.213 73.7381 106.939 73.8255ZM146.981 59.2064L151.11 57.8013C151.385 57.7084 151.705 57.8177 151.816 58.0419C151.927 58.2715 151.796 58.5394 151.529 58.6324L147.393 60.0374C147.321 60.0647 147.249 60.0647 147.197 60.0647C146.981 60.0647 146.779 59.9609 146.687 59.7805C146.563 59.5508 146.707 59.2939 146.981 59.2064ZM137.541 46.6375L135.822 50.038C135.731 50.202 135.535 50.3059 135.319 50.3059C135.248 50.3059 135.176 50.295 135.104 50.2786C134.829 50.1856 134.705 49.9177 134.81 49.6881L136.528 46.293C136.633 46.0634 136.959 45.9595 137.234 46.047C137.541 46.1399 137.665 46.3969 137.541 46.6375ZM102.104 58.0419C102.209 57.8177 102.535 57.6975 102.81 57.8013L106.939 59.2064C107.213 59.2939 107.357 59.5672 107.226 59.7969C107.141 59.9773 106.939 60.0811 106.723 60.0811C106.651 60.0811 106.579 60.0647 106.527 60.0538L102.391 58.6488C102.124 58.5285 101.973 58.2715 102.104 58.0419ZM151.816 74.99C151.725 75.1704 151.529 75.2798 151.313 75.2798C151.241 75.2798 151.169 75.2634 151.11 75.247L146.981 73.8419C146.707 73.7545 146.563 73.4811 146.687 73.2515C146.798 73.0273 147.125 72.9071 147.393 73.0109L151.529 74.416C151.796 74.5089 151.927 74.7659 151.816 74.99Z" fill="#3F3F3F"/>
</g>
<path d="M46.9908 39.7966C45.854 39.5068 44.1488 39.2007 41.8686 38.8781C39.582 38.5446 37.2692 38.2603 34.9172 38.0252C32.5783 37.7792 30.6967 37.6535 29.2724 37.6535C18.3095 37.6535 12.8345 41.1688 12.8345 48.1941V75.5298C12.8345 77.7331 13.3833 79.488 14.4809 80.8001C15.5916 82.1122 17.0028 83.0854 18.7145 83.7086C20.4197 84.321 22.1641 84.7802 23.9412 85.0864C24.7905 85.2066 25.6987 85.305 26.6591 85.3925C27.6129 85.48 28.5929 85.5237 29.586 85.5237C33.1401 85.5237 36.9425 84.9934 41.0062 83.9273V63.6552H31.6244L28.8543 57.5757H48.2713V88.7384C41.2284 90.5316 34.8257 91.4282 29.0633 91.4282C24.2156 91.4282 19.7468 90.7995 15.6569 89.5475C11.5605 88.2956 8.58788 85.9392 6.74548 82.484C5.68055 80.5322 5.15135 78.2743 5.15135 75.7047V48.2816C5.15135 44.6514 5.93535 41.7648 7.50335 39.6216C9.07135 37.4785 11.0967 35.8493 13.5924 34.7231C16.0816 33.5859 18.7145 32.7768 21.4847 32.2957C23.7648 31.8911 26.2932 31.6833 29.0633 31.6833C32.2647 31.6833 35.3615 31.8036 38.3407 32.0332C41.3329 32.2683 44.2206 32.6237 46.9908 33.1048V39.7966Z" fill="#F0CA19"/>
<path d="M75.3756 46.4229C78.9428 46.4229 81.9155 46.8548 84.2871 47.7131C86.6717 48.5769 88.4684 50.064 89.6705 52.1743C90.8857 54.2901 91.4998 57.2806 91.4998 61.1404V70.6969H65.4449V77.2138C65.4449 80.6143 66.5491 82.8668 68.7639 83.9712C70.9721 85.0646 73.7161 85.6113 76.9959 85.6113C80.6872 85.6113 85.0253 84.9006 90.0102 83.4682V89.6351C85.0972 90.827 80.4324 91.4283 76.0289 91.4283C64.1448 91.4283 58.206 87.0218 58.206 78.1979V61.1404C58.206 57.2806 58.8724 54.2901 60.2183 52.1743C61.5772 50.064 63.5372 48.5769 66.0983 47.7131C68.6593 46.8548 71.7496 46.4229 75.3756 46.4229ZM74.9575 51.7806C72.1155 51.7806 69.8157 52.1852 68.0583 52.9834C66.3139 53.7871 65.4449 55.6732 65.4449 58.6474V65.4266H84.3393V58.6474C84.3393 55.6732 83.5031 53.7871 81.8305 52.9834C80.158 52.1852 77.8648 51.7806 74.9575 51.7806Z" fill="#F0CA19"/>
<path d="M160.507 60.703C160.507 55.1648 161.852 51.4034 164.557 49.4188C167.256 47.4233 171.202 46.4229 176.396 46.4229C183.151 46.4229 187.11 48.1177 188.26 51.4964V47.2976H194.976V94.643C194.976 100.777 193.441 104.921 190.377 107.064C187.254 109.131 182.668 110.17 176.605 110.17C173.835 110.17 171.339 110.082 169.131 109.907C166.935 109.732 164.982 109.497 163.277 109.207V103.478C166.341 103.899 169.039 104.211 171.378 104.418C173.73 104.621 175.69 104.724 177.258 104.724C180.531 104.724 183.112 104.156 184.994 103.019C186.875 101.892 187.816 99.6345 187.816 96.2394V85.8956C187.744 87.4428 187.045 88.6182 185.725 89.4164C184.419 90.2201 182.877 90.7504 181.1 91.0128C179.323 91.2862 177.611 91.4283 175.978 91.4283C170.071 91.4283 165.975 90.4442 163.695 88.4761C161.565 86.5079 160.507 83.1128 160.507 78.2853V60.703ZM187.816 78.832V59.2816C187.816 56.5425 187.143 54.6017 185.804 53.4645C184.373 52.4586 181.557 51.9556 177.363 51.9556C173.299 51.9556 170.672 52.4586 169.47 53.4645C168.249 54.4869 167.641 56.4277 167.641 59.2816V78.832C167.641 81.8062 168.281 83.7415 169.575 84.6272C170.777 85.5894 173.403 86.0705 177.467 86.0705C181.087 86.0705 183.72 85.5621 185.359 84.5397C186.993 83.5338 187.816 81.6312 187.816 78.832Z" fill="#52D5F2"/>
<path d="M214.289 54.3611C214.289 52.8194 214.87 51.4472 216.04 50.2498C217.222 49.058 218.653 48.1231 220.326 47.4507C221.998 46.7673 223.514 46.4229 224.873 46.4229H228.375V53.2896H224.428C221.586 53.2896 219.261 53.6777 217.451 54.4486C215.635 55.2249 214.733 57.0947 214.733 60.0688V90.5317H207.572V47.2976H214.289V54.3611Z" fill="#52D5F2"/>
<path d="M266.168 90.5317H259.243V86.4204C258.596 89.7609 254.676 91.4283 247.483 91.4283C242.217 91.4283 238.526 90.5044 236.402 88.651C234.397 86.9343 233.397 83.2714 233.397 77.673C233.397 72.851 234.351 69.5106 236.272 67.6572C238.205 65.8804 241.903 64.9893 247.378 64.9893H259.008V58.1225C259.008 55.7334 258.335 54.1206 256.995 53.2896C255.636 52.4586 253.18 52.0431 249.626 52.0431C245.634 52.0431 241.185 52.4039 236.272 53.1146V47.2101C241.616 46.6853 246.424 46.4229 250.697 46.4229C257.159 46.4229 261.36 47.2867 263.293 49.0033C265.208 50.7856 266.168 54.4431 266.168 59.9814V90.5317ZM240.453 77.9354C240.453 81.0408 240.878 83.1948 241.733 84.3867C242.583 85.5676 244.432 86.158 247.274 86.158H248.763C250.122 86.158 251.599 86.1143 253.206 86.0268C254.807 85.9393 256.172 85.584 257.309 84.9552C258.439 84.332 259.008 83.2714 259.008 81.7843V69.9972H247.823C245.68 69.9972 244.066 70.183 242.988 70.5439C241.923 70.8938 241.237 71.6264 240.923 72.7307C240.61 73.8241 240.453 75.5627 240.453 77.9354Z" fill="#52D5F2"/>
<path d="M296.798 32.3834C294.165 32.3834 292.257 32.8809 291.074 33.8704C289.905 34.849 289.324 36.8227 289.324 39.7968V47.2977H302.233V52.568H289.324V90.5318H282.189V52.568H273.33V47.2977H282.189V40.3435C282.189 35.3465 283.45 31.8913 285.978 29.9778C288.5 28.0698 292.041 27.113 296.589 27.113C297.582 27.113 298.627 27.1677 299.725 27.2661C300.835 27.3536 301.959 27.4575 303.096 27.5723V32.8426C302.168 32.7278 301.195 32.6239 300.169 32.5364C299.137 32.438 298.013 32.3834 296.798 32.3834Z" fill="#52D5F2"/>
<path d="M316.346 40.0809H309.186V31.6833H316.346V40.0809ZM316.346 90.5316H309.186V47.2975H316.346V90.5316Z" fill="#52D5F2"/>
<path d="M359.456 90.5317H352.53V86.4204C351.884 89.7609 347.964 91.4283 340.77 91.4283C335.505 91.4283 331.813 90.5044 329.69 88.651C327.684 86.9343 326.685 83.2714 326.685 77.673C326.685 72.851 327.638 69.5106 329.559 67.6572C331.493 65.8804 335.191 64.9893 340.666 64.9893H352.295V58.1225C352.295 55.7334 351.622 54.1206 350.283 53.2896C348.924 52.4586 346.468 52.0431 342.913 52.0431C338.922 52.0431 334.472 52.4039 329.559 53.1146V47.2101C334.904 46.6853 339.712 46.4229 343.985 46.4229C350.446 46.4229 354.647 47.2867 356.581 49.0033C358.495 50.7856 359.456 54.4431 359.456 59.9814V90.5317ZM333.741 77.9354C333.741 81.0408 334.165 83.1948 335.021 84.3867C335.87 85.5676 337.719 86.158 340.561 86.158H342.051C343.41 86.158 344.886 86.1143 346.494 86.0268C348.094 85.9393 349.46 85.584 350.597 84.9552C351.727 84.332 352.295 83.2714 352.295 81.7843V69.9972H341.11C338.967 69.9972 337.354 70.183 336.276 70.5439C335.211 70.8938 334.525 71.6264 334.211 72.7307C333.897 73.8241 333.741 75.5627 333.741 77.9354Z" fill="#52D5F2"/>
</svg>
