<svg width="434" height="192" viewBox="0 0 434 192" fill="none" xmlns="http://www.w3.org/2000/svg">
<path d="M35.752 111.889V126.458C35.752 132.445 33.9884 136.659 30.4613 139.104C26.9192 141.629 22.0243 142.891 15.7717 142.891H7.87585V168.162H0V98.061H17.1746C20.0453 98.061 22.7959 98.2414 25.4312 98.6021C28.0615 98.9629 30.2409 99.9348 31.9643 101.508C33.0465 102.525 33.9483 103.903 34.6698 105.636C35.3912 107.36 35.752 109.444 35.752 111.889ZM28.0765 113.171C28.0765 110.661 27.5154 108.798 26.3931 107.58C25.2809 106.353 23.848 105.556 22.0844 105.195C20.3209 104.835 18.5022 104.654 16.6335 104.654H7.77565V136.298H16.7337C19.9802 136.298 22.6456 135.506 24.7298 133.913C26.9593 132.34 28.0765 129.68 28.0765 125.937V113.171Z" fill="#52D5F2"/>
<path d="M127.377 124.414C127.377 122.546 127.963 120.887 129.141 119.444C130.328 118.001 131.771 116.869 133.469 116.037C135.163 115.211 136.696 114.795 138.059 114.795H141.626V123.112H137.638C134.752 123.112 132.387 123.588 130.544 124.535C128.71 125.471 127.798 127.736 127.798 131.328V168.162H120.563V115.877H127.377V124.414Z" fill="#52D5F2"/>
<path d="M159.552 153.473C159.552 157.431 160.144 159.986 161.336 161.148C162.523 162.301 164.668 162.872 167.769 162.872C168.195 162.872 168.896 162.802 169.873 162.651C170.845 162.506 172.088 162.291 173.601 162.01V168.383C170.86 168.954 168.12 169.245 165.384 169.245C162.148 169.245 159.557 168.774 157.608 167.842C155.67 166.91 154.287 165.252 153.46 162.872C152.628 160.497 152.218 157.18 152.218 152.932V122.25H143.46V115.877H152.218V99.6846H159.552V115.877H173.601V122.25H159.552V153.473Z" fill="#52D5F2"/>
<path d="M195.199 169.244C190.52 169.244 187.083 168.167 184.878 166.018C182.684 163.854 181.592 159.926 181.592 154.234V115.877H188.826V153.693C188.826 158.092 190.119 160.717 192.714 161.569C193.796 162.08 195.309 162.33 197.263 162.33C201.281 162.33 204.087 161.824 205.68 160.807C207.268 159.805 208.065 157.977 208.065 155.316V115.877H215.3V168.162H208.065V161.789C207.344 166.759 203.055 169.244 195.199 169.244Z" fill="#52D5F2"/>
<path d="M226.535 132.09C226.535 125.386 227.898 120.827 230.623 118.422C233.359 116.007 237.362 114.795 242.628 114.795C249.466 114.795 253.459 116.854 254.612 120.967V115.877H261.425V173.132C261.425 180.547 259.872 185.547 256.776 188.143C253.61 190.668 248.96 191.93 242.828 191.93C240.022 191.93 237.502 191.815 235.273 191.589C233.038 191.374 231.064 191.093 229.341 190.748V183.834C232.427 184.325 235.158 184.701 237.537 184.956C239.912 185.207 241.896 185.337 243.489 185.337C246.801 185.337 249.406 184.645 251.305 183.273C253.214 181.91 254.171 179.174 254.171 175.076V162.551C254.101 164.425 253.399 165.848 252.067 166.82C250.744 167.782 249.181 168.423 247.377 168.743C245.573 169.074 243.84 169.244 242.187 169.244C236.215 169.244 232.071 168.057 229.762 165.677C227.607 163.303 226.535 159.199 226.535 153.373V132.09ZM254.171 154.014V130.366C254.171 127.055 253.489 124.71 252.127 123.332C250.684 122.12 247.838 121.508 243.589 121.508C239.486 121.508 236.821 122.12 235.593 123.332C234.376 124.565 233.77 126.909 233.77 130.366V154.014C233.77 157.611 234.416 159.946 235.714 161.028C236.926 162.19 239.591 162.771 243.71 162.771C247.367 162.771 250.027 162.16 251.686 160.928C253.339 159.7 254.171 157.396 254.171 154.014Z" fill="#52D5F2"/>
<path d="M287.768 169.244C283.088 169.244 279.651 168.167 277.447 166.018C275.252 163.854 274.16 159.926 274.16 154.234V115.877H281.395V153.693C281.395 158.092 282.687 160.717 285.283 161.569C286.365 162.08 287.878 162.33 289.832 162.33C293.85 162.33 296.655 161.824 298.249 160.807C299.837 159.805 300.633 157.977 300.633 155.316V115.877H307.868V168.162H300.633V161.789C299.912 166.759 295.623 169.244 287.768 169.244Z" fill="#52D5F2"/>
<path d="M336.478 114.795C340.086 114.795 343.092 115.326 345.497 116.378C347.911 117.42 349.73 119.219 350.948 121.769C352.175 124.324 352.791 127.941 352.791 132.631V144.174H326.438V152.07C326.438 156.173 327.551 158.894 329.785 160.226C332.014 161.564 334.785 162.23 338.102 162.23C341.839 162.23 346.238 161.364 351.288 159.625V167.08C346.318 168.523 341.599 169.245 337.14 169.245C325.116 169.245 319.104 163.914 319.104 153.252V132.631C319.104 127.941 319.785 124.324 321.148 121.769C322.51 119.219 324.484 117.42 327.08 116.378C329.67 115.326 332.801 114.795 336.478 114.795ZM336.058 121.288C333.172 121.288 330.847 121.779 329.084 122.751C327.32 123.713 326.438 125.997 326.438 129.605V137.801H345.557V129.605C345.557 125.997 344.705 123.713 343.012 122.751C341.328 121.779 339.009 121.288 336.058 121.288Z" fill="#52D5F2"/>
<path d="M374.081 144.715C370.474 144.715 367.498 143.713 365.163 141.709C362.824 139.695 361.656 136.449 361.656 131.969V127.12C361.656 118.903 367.488 114.795 379.151 114.795C379.803 114.795 381.12 114.87 383.099 115.015C385.073 115.166 387.719 115.376 391.035 115.657V122.691C388.721 122.185 386.536 121.804 384.482 121.549C382.438 121.298 380.554 121.168 378.831 121.168C374.943 121.168 372.278 121.679 370.835 122.691C369.472 123.693 368.791 125.386 368.791 127.761V132.19C368.791 135.717 371.2 137.481 376.025 137.481H380.554C388.836 137.481 392.979 141.589 392.979 149.805V154.334C392.979 159.961 391.501 163.849 388.55 165.998C385.665 168.162 381.446 169.245 375.905 169.245C371.656 169.245 367.157 168.809 362.418 167.942V160.487C365.649 161.208 368.4 161.739 370.674 162.07C372.944 162.391 374.728 162.551 376.025 162.551C379.337 162.551 381.782 162.12 383.36 161.248C384.948 160.527 385.745 158.839 385.745 156.178V150.888C385.745 148.297 385.073 146.619 383.741 145.857C382.403 145.096 380.659 144.715 378.51 144.715H374.081Z" fill="#52D5F2"/>
<path d="M433.924 168.162H426.889V163.192C426.248 167.23 422.285 169.245 415.006 169.245C409.675 169.245 405.932 168.132 403.783 165.898C401.764 163.814 400.757 159.385 400.757 152.611C400.757 146.774 401.724 142.741 403.663 140.507C405.612 138.342 409.359 137.26 414.905 137.26H426.669V128.943C426.669 126.073 425.988 124.129 424.625 123.112C423.262 122.11 420.777 121.609 417.17 121.609C413.132 121.609 408.633 122.045 403.663 122.911V115.777C409.074 115.126 413.933 114.795 418.252 114.795C424.795 114.795 429.044 115.847 430.998 117.941C432.947 120.096 433.924 124.525 433.924 131.228V168.162ZM407.891 152.932C407.891 156.674 408.317 159.264 409.174 160.707C410.041 162.15 411.919 162.872 414.805 162.872H416.308C417.671 162.872 419.159 162.822 420.777 162.711C422.405 162.606 423.793 162.18 424.946 161.429C426.093 160.667 426.669 159.385 426.669 157.581V143.312H415.326C413.172 143.312 411.559 143.533 410.476 143.974C409.394 144.405 408.693 145.286 408.372 146.619C408.052 147.942 407.891 150.046 407.891 152.932Z" fill="#52D5F2"/>
<path d="M76.286 117.041C64.5975 117.041 55.1484 126.515 55.1484 138.178C55.1484 146.58 60.0483 153.835 67.1676 157.241V164.471H85.4344V157.241C92.5287 153.835 97.4486 146.58 97.4486 138.178C97.4235 126.515 87.9545 117.041 76.286 117.041Z" fill="#F0CA19"/>
<mask id="mask0_419_226" style="mask-type:luminance" maskUnits="userSpaceOnUse" x="34" y="97" width="84" height="81">
<path d="M34.9473 97H117.629V177.287H34.9473V97Z" fill="white"/>
</mask>
<g mask="url(#mask0_419_226)">
<path d="M76.2855 116.339C64.2512 116.339 54.4515 126.138 54.4515 138.178C54.4515 146.389 59.141 153.994 66.4657 157.682V172.146C66.4657 174.831 68.6601 177.026 71.3405 177.026H81.2805C83.9659 177.026 86.1553 174.831 86.1553 172.146V157.707C93.46 154.019 98.1745 146.414 98.1745 138.203C98.1244 126.138 88.3247 116.339 76.2855 116.339ZM71.7163 143.032C68.4948 142.657 66.9316 141.68 66.9316 139.275C66.9316 137.15 68.0739 136.174 69.1261 136.174C69.7573 136.174 70.3635 136.499 70.8295 137.06C71.4106 137.782 71.7163 138.854 71.7163 140.162V143.032ZM76.2855 144.616C77.3827 144.616 78.4598 144.595 79.4368 144.545V163.794H73.1141V144.545C74.1161 144.595 75.1933 144.616 76.2855 144.616ZM84.7124 165.197V167.482H67.8435V165.197H84.7124ZM67.8435 168.879H84.7124V171.169H67.8435V168.879ZM81.2555 175.603H71.3205C69.5469 175.603 68.099 174.27 67.8635 172.567H84.6874C84.4769 174.27 83.029 175.603 81.2555 175.603ZM85.1082 156.61C84.8727 156.725 84.7124 156.985 84.7124 157.241V163.774H80.8396V144.43C84.4769 144.034 87.0221 142.847 87.0221 139.25C87.0221 136.314 85.1984 134.751 83.4248 134.751C82.3777 134.751 81.3507 135.262 80.6292 136.174C79.8576 137.15 79.4368 138.528 79.4368 140.137V143.123C78.5049 143.173 77.4328 143.193 76.2855 143.193C75.1432 143.193 74.071 143.173 73.1391 143.123V140.137C73.1391 138.528 72.7183 137.15 71.9467 136.174C71.2253 135.262 70.1982 134.751 69.1511 134.751C67.3525 134.751 65.5539 136.289 65.5539 139.25C65.5539 142.847 68.099 144.034 71.7363 144.43V163.794H67.8435V157.261C67.8435 156.985 67.6781 156.75 67.4477 156.635C60.3985 153.248 55.8243 146.018 55.8243 138.203C55.8243 126.935 64.9977 117.766 76.2654 117.766C87.5331 117.766 96.7015 126.935 96.7015 138.203C96.7266 145.993 92.1774 153.228 85.1082 156.61ZM80.8396 143.032V140.162C80.8396 138.854 81.1402 137.782 81.7214 137.06C82.1923 136.474 82.7986 136.174 83.4248 136.174C84.4769 136.174 85.6192 137.15 85.6192 139.275C85.6192 141.68 84.0811 142.657 80.8396 143.032ZM76.9869 97.7712V109.971C76.9869 110.367 76.6863 110.672 76.2855 110.672C75.8897 110.672 75.5891 110.367 75.5891 109.971V97.7712C75.5891 97.3754 75.8897 97.0698 76.2855 97.0698C76.6863 97.0698 76.9869 97.3754 76.9869 97.7712ZM48.0336 138.458H35.6437C35.2479 138.458 34.9473 138.158 34.9473 137.757C34.9473 137.361 35.2479 137.06 35.6437 137.06H48.0336C48.4294 137.06 48.735 137.361 48.735 137.757C48.735 138.158 48.4294 138.458 48.0336 138.458ZM117.629 137.757C117.629 138.158 117.328 138.458 116.932 138.458H104.542C104.147 138.458 103.841 138.158 103.841 137.757C103.841 137.361 104.147 137.06 104.542 137.06H116.932C117.303 137.06 117.629 137.361 117.629 137.757ZM56.8063 117.601C57.0868 117.882 57.0868 118.323 56.8063 118.583C56.666 118.718 56.4806 118.789 56.3153 118.789C56.1299 118.789 55.9646 118.718 55.8243 118.583L47.0566 109.951C46.7761 109.67 46.7761 109.224 47.0566 108.969C47.3322 108.688 47.7781 108.688 48.0336 108.969L56.8063 117.601ZM105.519 165.548C105.8 165.823 105.8 166.269 105.519 166.525C105.379 166.665 105.194 166.735 105.033 166.735C104.843 166.735 104.683 166.665 104.542 166.525L95.7697 157.892C95.4891 157.612 95.4891 157.171 95.7697 156.915C96.0502 156.635 96.4911 156.635 96.7466 156.915L105.519 165.548ZM56.8063 156.915C57.0868 157.191 57.0618 157.637 56.8063 157.892L48.0336 166.525C47.8933 166.665 47.733 166.735 47.5426 166.735C47.3572 166.735 47.1719 166.665 47.0566 166.525C46.7761 166.244 46.7961 165.803 47.0566 165.548L55.8243 156.915C56.1048 156.635 56.5507 156.635 56.8063 156.915ZM95.7446 118.603C95.4641 118.323 95.4891 117.882 95.7446 117.626L104.517 108.994C104.798 108.713 105.244 108.733 105.499 108.994C105.78 109.269 105.755 109.715 105.499 109.971L96.7266 118.603C96.5863 118.743 96.421 118.814 96.2356 118.814C96.0703 118.814 95.8849 118.743 95.7446 118.603ZM66.0899 111.769C66.2302 112.12 66.0699 112.536 65.7192 112.676C65.624 112.726 65.5338 112.726 65.4386 112.726C65.1581 112.726 64.9026 112.561 64.7873 112.305L62.5679 107.055C62.4276 106.704 62.5929 106.283 62.9436 106.143C63.2943 106.008 63.7102 106.168 63.8504 106.519L66.0899 111.769ZM50.4134 149.049L45.0726 151.219C44.9775 151.269 44.8823 151.269 44.8171 151.269C44.5366 151.269 44.276 151.104 44.1608 150.823C44.0205 150.472 44.1859 150.051 44.5366 149.916L49.8773 147.742C50.228 147.607 50.6489 147.767 50.7891 148.118C50.9294 148.513 50.7641 148.909 50.4134 149.049ZM102.163 126.469L107.503 124.295C107.854 124.154 108.275 124.32 108.415 124.67C108.555 125.021 108.39 125.442 108.039 125.582L102.699 127.752C102.603 127.797 102.513 127.797 102.443 127.797C102.163 127.797 101.907 127.631 101.787 127.351C101.626 127.005 101.812 126.604 102.163 126.469ZM89.958 107.055L87.7435 112.305C87.6283 112.561 87.3678 112.726 87.0922 112.726C86.997 112.726 86.9018 112.701 86.8116 112.676C86.4609 112.536 86.2956 112.12 86.4359 111.769L88.6554 106.519C88.7906 106.168 89.2115 106.008 89.5622 106.143C89.958 106.283 90.1233 106.684 89.958 107.055ZM44.1608 124.67C44.3011 124.32 44.7219 124.134 45.0726 124.295L50.4134 126.469C50.7641 126.604 50.9495 127.025 50.7891 127.376C50.6689 127.656 50.4134 127.822 50.1328 127.822C50.0426 127.822 49.9475 127.797 49.8773 127.772L44.5366 125.602C44.1859 125.417 44.0005 125.021 44.1608 124.67ZM108.415 150.848C108.3 151.129 108.039 151.289 107.759 151.289C107.669 151.289 107.573 151.269 107.503 151.244L102.163 149.074C101.812 148.934 101.626 148.513 101.787 148.163C101.927 147.812 102.348 147.627 102.699 147.792L108.039 149.961C108.39 150.102 108.555 150.497 108.415 150.848Z" fill="#3F3F3F"/>
</g>
<path d="M144.688 73.4477H111V3.3667H118.876V66.113H144.688V73.4477Z" fill="#52D5F2"/>
<path d="M160.011 73.4478H152.676V21.1826H160.011V73.4478ZM168.868 0L158.728 13.7276H152.676L160.011 0H168.868Z" fill="#52D5F2"/>
<path d="M192.735 20.1006C197.424 20.1006 200.861 21.1627 203.055 23.287C205.245 25.4113 206.342 29.3542 206.342 35.1108V73.4479H199.108V35.6519C199.108 31.3382 197.81 28.6728 195.22 27.6558C194.067 27.2299 192.559 27.0145 190.691 27.0145C186.507 27.0145 183.626 27.6257 182.053 28.8382C180.61 30.0707 179.889 32.3402 179.889 35.6519V73.4479H172.654V21.1828H179.889V27.5556C180.675 22.5856 184.959 20.1006 192.735 20.1006Z" fill="#52D5F2"/>
<path d="M217.588 37.3754C217.588 30.6819 218.951 26.1327 221.676 23.7279C224.412 21.313 228.41 20.1006 233.66 20.1006C240.499 20.1006 244.502 22.1547 245.664 26.253V21.1828H252.458V78.418C252.458 85.8329 250.905 90.8329 247.809 93.4282C244.642 95.9532 239.998 97.2158 233.881 97.2158C231.075 97.2158 228.555 97.1005 226.325 96.8751C224.091 96.6597 222.117 96.3741 220.394 96.0134V89.0994C223.48 89.6055 226.21 89.9862 228.59 90.2417C230.965 90.4922 232.949 90.6225 234.542 90.6225C237.839 90.6225 240.444 89.9311 242.358 88.5584C244.267 87.1956 245.224 84.4601 245.224 80.3619V67.8367C245.153 69.7104 244.452 71.1333 243.119 72.1052C241.782 73.0672 240.213 73.7085 238.41 74.0291C236.616 74.3598 234.893 74.5301 233.239 74.5301C227.267 74.5301 223.124 73.3427 220.814 70.9629C218.66 68.5882 217.588 64.4849 217.588 58.6582V37.3754ZM245.224 59.2995V35.6519C245.224 32.3402 244.542 30.0005 243.179 28.6378C241.736 27.4103 238.891 26.7941 234.642 26.7941C230.539 26.7941 227.874 27.4103 226.646 28.6378C225.429 29.8552 224.822 32.1949 224.822 35.6519V59.2995C224.822 62.8967 225.469 65.2314 226.766 66.3136C227.979 67.4759 230.639 68.0571 234.742 68.0571C238.415 68.0571 241.08 67.4459 242.739 66.2134C244.392 64.9859 245.224 62.6813 245.224 59.2995Z" fill="#52D5F2"/>
<path d="M278.811 74.53C274.132 74.53 270.695 73.4528 268.491 71.3035C266.296 69.1391 265.204 65.2112 265.204 59.5198V21.1826H272.439V58.9787C272.439 63.3775 273.731 66.0028 276.326 66.8545C277.409 67.3656 278.917 67.6161 280.856 67.6161C284.889 67.6161 287.699 67.1151 289.293 66.113C290.866 65.101 291.657 63.2623 291.657 60.6019V21.1826H298.892V73.4478H291.657V67.075C290.936 72.045 286.652 74.53 278.811 74.53Z" fill="#52D5F2"/>
<path d="M342.523 73.4479H335.509V68.4779C334.852 72.5161 330.889 74.5301 323.625 74.5301C318.294 74.5301 314.551 73.4179 312.402 71.1834C310.383 69.0992 309.376 64.6703 309.376 57.8967C309.376 52.0599 310.343 48.0268 312.282 45.7923C314.231 43.643 317.978 42.5658 323.524 42.5658H335.288V34.2491C335.288 31.3633 334.607 29.4193 333.244 28.4173C331.866 27.4053 329.381 26.8943 325.789 26.8943C321.751 26.8943 317.252 27.3301 312.282 28.1969V21.0625C317.678 20.4212 322.542 20.1006 326.871 20.1006C333.414 20.1006 337.663 21.1427 339.617 23.2269C341.551 25.3912 342.523 29.8201 342.523 36.5136V73.4479ZM316.49 58.2173C316.49 61.9598 316.921 64.55 317.793 65.9929C318.66 67.4358 320.528 68.1573 323.404 68.1573H324.927C326.29 68.1573 327.778 68.1072 329.396 67.997C331.025 67.8918 332.412 67.4659 333.565 66.7144C334.712 65.9529 335.288 64.6703 335.288 62.8667V48.618H323.945C321.791 48.618 320.178 48.8334 319.096 49.2593C318.013 49.6901 317.302 50.5719 316.971 51.9046C316.651 53.2423 316.49 55.3465 316.49 58.2173Z" fill="#52D5F2"/>
</svg>
