<svg width="430" height="150" viewBox="0 0 430 150" fill="none" xmlns="http://www.w3.org/2000/svg">
<g clip-path="url(#clip0_20_481)">
<path d="M79.0779 100.433H73.4711V49.3027H73.1265L59.4385 100.433H53.6437L39.5171 49.3027H39.1726V100.433H33.4405V39.9941H43.0253L56.7134 90.2933L56.87 90.3598L69.869 39.9941H79.0779V100.433Z" fill="#52D5F2"/>
<path d="M114.868 100.433H109.167V96.1444C108.642 99.6268 105.424 101.364 99.5194 101.364C95.1968 101.364 92.1585 100.4 90.4044 98.4716C88.7522 96.6764 87.9299 92.8698 87.9299 87.0354C87.9299 82.0071 88.7208 78.5248 90.3105 76.5966C91.8923 74.7349 94.9306 73.804 99.4254 73.804H109.01V66.6232C109.01 64.1464 108.446 62.4676 107.319 61.6032C106.207 60.7389 104.194 60.3067 101.273 60.3067C97.9924 60.3067 94.3355 60.6724 90.3105 61.4037V55.2867C94.6957 54.7133 98.6423 54.4224 102.151 54.4224C107.475 54.4224 110.929 55.3366 112.518 57.1484C114.085 59.0101 114.868 62.825 114.868 68.5846V100.433ZM93.7247 87.3014C93.7247 90.5427 94.077 92.7784 94.7896 94.0168C95.4944 95.2635 97.0214 95.8785 99.3628 95.8785H100.584C101.688 95.8785 102.902 95.8369 104.218 95.7455C105.533 95.6375 106.661 95.2635 107.601 94.6152C108.54 93.9752 109.01 92.8781 109.01 91.324V79.0234H99.8013C98.0472 79.0234 96.7317 79.2146 95.8546 79.5886C94.9776 79.946 94.3981 80.7023 94.1319 81.8492C93.8578 83.0045 93.7247 84.8246 93.7247 87.3014Z" fill="#52D5F2"/>
<path d="M133.84 87.7667C133.84 91.1826 134.318 93.3851 135.281 94.3824C136.236 95.3797 137.982 95.8784 140.512 95.8784C140.841 95.8784 141.404 95.8286 142.203 95.7122C142.994 95.5792 144.004 95.3797 145.242 95.1138V100.632C143.002 101.114 140.778 101.364 138.57 101.364C135.939 101.364 133.824 100.965 132.243 100.167C130.676 99.3525 129.549 97.923 128.86 95.8784C128.186 93.8172 127.857 90.9582 127.857 87.3013V60.8718H120.747V55.3531H127.857V41.3904H133.84V55.3531H145.242V60.8718H133.84V87.7667Z" fill="#52D5F2"/>
<path d="M164.63 54.4224C167.551 54.4224 169.994 54.8795 171.959 55.7854C173.917 56.6996 175.389 58.2455 176.376 60.4397C177.378 62.6338 177.879 65.7505 177.879 69.7814V79.7548H156.486V86.57C156.486 90.0939 157.378 92.4377 159.179 93.5846C160.996 94.7398 163.251 95.3133 165.945 95.3133C168.991 95.3133 172.562 94.5736 176.658 93.0859V99.5022C172.601 100.741 168.772 101.364 165.162 101.364C155.389 101.364 150.503 96.7678 150.503 87.5673V69.7814C150.503 65.7505 151.051 62.6338 152.163 60.4397C153.267 58.2455 154.873 56.6996 156.987 55.7854C159.093 54.8795 161.638 54.4224 164.63 54.4224ZM164.285 60.0075C161.944 60.0075 160.057 60.4313 158.616 61.2708C157.19 62.1185 156.486 64.0883 156.486 67.1883V74.2694H171.991V67.1883C171.991 64.0883 171.301 62.1185 169.923 61.2708C168.561 60.4313 166.681 60.0075 164.285 60.0075Z" fill="#52D5F2"/>
<path d="M224.372 54.4224C228.068 54.4224 230.793 55.3781 232.547 57.2814C234.301 59.168 235.178 62.5341 235.178 67.3878V100.433H229.289V67.9197C229.289 64.1963 228.232 61.9024 226.126 61.0381C225.186 60.6641 223.965 60.4729 222.461 60.4729C219.055 60.4729 216.799 61.0048 215.695 62.0686C214.756 63.066 214.286 65.0191 214.286 67.9197V100.433H208.334V67.9197C208.334 64.9526 207.747 62.9662 206.58 61.9689C205.406 60.9716 203.738 60.4729 201.569 60.4729C197.998 60.4729 195.657 60.9716 194.552 61.9689C193.378 63.0327 192.798 65.0191 192.798 67.9197V100.433H186.91V55.3532H192.798V60.8718C193.44 56.575 197.011 54.4224 203.511 54.4224C208.875 54.4224 212.203 56.4752 213.503 60.5726C213.855 58.9603 214.583 57.7136 215.695 56.8492C216.799 55.9849 218.139 55.3698 219.705 54.9875C221.286 54.6135 222.845 54.4224 224.372 54.4224Z" fill="#52D5F2"/>
<path d="M270.612 100.433H264.911V96.1444C264.386 99.6267 261.168 101.364 255.264 101.364C250.941 101.364 247.903 100.4 246.149 98.4715C244.496 96.6763 243.674 92.8698 243.674 87.0353C243.674 82.0071 244.465 78.5247 246.055 76.5965C247.636 74.7348 250.675 73.8039 255.17 73.8039H264.754V66.6231C264.754 64.1464 264.191 62.4675 263.063 61.6031C261.951 60.7388 259.938 60.3066 257.018 60.3066C253.737 60.3066 250.08 60.6723 246.055 61.4037V55.2866C250.44 54.7132 254.386 54.4223 257.895 54.4223C263.22 54.4223 266.673 55.3365 268.263 57.1483C269.829 59.0101 270.612 62.8249 270.612 68.5845V100.433ZM249.469 87.3013C249.469 90.5426 249.821 92.7783 250.534 94.0167C251.239 95.2634 252.766 95.8784 255.107 95.8784H256.329C257.433 95.8784 258.646 95.8368 259.962 95.7454C261.278 95.6374 262.405 95.2634 263.345 94.6151C264.285 93.9751 264.754 92.8781 264.754 91.3239V79.0233H255.545C253.791 79.0233 252.476 79.2145 251.599 79.5885C250.722 79.9459 250.142 80.7022 249.876 81.8491C249.602 83.0044 249.469 84.8245 249.469 87.3013ZM265.976 37.1018L257.738 48.9369H252.914L258.772 37.1018H265.976Z" fill="#52D5F2"/>
<path d="M289.584 87.7667C289.584 91.1826 290.062 93.3851 291.025 94.3824C291.98 95.3797 293.727 95.8784 296.256 95.8784C296.585 95.8784 297.149 95.8286 297.947 95.7122C298.738 95.5792 299.748 95.3797 300.986 95.1138V100.632C298.746 101.114 296.522 101.364 294.314 101.364C291.683 101.364 289.568 100.965 287.987 100.167C286.42 99.3525 285.293 97.923 284.604 95.8784C283.93 93.8172 283.601 90.9582 283.601 87.3013V60.8718H276.491V55.3531H283.601V41.3904H289.584V55.3531H300.986V60.8718H289.584V87.7667Z" fill="#52D5F2"/>
<path d="M313.357 47.8068H307.469V39.0635H313.357V47.8068ZM313.357 100.433H307.469V55.3534H313.357V100.433Z" fill="#52D5F2"/>
<path d="M346.692 100.067C343.701 100.932 340.31 101.364 336.512 101.364C335.236 101.364 334.171 101.339 333.317 101.297C332.456 101.272 331.665 101.198 330.937 101.065C330.201 100.948 329.316 100.674 328.274 100.234C326.873 99.7515 325.815 99.0035 325.111 98.0061C324.398 97.0088 323.78 95.5627 323.263 93.6511C322.738 91.7728 322.48 89.429 322.48 86.6365V70.0806C322.48 67.7119 322.621 65.6175 322.918 63.7974C323.208 61.9606 323.733 60.4563 324.484 59.2761C325.252 58.1707 326.003 57.2731 326.74 56.5833C327.468 55.9018 328.478 55.4031 329.778 55.0873C331.172 54.7797 332.331 54.5886 333.255 54.5221C334.194 54.4556 335.486 54.4224 337.139 54.4224C340.161 54.4224 343.2 54.8878 346.254 55.8186V61.9689C342.745 60.7305 339.464 60.1072 336.418 60.1072C333.161 60.1072 331.031 60.6724 330.028 61.8027C329.026 62.9829 328.525 65.3266 328.525 68.8506V87.3014C328.525 90.6508 329.089 92.82 330.216 93.8173C331.383 94.9476 333.693 95.5128 337.139 95.5128C340.349 95.5128 343.536 94.9144 346.692 93.7176V100.067Z" fill="#52D5F2"/>
<path d="M379.325 100.433H373.625V96.1444C373.1 99.6268 369.882 101.364 363.977 101.364C359.655 101.364 356.616 100.4 354.862 98.4716C353.21 96.6764 352.388 92.8698 352.388 87.0354C352.388 82.0071 353.179 78.5248 354.768 76.5966C356.35 74.7349 359.388 73.804 363.883 73.804H373.468V66.6232C373.468 64.1464 372.904 62.4676 371.777 61.6032C370.665 60.7389 368.652 60.3067 365.731 60.3067C362.45 60.3067 358.793 60.6724 354.768 61.4037V55.2867C359.153 54.7133 363.1 54.4224 366.608 54.4224C371.933 54.4224 375.387 55.3366 376.976 57.1484C378.542 59.0101 379.325 62.825 379.325 68.5846V100.433ZM358.182 87.3014C358.182 90.5427 358.535 92.7784 359.247 94.0168C359.952 95.2635 361.479 95.8785 363.821 95.8785H365.042C366.146 95.8785 367.36 95.8369 368.676 95.7455C369.991 95.6375 371.119 95.2635 372.059 94.6152C372.998 93.9752 373.468 92.8781 373.468 91.324V79.0234H364.259C362.505 79.0234 361.189 79.2146 360.312 79.5886C359.435 79.946 358.856 80.7023 358.59 81.8492C358.316 83.0045 358.182 84.8246 358.182 87.3014Z" fill="#52D5F2"/>
<path d="M309.337 12.4668C302.555 12.4668 297.074 18.3012 297.074 25.4821C297.074 30.6516 299.916 35.123 304.043 37.2175V41.6722H314.638V37.2175C318.757 35.123 321.607 30.6516 321.607 25.4821C321.6 18.3012 316.102 12.4668 309.337 12.4668Z" fill="#FAC51B"/>
<path d="M304.027 41.6887V46.3014C304.027 47.8057 305.178 49.0275 306.596 49.0275H312.054C313.479 49.0275 314.622 47.8057 314.622 46.3014V41.6887H304.027Z" fill="#52D5F2"/>
<mask id="mask0_20_481" style="mask-type:luminance" maskUnits="userSpaceOnUse" x="285" y="0" width="49" height="50">
<path d="M285.351 0.124756H333.463V49.4682H285.351V0.124756Z" fill="white"/>
</mask>
<g mask="url(#mask0_20_481)">
<path d="M309.337 12.0346C302.352 12.0346 296.666 18.0685 296.666 25.4821C296.666 30.5436 299.384 35.2228 303.636 37.4917V46.4013C303.636 48.0552 304.904 49.4016 306.463 49.4016H312.234C313.784 49.4016 315.061 48.0552 315.061 46.4013V37.5083C319.297 35.2394 322.03 30.5519 322.03 25.4987C322.007 18.0685 316.322 12.0346 309.337 12.0346ZM306.682 28.4741C304.81 28.2414 303.902 27.6347 303.902 26.1553C303.902 24.8504 304.568 24.2437 305.178 24.2437C305.546 24.2437 305.899 24.4515 306.165 24.7923C306.502 25.2411 306.682 25.8976 306.682 26.7038V28.4741ZM309.337 29.4465C309.971 29.4465 310.589 29.4299 311.161 29.405V41.2567H307.496V29.405C308.076 29.4299 308.694 29.4465 309.337 29.4465ZM314.223 42.121V43.5256H304.435V42.121H314.223ZM304.435 44.39H314.223V45.7946H304.435V44.39ZM312.218 48.529H306.447C305.421 48.529 304.583 47.7062 304.45 46.6589H314.207C314.082 47.7062 313.244 48.529 312.218 48.529ZM314.45 36.8351C314.317 36.9016 314.223 37.0595 314.223 37.2175V41.2401H311.975V29.3302C314.082 29.0891 315.562 28.3577 315.562 26.147C315.562 24.3351 314.505 23.371 313.479 23.371C312.868 23.371 312.273 23.6869 311.85 24.2437C311.404 24.8504 311.161 25.6982 311.161 26.6872V28.5323C310.621 28.5572 309.994 28.5738 309.337 28.5738C308.671 28.5738 308.044 28.5572 307.504 28.5323V26.6872C307.504 25.6982 307.261 24.8504 306.815 24.2437C306.392 23.6869 305.797 23.371 305.194 23.371C304.153 23.371 303.103 24.3185 303.103 26.147C303.103 28.3577 304.583 29.0891 306.698 29.3302V41.2567H304.435V37.2341C304.435 37.0595 304.341 36.9183 304.2 36.8435C300.112 34.7657 297.465 30.3109 297.465 25.4987C297.465 18.5589 302.782 12.9156 309.321 12.9156C315.86 12.9156 321.177 18.5589 321.177 25.4987C321.192 30.2943 318.553 34.749 314.45 36.8351ZM311.975 28.4741V26.7038C311.975 25.8976 312.148 25.2411 312.484 24.7923C312.759 24.4349 313.111 24.2437 313.479 24.2437C314.082 24.2437 314.748 24.8504 314.748 26.1553C314.748 27.6347 313.855 28.2414 311.975 28.4741ZM309.736 0.598441V8.11174C309.736 8.36107 309.564 8.54392 309.337 8.54392C309.102 8.54392 308.929 8.36107 308.929 8.11174V0.598441C308.929 0.357417 309.102 0.16626 309.337 0.16626C309.564 0.16626 309.736 0.357417 309.736 0.598441ZM292.939 25.6566H285.75C285.523 25.6566 285.351 25.4655 285.351 25.2244C285.351 24.9834 285.523 24.7923 285.75 24.7923H292.939C293.174 24.7923 293.346 24.9834 293.346 25.2244C293.346 25.4655 293.174 25.6566 292.939 25.6566ZM333.322 25.2244C333.322 25.4655 333.142 25.6566 332.915 25.6566H325.726C325.491 25.6566 325.319 25.4655 325.319 25.2244C325.319 24.9834 325.491 24.7923 325.726 24.7923H332.915C333.126 24.7923 333.322 24.9834 333.322 25.2244ZM298.029 12.8159C298.193 12.9821 298.193 13.2564 298.029 13.4143C297.951 13.5057 297.841 13.5472 297.747 13.5472C297.637 13.5472 297.543 13.5057 297.465 13.4143L292.375 8.10343C292.211 7.92889 292.211 7.65462 292.375 7.49671C292.532 7.32218 292.79 7.32218 292.939 7.49671L298.029 12.8159ZM326.29 42.3371C326.454 42.5034 326.454 42.7776 326.29 42.9355C326.212 43.027 326.102 43.0685 326.008 43.0685C325.898 43.0685 325.805 43.027 325.726 42.9355L320.636 37.6247C320.472 37.4502 320.472 37.1759 320.636 37.018C320.801 36.8435 321.059 36.8435 321.208 37.018L326.29 42.3371ZM298.029 37.018C298.193 37.1925 298.178 37.4668 298.029 37.6247L292.939 42.9355C292.861 43.027 292.767 43.0685 292.657 43.0685C292.547 43.0685 292.438 43.027 292.375 42.9355C292.211 42.7693 292.226 42.495 292.375 42.3371L297.465 37.018C297.622 36.8435 297.88 36.8435 298.029 37.018ZM320.621 13.4309C320.456 13.2564 320.472 12.9821 320.621 12.8242L325.711 7.51333C325.875 7.3388 326.133 7.35542 326.282 7.51333C326.439 7.67956 326.431 7.95383 326.282 8.11174L321.192 13.4309C321.106 13.514 321.012 13.5556 320.91 13.5556C320.809 13.5556 320.707 13.514 320.621 13.4309ZM303.417 9.21712C303.503 9.43322 303.401 9.69086 303.205 9.78228C303.15 9.80722 303.095 9.80722 303.041 9.80722C302.876 9.80722 302.727 9.70748 302.657 9.54957L301.373 6.31653C301.294 6.10044 301.388 5.84279 301.592 5.75968C301.796 5.66825 302.038 5.7763 302.117 5.98408L303.417 9.21712ZM294.325 32.1809L291.224 33.5107C291.169 33.5439 291.114 33.5439 291.075 33.5439C290.911 33.5439 290.762 33.4442 290.692 33.2696C290.613 33.0536 290.707 32.7959 290.911 32.7128L294.012 31.3747C294.215 31.2833 294.458 31.3913 294.536 31.6074C294.623 31.8484 294.529 32.0895 294.325 32.1809ZM324.348 18.268L327.441 16.9382C327.645 16.8468 327.887 16.9465 327.974 17.1626C328.052 17.3787 327.958 17.6363 327.754 17.7278L324.653 19.0576C324.599 19.0908 324.544 19.0908 324.505 19.0908C324.348 19.0908 324.199 18.9911 324.129 18.8165C324.035 18.6004 324.144 18.3594 324.348 18.268ZM317.269 6.31653L315.977 9.54957C315.914 9.70748 315.766 9.80722 315.601 9.80722C315.546 9.80722 315.491 9.79891 315.437 9.78228C315.233 9.69086 315.139 9.43322 315.225 9.21712L316.509 5.98408C316.588 5.7763 316.831 5.66825 317.034 5.75968C317.269 5.84279 317.363 6.09212 317.269 6.31653ZM290.692 17.1626C290.778 16.9465 291.021 16.8385 291.224 16.9382L294.325 18.268C294.529 18.3594 294.63 18.6171 294.536 18.8331C294.474 19.0077 294.325 19.1074 294.161 19.1074C294.106 19.1074 294.051 19.0908 294.012 19.0742L290.911 17.7361C290.707 17.628 290.598 17.3787 290.692 17.1626ZM327.974 33.2863C327.903 33.4525 327.754 33.5605 327.59 33.5605C327.535 33.5605 327.488 33.5439 327.441 33.5273L324.348 32.1892C324.144 32.1061 324.035 31.8484 324.129 31.6323C324.207 31.4163 324.45 31.2999 324.653 31.3996L327.754 32.7377C327.958 32.8208 328.052 33.0702 327.974 33.2863Z" fill="#3F3F3F"/>
</g>
</g>
<defs>
<clipPath id="clip0_20_481">
<rect width="430" height="150" fill="white"/>
</clipPath>
</defs>
</svg>
