<svg width="389" height="427" viewBox="0 0 389 427" fill="none" xmlns="http://www.w3.org/2000/svg">
<g clip-path="url(#clip0_95_3364)">
<path d="M176.972 187.192C176.972 187.192 175.775 184.362 173.689 179.411C171.618 174.452 168.655 167.372 165.102 158.875C163.326 154.625 161.406 150.022 159.374 145.15C157.357 140.274 155.235 135.129 153.038 129.811C148.651 119.167 143.976 107.815 139.298 96.4562C136.936 90.7892 134.577 85.1223 132.257 79.5416C129.906 73.9682 127.629 68.4738 125.504 63.1269C123.411 57.7656 121.423 52.5697 119.639 47.6039C118.74 45.1229 117.863 42.7065 117.014 40.3728C116.198 38.0284 115.403 35.7631 114.644 33.5912C113.12 29.2403 111.797 25.231 110.617 21.6712C109.448 18.1114 108.456 15.001 107.665 12.4229C106.867 9.85188 106.259 7.82386 105.86 6.43229C105.464 5.04432 105.252 4.30359 105.252 4.30359L105.766 4.09863C105.766 4.09863 106.115 4.78902 106.769 6.07631C107.42 7.36719 108.355 9.26577 109.52 11.6965C110.689 14.1201 112.073 17.083 113.641 20.4882C115.195 23.8934 116.946 27.7409 118.787 31.9659C119.708 34.0766 120.668 36.2772 121.66 38.5534C122.624 40.8439 123.62 43.2063 124.648 45.6371C126.716 50.4914 128.791 55.6549 130.902 61.0126C132.98 66.3775 135.044 71.9546 137.108 77.6395C139.197 83.31 141.319 89.0741 143.444 94.8345C147.73 106.341 152.02 117.844 156.037 128.635C158.043 134.032 159.982 139.246 161.819 144.19C163.639 149.145 165.358 153.827 166.947 158.153C170.115 166.8 172.758 174.006 174.606 179.051C176.44 184.103 177.49 186.987 177.49 186.987L176.972 187.192Z" fill="#52D5F2"/>
<path d="M177.727 194.726C177.727 194.726 176.293 193.564 173.783 191.529C171.284 189.483 167.716 186.563 163.434 183.054C161.294 181.299 158.975 179.397 156.526 177.387C154.084 175.366 151.502 173.234 148.841 171.029C143.502 166.625 137.863 161.867 132.21 157.132C129.38 154.762 126.525 152.425 123.706 150.131C120.883 147.847 118.132 145.568 115.525 143.299C112.933 141.008 110.47 138.747 108.183 136.549C105.888 134.363 103.745 132.26 101.796 130.289C99.8436 128.326 98.0816 126.489 96.5426 124.838C94.9999 123.191 93.6695 121.735 92.5979 120.516C90.4403 118.082 89.2681 116.618 89.2681 116.618L89.6384 116.205C89.6384 116.205 91.235 117.183 93.9176 119.02C95.2589 119.933 96.8662 121.073 98.6929 122.404C100.523 123.723 102.562 125.244 104.756 126.942C106.949 128.632 109.301 130.494 111.757 132.501C114.224 134.5 116.766 136.665 119.359 138.951C121.937 141.256 124.54 143.705 127.155 146.226C129.78 148.743 132.455 151.285 135.155 153.798C140.557 158.822 145.976 163.827 151.003 168.577C153.52 170.95 155.954 173.244 158.263 175.416C160.564 177.602 162.736 179.666 164.746 181.572C168.752 185.384 172.096 188.566 174.437 190.792C176.764 193.028 178.091 194.305 178.091 194.305L177.727 194.726Z" fill="#52D5F2"/>
<path d="M186.865 201.881C186.865 201.881 188.619 203.305 191.69 205.797C194.747 208.3 199.12 211.878 204.362 216.171C206.984 218.318 209.821 220.648 212.827 223.111C215.815 225.585 218.969 228.195 222.227 230.896C228.743 236.311 235.693 242.082 242.641 247.861C246.132 250.726 249.624 253.596 253.055 256.419C256.51 259.223 259.883 262.01 263.094 264.772C266.284 267.555 269.34 270.28 272.163 272.945C273.584 274.272 274.964 275.559 276.298 276.807C277.615 278.076 278.888 279.298 280.11 280.478C282.552 282.83 284.745 285.041 286.687 287.001C288.622 288.967 290.294 290.701 291.649 292.15C293.009 293.599 294.066 294.75 294.774 295.548C295.483 296.346 295.86 296.774 295.86 296.774L295.497 297.191C295.497 297.191 295.022 296.875 294.134 296.281C293.246 295.692 291.962 294.803 290.341 293.656C288.719 292.513 286.77 291.096 284.551 289.449C282.343 287.795 279.851 285.929 277.187 283.833C275.853 282.786 274.465 281.693 273.026 280.564C271.609 279.417 270.139 278.223 268.632 277.001C265.604 274.566 262.487 271.916 259.29 269.144C256.115 266.346 252.886 263.387 249.635 260.352C246.363 257.339 243.044 254.275 239.717 251.215C233.043 245.124 226.369 239.037 220.109 233.33C216.984 230.471 213.963 227.71 211.101 225.088C208.246 222.453 205.549 219.961 203.064 217.667C198.087 213.061 193.945 209.228 191.043 206.538C188.152 203.841 186.501 202.302 186.501 202.302L186.865 201.881Z" fill="#52D5F2"/>
<path d="M191.777 196.113C191.777 196.113 194.247 194.294 198.573 191.101C202.906 187.922 209.095 183.388 216.524 177.94C220.238 175.218 224.262 172.27 228.52 169.152C232.788 166.049 237.29 162.78 241.947 159.393C251.267 152.637 261.21 145.431 271.153 138.218C276.108 134.597 281.067 130.972 285.946 127.405C290.808 123.813 295.616 120.314 300.319 116.995C305.041 113.702 309.629 110.552 314.038 107.654C316.238 106.197 318.378 104.777 320.449 103.411C322.535 102.062 324.552 100.76 326.487 99.5128C330.356 97.0137 333.948 94.7807 337.13 92.7994C340.316 90.8325 343.11 89.1353 345.426 87.7618C347.742 86.3846 349.569 85.3166 350.827 84.6047C352.086 83.8927 352.758 83.5151 352.758 83.5151L353.075 83.9682C353.075 83.9682 352.489 84.4716 351.385 85.4029C350.288 86.3414 348.659 87.6934 346.573 89.3942C344.484 91.1022 341.935 93.1446 338.993 95.4639C336.044 97.7724 332.711 100.379 329.036 103.159C327.202 104.547 325.289 105.996 323.308 107.495C321.308 108.97 319.244 110.494 317.123 112.062C312.883 115.212 308.352 118.437 303.642 121.745C298.91 125.021 293.972 128.34 288.934 131.677C283.907 135.039 278.805 138.451 273.699 141.867C263.519 148.732 253.342 155.6 243.795 162.036C239.02 165.251 234.403 168.358 230.023 171.302C225.636 174.233 221.49 177.005 217.656 179.562C209.99 184.672 203.607 188.929 199.134 191.91C194.653 194.876 192.093 196.57 192.093 196.57L191.777 196.113Z" fill="#52D5F2"/>
<path d="M181.244 194.434C181.244 194.434 181.971 191.748 183.247 187.042C184.542 182.342 186.386 175.625 188.601 167.563C189.709 163.536 190.91 159.174 192.183 154.554C193.474 149.944 194.837 145.082 196.243 140.055C199.076 129.998 202.09 119.272 205.107 108.542C206.592 103.177 208.077 97.8051 209.54 92.5193C210.975 87.2263 212.424 82.0232 213.909 77.0215C215.423 72.0198 216.926 67.205 218.451 62.6636C219.21 60.391 219.943 58.1796 220.655 56.0437C221.396 53.9114 222.108 51.8546 222.791 49.8806C224.161 45.9288 225.485 42.3294 226.66 39.14C227.847 35.9505 228.901 33.1746 229.796 30.9056C230.691 28.6259 231.411 26.846 231.918 25.6342C232.428 24.4225 232.698 23.7788 232.698 23.7788L233.227 23.9406C233.227 23.9406 233.097 24.6238 232.853 25.9147C232.608 27.2056 232.223 29.0898 231.706 31.4774C231.199 33.8722 230.544 36.7632 229.771 40.0749C228.983 43.383 228.095 47.1154 227.052 51.1643C226.531 53.1887 225.992 55.2994 225.431 57.482C224.841 59.6539 224.233 61.9048 223.604 64.2133C222.371 68.8411 220.957 73.6918 219.454 78.6899C217.926 83.6845 216.261 88.8192 214.528 94.0223C212.827 99.2398 211.097 104.533 209.368 109.829C205.952 120.433 202.536 131.041 199.332 140.983C197.724 145.953 196.174 150.76 194.7 155.312C193.208 159.865 191.798 164.165 190.5 168.139C187.889 176.078 185.714 182.694 184.193 187.326C182.654 191.953 181.773 194.596 181.773 194.596L181.244 194.434Z" fill="#52D5F2"/>
<path d="M163.063 206.196C163.063 206.196 161.222 207.048 157.997 208.533C154.768 210.008 150.158 212.111 144.624 214.635C141.855 215.894 138.852 217.257 135.68 218.702C132.509 220.151 129.147 221.626 125.677 223.179C118.733 226.282 111.325 229.583 103.921 232.888C100.225 234.563 96.5211 236.207 92.8964 237.882C89.2681 239.558 85.683 241.169 82.1878 242.647C78.671 244.099 75.2656 245.466 71.9862 246.663C70.3536 247.271 68.7642 247.86 67.2252 248.432C65.6753 248.975 64.1795 249.497 62.7447 250C59.8716 251.014 57.2106 251.87 54.8517 252.632C52.4892 253.38 50.4215 254.013 48.7027 254.509C46.991 255.009 45.6389 255.379 44.7076 255.617C43.7763 255.854 43.28 255.983 43.28 255.983L43.0679 255.469C43.0679 255.469 43.5066 255.21 44.3336 254.714C45.1571 254.225 46.3761 253.531 47.9367 252.668C49.4974 251.798 51.4032 250.777 53.6039 249.63C55.8082 248.497 58.2929 247.217 61.0366 245.89C62.4067 245.232 63.8342 244.538 65.3122 243.826C66.8009 243.139 68.3399 242.427 69.9221 241.694C73.0829 240.219 76.4559 238.763 79.9619 237.3C83.4823 235.861 87.1501 234.459 90.8935 233.071C94.6404 231.683 98.4197 230.216 102.21 228.781C109.776 225.858 117.345 222.942 124.436 220.205C127.989 218.842 131.405 217.498 134.67 216.275C137.932 215.042 141.017 213.877 143.861 212.805C149.554 210.662 154.3 208.875 157.623 207.624C160.949 206.39 162.851 205.686 162.851 205.686L163.063 206.196Z" fill="#52D5F2"/>
<path d="M163.754 212.481C163.754 212.481 161.916 213.869 158.701 216.297C155.476 218.713 150.873 222.161 145.35 226.304C142.585 228.371 139.589 230.611 136.418 232.981C133.239 235.333 129.887 237.814 126.417 240.381C119.477 245.505 112.07 250.971 104.662 256.44C100.973 259.191 97.2834 261.941 93.6515 264.653C90.0376 267.382 86.4561 270.043 82.9429 272.542C79.4117 275.019 75.9704 277.378 72.6514 279.532C70.9973 280.614 69.3863 281.668 67.8257 282.685C66.2507 283.681 64.7296 284.638 63.2697 285.562C60.3498 287.407 57.6313 289.043 55.222 290.492C52.8056 291.93 50.684 293.163 48.922 294.156C47.16 295.152 45.7684 295.918 44.8047 296.428C43.8446 296.935 43.334 297.209 43.334 297.209L43.0139 296.756C43.0139 296.756 43.4418 296.364 44.2473 295.63C45.0492 294.897 46.243 293.847 47.7713 292.527C49.3032 291.2 51.1802 289.622 53.3522 287.835C55.5313 286.055 57.9837 284.048 60.7094 281.923C62.0686 280.859 63.489 279.755 64.9562 278.604C66.4449 277.482 67.9767 276.324 69.5553 275.131C72.7017 272.729 76.0855 270.291 79.6059 267.806C83.1479 265.343 86.8624 262.869 90.6525 260.388C94.4318 257.885 98.2686 255.343 102.105 252.801C109.75 247.673 117.395 242.549 124.566 237.745C128.154 235.347 131.621 233.028 134.907 230.831C138.205 228.648 141.33 226.588 144.206 224.682C149.971 220.881 154.771 217.713 158.133 215.491C161.506 213.287 163.434 212.028 163.434 212.028L163.754 212.481Z" fill="#52D5F2"/>
<path d="M185.153 207.904C185.153 207.904 185.455 210.241 185.98 214.333C186.487 218.425 187.217 224.272 188.091 231.291C188.526 234.797 188.993 238.601 189.49 242.621C189.968 246.641 190.471 250.884 190.993 255.275C192.021 264.052 193.121 273.412 194.222 282.775C194.79 287.453 195.365 292.131 195.926 296.737C196.52 301.34 197.063 305.874 197.505 310.272C197.918 314.67 198.274 318.923 198.505 322.972C198.627 324.997 198.749 326.96 198.868 328.862C198.954 330.768 199.037 332.609 199.119 334.378C199.285 337.909 199.364 341.156 199.436 344.036C199.49 346.917 199.519 349.426 199.511 351.498C199.508 353.569 199.486 355.198 199.457 356.309C199.425 357.423 199.411 358.017 199.411 358.017L198.853 358.071C198.853 358.071 198.728 357.488 198.487 356.402C198.246 355.316 197.918 353.72 197.526 351.688C197.127 349.653 196.685 347.183 196.196 344.346C195.725 341.501 195.193 338.298 194.689 334.799C194.438 333.048 194.175 331.221 193.905 329.333C193.657 327.445 193.406 325.489 193.15 323.479C192.611 319.463 192.158 315.216 191.737 310.819C191.342 306.417 191.025 301.865 190.741 297.23C190.428 292.602 190.108 287.899 189.788 283.196C189.108 273.793 188.422 264.393 187.782 255.577C187.465 251.172 187.163 246.911 186.875 242.869C186.606 238.827 186.35 235.005 186.12 231.478C185.656 224.423 185.268 218.54 184.998 214.423C184.743 210.306 184.603 207.954 184.603 207.954L185.153 207.904Z" fill="#52D5F2"/>
<path d="M172.549 199.023C172.549 199.023 170.316 198.997 166.408 198.951C162.502 198.886 156.922 198.796 150.219 198.688C146.871 198.631 143.243 198.569 139.41 198.501C135.573 198.418 131.524 198.329 127.338 198.235C118.967 198.037 110.042 197.825 101.113 197.613C96.647 197.534 92.1845 197.451 87.7903 197.372C83.3925 197.318 79.0666 197.228 74.8845 197.056C70.7061 196.854 66.6679 196.613 62.8418 196.283C60.9288 196.124 59.0697 195.973 57.2682 195.822C55.4702 195.646 53.7334 195.477 52.0649 195.312C48.7279 194.984 45.675 194.614 42.9673 194.283C40.2595 193.938 37.9006 193.618 35.9588 193.323C34.017 193.036 32.4924 192.787 31.4568 192.6C30.4139 192.417 29.8638 192.32 29.8638 192.32L29.8889 191.763C29.8889 191.763 30.4499 191.716 31.5035 191.63C32.5499 191.543 34.0926 191.439 36.0523 191.331C38.0157 191.22 40.3926 191.123 43.1183 191.033C45.844 190.964 48.9221 190.878 52.2735 190.867C53.9492 190.86 55.6968 190.849 57.5055 190.846C59.3107 190.864 61.1769 190.889 63.0936 190.91C66.934 190.936 70.9794 191.076 75.1578 191.266C79.3363 191.489 83.6514 191.802 88.0348 192.165C92.4182 192.496 96.8699 192.834 101.322 193.172C110.232 193.801 119.139 194.427 127.493 195.013C131.668 195.315 135.702 195.603 139.528 195.88C143.354 196.175 146.975 196.455 150.312 196.71C156.99 197.228 162.556 197.663 166.454 197.969C170.349 198.285 172.575 198.469 172.575 198.469L172.549 199.023Z" fill="#52D5F2"/>
<path d="M177.965 202.363C177.965 202.363 176.426 202.748 173.729 203.424C171.032 204.082 167.177 205.027 162.553 206.157C160.241 206.717 157.734 207.325 155.084 207.972C152.43 208.605 149.636 209.27 146.741 209.957C140.956 211.349 134.767 212.744 128.586 214.171C125.497 214.887 122.412 215.639 119.38 216.394C116.349 217.152 113.361 217.868 110.448 218.468C107.532 219.047 104.698 219.547 102.001 219.95C99.3078 220.363 96.7475 220.705 94.3778 220.989C92.0117 221.277 89.8326 221.5 87.8944 221.658C85.9562 221.823 84.2661 221.949 82.8673 222.021C80.0661 222.172 78.448 222.165 78.448 222.165L78.3401 221.618C78.3401 221.618 79.8324 220.996 82.4754 220.065C83.7987 219.594 85.4096 219.058 87.2615 218.472C89.1134 217.879 91.2098 217.249 93.5076 216.609C95.8018 215.962 98.2974 215.301 100.948 214.65C103.594 213.992 106.399 213.37 109.315 212.787C112.235 212.23 115.27 211.741 118.363 211.284C121.451 210.817 124.591 210.335 127.719 209.81C133.976 208.76 140.226 207.685 146.101 206.753C149.039 206.282 151.88 205.826 154.573 205.394C157.267 204.977 159.816 204.578 162.164 204.215C166.871 203.488 170.791 202.881 173.538 202.46C176.285 202.05 177.857 201.816 177.857 201.816L177.965 202.363Z" fill="#52D5F2"/>
<path d="M191.795 186.908C191.795 186.908 192.787 185.639 194.524 183.42C196.275 181.212 198.782 178.055 201.781 174.269C203.284 172.381 204.909 170.328 206.631 168.163C208.368 166.006 210.195 163.726 212.083 161.371C215.855 156.657 219.94 151.676 224.003 146.682C226.035 144.183 228.038 141.662 230.001 139.17C231.954 136.671 233.906 134.241 235.863 131.939C237.837 129.66 239.793 127.495 241.702 125.488C243.605 123.475 245.435 121.601 247.154 119.901C248.873 118.189 250.473 116.654 251.922 115.312C253.371 113.971 254.644 112.813 255.723 111.882C257.862 110.012 259.16 109.005 259.16 109.005L259.581 109.369C259.581 109.369 258.768 110.796 257.229 113.187C256.46 114.385 255.503 115.816 254.381 117.437C253.267 119.066 251.976 120.875 250.534 122.82C249.095 124.766 247.506 126.848 245.791 129.023C244.079 131.202 242.22 133.449 240.246 135.729C238.254 137.998 236.129 140.281 233.942 142.576C231.756 144.877 229.548 147.221 227.369 149.595C223.014 154.337 218.681 159.098 214.553 163.51C212.496 165.718 210.508 167.854 208.62 169.882C206.725 171.899 204.931 173.805 203.276 175.563C199.965 179.08 197.203 182.014 195.268 184.067C193.323 186.106 192.215 187.271 192.215 187.271L191.795 186.908Z" fill="#52D5F2"/>
<path d="M192.259 216.588C192.259 216.588 192.978 218.005 194.244 220.479C195.491 222.952 197.282 226.498 199.422 230.752C200.49 232.877 201.648 235.182 202.874 237.616C204.086 240.058 205.362 242.636 206.689 245.3C209.343 250.622 212.101 256.336 214.881 262.039C216.272 264.89 217.7 267.723 219.117 270.507C220.54 273.29 221.907 276.044 223.151 278.745C224.374 281.456 225.496 284.099 226.492 286.637C227.506 289.172 228.416 291.585 229.225 293.829C230.037 296.073 230.742 298.144 231.339 299.999C231.932 301.847 232.436 303.469 232.821 304.817C233.601 307.507 233.957 309.089 233.957 309.089L233.45 309.316C233.45 309.316 232.504 308.003 231.001 305.637C230.246 304.454 229.365 303.005 228.372 301.333C227.38 299.661 226.294 297.759 225.15 295.666C224.007 293.577 222.799 291.29 221.569 288.859C220.332 286.429 219.088 283.833 217.865 281.125C216.668 278.403 215.506 275.559 214.37 272.65C213.219 269.744 212.043 266.796 210.828 263.865C208.394 258.004 205.938 252.157 203.708 246.641C202.59 243.887 201.504 241.223 200.479 238.698C199.465 236.163 198.505 233.772 197.617 231.564C195.851 227.145 194.38 223.459 193.348 220.881C192.331 218.296 191.748 216.818 191.748 216.818L192.259 216.588Z" fill="#52D5F2"/>
<path d="M204.625 196.067C204.625 196.067 206.563 195.671 209.954 194.97C213.349 194.287 218.2 193.313 224.014 192.14C226.923 191.554 230.077 190.925 233.41 190.26C236.744 189.58 240.268 188.926 243.91 188.217C251.192 186.811 258.959 185.316 266.726 183.816C270.61 183.047 274.493 182.306 278.305 181.518C282.12 180.731 285.882 179.994 289.535 179.365C293.196 178.764 296.738 178.228 300.114 177.822C301.804 177.613 303.444 177.408 305.03 177.211C306.623 177.038 308.162 176.876 309.64 176.718C312.592 176.398 315.314 176.182 317.724 175.988C320.136 175.808 322.244 175.672 323.984 175.589C325.721 175.499 327.091 175.452 328.029 175.434C328.968 175.42 329.464 175.409 329.464 175.409L329.558 175.959C329.558 175.959 329.079 176.11 328.188 176.398C327.296 176.686 325.983 177.081 324.308 177.556C322.636 178.038 320.593 178.588 318.256 179.196C315.911 179.785 313.265 180.458 310.366 181.108C308.917 181.436 307.41 181.777 305.846 182.126C304.282 182.453 302.66 182.784 300.992 183.133C297.666 183.838 294.142 184.471 290.485 185.078C286.82 185.661 283.023 186.179 279.161 186.657C275.292 187.139 271.376 187.689 267.453 188.21C259.617 189.296 251.782 190.378 244.432 191.396C240.76 191.899 237.215 192.417 233.838 192.849C230.469 193.291 227.279 193.708 224.338 194.096C218.451 194.859 213.55 195.499 210.116 195.941C206.678 196.373 204.718 196.617 204.718 196.617L204.625 196.067Z" fill="#52D5F2"/>
<path d="M192.111 201.198C192.111 201.198 193.758 201.795 196.645 202.837C199.529 203.895 203.64 205.401 208.58 207.213C211.047 208.123 213.722 209.108 216.549 210.151C219.372 211.201 222.353 212.312 225.431 213.463C231.59 215.746 238.135 218.263 244.687 220.755C247.966 222.003 251.26 223.211 254.504 224.387C257.747 225.559 260.93 226.746 263.979 227.976C267.017 229.23 269.93 230.496 272.659 231.769C275.399 233.024 277.971 234.257 280.329 235.43C282.688 236.602 284.839 237.709 286.73 238.723C288.625 239.737 290.261 240.64 291.603 241.413C294.289 242.948 295.785 243.916 295.785 243.916L295.569 244.426C295.569 244.426 293.828 244.056 290.844 243.258C289.348 242.862 287.546 242.348 285.493 241.733C283.433 241.122 281.128 240.395 278.629 239.561C276.126 238.734 273.432 237.796 270.603 236.76C267.769 235.735 264.806 234.585 261.771 233.333C258.743 232.06 255.647 230.665 252.515 229.205C249.383 227.756 246.197 226.293 242.993 224.869C236.585 222.021 230.17 219.202 224.183 216.483C221.191 215.128 218.293 213.819 215.549 212.578C212.809 211.323 210.216 210.137 207.825 209.044C203.046 206.854 199.058 205.027 196.268 203.747C193.488 202.453 191.895 201.716 191.895 201.716L192.111 201.198Z" fill="#52D5F2"/>
<path d="M281.973 222.546C281.973 222.546 285.037 223.042 289.603 223.891C291.89 224.319 294.551 224.811 297.399 225.383C300.247 225.926 303.268 226.588 306.296 227.22C307.809 227.54 309.331 227.817 310.837 228.08C312.34 228.335 313.815 228.612 315.217 228.979C316.612 229.353 317.939 229.799 319.187 230.28C320.431 230.744 321.596 231.233 322.661 231.719C323.732 232.201 324.699 232.686 325.548 233.139C326.404 233.589 327.13 234.031 327.727 234.398C328.925 235.138 329.583 235.656 329.583 235.656L329.435 236.188C329.435 236.188 328.605 236.293 327.199 236.318C326.494 236.329 325.645 236.339 324.681 236.285C323.721 236.239 322.639 236.16 321.478 236.026C320.312 235.901 319.061 235.721 317.749 235.484C316.436 235.261 315.066 234.962 313.674 234.567C312.286 234.167 310.88 233.646 309.453 233.1C308.025 232.553 306.576 232.014 305.116 231.51C302.189 230.507 299.258 229.529 296.529 228.533C293.796 227.569 291.254 226.631 289.071 225.832C284.713 224.222 281.825 223.078 281.825 223.082L281.973 222.546Z" fill="#52D5F2"/>
<path d="M249.38 102.235C249.38 102.235 251.149 99.6816 253.878 95.9204C255.248 94.0434 256.841 91.85 258.578 89.5307C260.293 87.1899 262.188 84.7447 264.062 82.2852C265 81.0555 265.906 79.7969 266.787 78.5528C267.668 77.3051 268.549 76.0933 269.484 74.9858C270.423 73.8855 271.394 72.8751 272.361 71.9653C273.321 71.0376 274.267 70.1962 275.162 69.4411C276.058 68.6824 276.91 68.0208 277.687 67.449C278.456 66.8701 279.168 66.4027 279.754 66.0215C280.941 65.2556 281.689 64.8853 281.689 64.8853L282.11 65.252C282.11 65.252 281.847 66.0431 281.265 67.3232C280.97 67.9632 280.614 68.7363 280.15 69.5813C279.693 70.4263 279.165 71.372 278.539 72.3645C277.924 73.3605 277.223 74.4141 276.446 75.4964C275.68 76.5859 274.824 77.6934 273.868 78.7793C272.908 79.8653 271.836 80.908 270.729 81.9616C269.625 83.0152 268.51 84.0903 267.428 85.1942C265.263 87.402 263.12 89.6314 261.048 91.6666C259.002 93.7198 257.061 95.6112 255.399 97.2365C252.073 100.48 249.804 102.598 249.804 102.598L249.38 102.235Z" fill="#52D5F2"/>
<path d="M103.893 74.3751C103.893 74.3751 102.023 72.4657 99.2971 69.5424C97.9343 68.0753 96.3449 66.3673 94.6764 64.5155C92.9863 62.678 91.2459 60.6716 89.4839 58.6759C88.6065 57.6799 87.6931 56.709 86.7833 55.7597C85.8736 54.8141 84.9926 53.8684 84.2302 52.8903C83.4643 51.9087 82.7991 50.9054 82.2129 49.9166C81.616 48.9421 81.091 47.9857 80.6379 47.0831C80.1777 46.1806 79.7929 45.3284 79.4693 44.5589C79.1456 43.793 78.9011 43.0882 78.7069 42.5093C78.3186 41.3443 78.1711 40.6215 78.1711 40.6215L78.617 40.2871C78.617 40.2871 79.2715 40.6179 80.2927 41.3011C80.7998 41.6427 81.4147 42.0634 82.0655 42.5812C82.7236 43.0954 83.4427 43.6923 84.1871 44.3755C84.9386 45.0515 85.7226 45.8102 86.5065 46.648C87.3048 47.4715 88.0923 48.3776 88.8366 49.3772C89.581 50.3733 90.257 51.4736 90.9258 52.6026C91.6019 53.7281 92.2959 54.868 93.0258 55.9791C94.4786 58.2049 95.9565 60.4163 97.2762 62.5342C98.6211 64.6377 99.8437 66.619 100.897 68.3198C102.994 71.725 104.335 74.0335 104.335 74.0335L103.893 74.3751Z" fill="#52D5F2"/>
<path d="M177.479 205.534C177.479 205.534 176.782 207.142 175.563 209.954C174.329 212.758 172.567 216.764 170.449 221.572C169.392 223.974 168.245 226.577 167.026 229.328C165.8 232.075 164.509 234.973 163.171 237.972C160.507 243.966 157.583 250.331 154.692 256.702C153.243 259.888 151.833 263.092 150.456 266.253C149.086 269.417 147.702 272.513 146.281 275.472C144.847 278.421 143.401 281.24 141.963 283.886C140.539 286.536 139.147 289.018 137.827 291.297C136.515 293.577 135.274 295.645 134.145 297.468C133.012 299.291 132.013 300.866 131.157 302.153C129.456 304.731 128.402 306.162 128.402 306.162L127.903 305.918C127.903 305.918 128.381 304.206 129.363 301.279C129.855 299.816 130.477 298.05 131.218 296.04C131.959 294.03 132.825 291.776 133.814 289.338C134.796 286.9 135.896 284.275 137.108 281.517C138.306 278.759 139.64 275.882 141.078 272.934C142.538 269.992 144.124 266.997 145.774 263.969C147.418 260.938 149.072 257.853 150.69 254.753C153.93 248.547 157.148 242.33 160.233 236.537C161.772 233.639 163.254 230.834 164.667 228.177C166.088 225.523 167.429 223.017 168.673 220.705C171.158 216.077 173.229 212.223 174.678 209.522C176.142 206.829 176.98 205.293 176.98 205.293L177.479 205.534Z" fill="#52D5F2"/>
<path d="M177.677 194.665C177.677 194.665 176.728 193.331 175.074 190.993C173.43 188.649 171.086 185.298 168.27 181.278C166.864 179.264 165.343 177.085 163.732 174.78C162.136 172.468 160.449 170.03 158.705 167.506C155.206 162.468 151.546 157.046 147.864 151.645C146.022 148.941 144.145 146.258 142.29 143.626C140.424 141.001 138.622 138.394 136.954 135.823C135.303 133.242 133.757 130.707 132.358 128.272C130.945 125.838 129.65 123.515 128.489 121.347C127.317 119.182 126.281 117.183 125.393 115.385C124.501 113.587 123.746 112.012 123.145 110.696C121.937 108.071 121.329 106.521 121.329 106.521L121.8 106.227C121.8 106.227 122.951 107.428 124.825 109.625C125.77 110.721 126.881 112.07 128.133 113.63C129.391 115.191 130.776 116.974 132.25 118.945C133.728 120.908 135.292 123.062 136.91 125.363C138.532 127.657 140.179 130.121 141.837 132.702C143.466 135.298 145.077 138.028 146.677 140.822C148.284 143.612 149.931 146.442 151.614 149.246C154.973 154.859 158.353 160.454 161.46 165.747C163.017 168.39 164.523 170.943 165.947 173.363C167.364 175.794 168.702 178.092 169.942 180.21C172.406 184.453 174.462 187.991 175.904 190.465C177.328 192.946 178.145 194.366 178.145 194.366L177.677 194.665Z" fill="#52D5F2"/>
<path d="M181.23 194.517C181.23 194.517 181.154 192.971 181.018 190.267C180.87 187.563 180.723 183.704 180.518 179.07C180.417 176.75 180.309 174.24 180.198 171.587C180.094 168.929 179.986 166.128 179.874 163.234C179.64 157.441 179.475 151.26 179.284 145.082C179.187 141.99 179.051 138.901 178.903 135.859C178.749 132.817 178.634 129.825 178.612 126.931C178.612 124.033 178.677 121.231 178.81 118.578C178.929 115.92 179.09 113.411 179.274 111.095C179.454 108.776 179.662 106.654 179.881 104.77C180.097 102.889 180.309 101.246 180.511 99.8941C180.91 97.19 181.23 95.6475 181.23 95.6475H181.787C181.787 95.6475 182.107 97.19 182.506 99.8941C182.711 101.246 182.92 102.889 183.136 104.77C183.355 106.654 183.56 108.776 183.74 111.095C183.927 113.411 184.089 115.92 184.211 118.578C184.34 121.231 184.405 124.033 184.405 126.931C184.38 129.825 184.268 132.817 184.114 135.859C183.966 138.901 183.83 141.99 183.736 145.082C183.542 151.26 183.377 157.441 183.143 163.234C183.031 166.128 182.924 168.929 182.823 171.587C182.708 174.24 182.6 176.75 182.499 179.07C182.291 183.704 182.15 187.563 181.999 190.267C181.863 192.971 181.787 194.517 181.787 194.517H181.23Z" fill="#52D5F2"/>
<mask id="mask0_95_3364" style="mask-type:luminance" maskUnits="userSpaceOnUse" x="133" y="353" width="13" height="13">
<path d="M133.379 353.767H145.724V365.755H133.379V353.767Z" fill="white"/>
</mask>
<g mask="url(#mask0_95_3364)">
<path d="M145.494 359.825C145.494 363.087 142.851 365.726 139.589 365.726C136.324 365.726 133.685 363.087 133.685 359.825C133.685 356.56 136.324 353.917 139.589 353.917C142.851 353.917 145.494 356.56 145.494 359.825Z" fill="#52D5F2"/>
</g>
<path d="M287.805 101.555C287.805 104.817 285.159 107.456 281.897 107.456C278.636 107.456 275.993 104.817 275.993 101.555C275.993 98.2904 278.636 95.6475 281.897 95.6475C285.159 95.6475 287.805 98.2904 287.805 101.555Z" fill="#52D5F2"/>
<path d="M117.323 95.6471C117.323 98.9085 114.677 101.555 111.415 101.555C108.15 101.555 105.511 98.9085 105.511 95.6471C105.511 92.3858 108.15 89.7393 111.415 89.7393C114.677 89.7393 117.323 92.3858 117.323 95.6471Z" fill="#52D5F2"/>
<path d="M60.5009 229.367C60.5009 232.632 57.8579 235.271 54.5964 235.271C51.3313 235.271 48.6919 232.632 48.6919 229.367C48.6919 226.106 51.3313 223.463 54.5964 223.463C57.8579 223.463 60.5009 226.106 60.5009 229.367Z" fill="#52D5F2"/>
<path d="M323.477 268.86C323.477 272.121 320.834 274.764 317.576 274.764C314.311 274.764 311.668 272.121 311.668 268.86C311.668 265.598 314.311 262.952 317.576 262.952C320.834 262.952 323.477 265.598 323.477 268.86Z" fill="#52D5F2"/>
<path d="M24.7035 101.555C24.7035 104.817 22.0605 107.456 18.799 107.456C15.5339 107.456 12.8945 104.817 12.8945 101.555C12.8945 98.2904 15.5339 95.6475 18.799 95.6475C22.0605 95.6475 24.7035 98.2904 24.7035 101.555Z" fill="#52D5F2"/>
<path d="M172.29 155.524C172.29 155.524 171.819 153.744 170.992 150.627C170.183 147.509 169.029 143.05 167.641 137.707C166.951 135.032 166.203 132.137 165.408 129.074C164.631 126.006 163.811 122.77 162.959 119.426C161.251 112.738 159.511 105.582 157.738 98.4376C156.853 94.8634 155.929 91.3 155.009 87.7941C154.077 84.2882 153.203 80.8326 152.434 77.467C151.697 74.0978 151.042 70.8256 150.492 67.7081C149.931 64.5941 149.442 61.642 149.032 58.902C148.619 56.1692 148.277 53.6558 148.007 51.4156C147.734 49.1826 147.522 47.2265 147.371 45.6084C147.069 42.3794 146.986 40.5132 146.986 40.5132L147.529 40.3945C147.529 40.3945 148.241 42.1205 149.323 45.1805C149.866 46.7123 150.488 48.5749 151.183 50.718C151.88 52.8611 152.624 55.2882 153.394 57.9455C154.171 60.6028 154.969 63.483 155.767 66.5466C156.573 69.6102 157.353 72.8536 158.094 76.2193C158.813 79.5957 159.467 83.1016 160.097 86.6722C160.73 90.2428 161.388 93.8637 162.085 97.4811C163.477 104.709 164.897 111.933 166.152 118.725C166.785 122.116 167.396 125.399 167.975 128.505C168.544 131.619 169.083 134.564 169.576 137.283C170.561 142.716 171.381 147.247 171.956 150.418C172.513 153.59 172.833 155.405 172.833 155.405L172.29 155.524Z" fill="#F0CA19"/>
<path d="M158.011 189.454C158.011 189.454 156.263 188.548 153.211 186.966C150.165 185.369 145.814 183.09 140.593 180.353C137.985 178.983 135.159 177.495 132.171 175.923C129.176 174.359 126.047 172.658 122.796 170.932C116.302 167.455 109.373 163.748 102.447 160.041C98.9699 158.207 95.507 156.348 92.0729 154.572C88.6352 152.788 85.2731 151.005 82.0655 149.203C78.8687 147.376 75.7978 145.571 72.9427 143.77C71.5079 142.875 70.1163 142.004 68.7678 141.167C67.4338 140.296 66.1464 139.462 64.9058 138.657C62.4318 137.049 60.1988 135.518 58.221 134.155C56.2469 132.785 54.5352 131.569 53.1472 130.541C51.7484 129.52 50.6624 128.7 49.9325 128.125C49.1989 127.553 48.8105 127.244 48.8105 127.244L49.0874 126.758C49.0874 126.758 49.5477 126.942 50.4143 127.28C51.2845 127.614 52.5395 128.128 54.1325 128.808C55.7255 129.48 57.6421 130.333 59.8284 131.332C62.0075 132.339 64.4671 133.479 67.1101 134.791C68.4334 135.446 69.8107 136.129 71.2346 136.834C72.6478 137.56 74.1078 138.319 75.6073 139.095C78.6134 140.631 81.7311 142.35 84.935 144.169C88.121 146.014 91.3717 147.995 94.6512 150.041C97.9342 152.091 101.296 154.119 104.651 156.175C111.369 160.246 118.093 164.313 124.393 168.128C127.543 170.044 130.599 171.864 133.469 173.644C136.346 175.413 139.064 177.085 141.574 178.631C146.59 181.727 150.773 184.305 153.7 186.11C156.616 187.93 158.284 188.969 158.284 188.969L158.011 189.454Z" fill="#F0CA19"/>
<path d="M188.993 187.66C188.993 187.66 190.022 185.585 191.816 181.953C193.632 178.329 196.218 173.151 199.324 166.937C200.878 163.831 202.564 160.468 204.344 156.909C206.146 153.363 208.045 149.62 210.008 145.747C213.945 138.013 218.145 129.761 222.345 121.505C224.42 117.369 226.502 113.234 228.548 109.157C230.569 105.072 232.594 101.07 234.629 97.2367C236.69 93.418 238.714 89.7467 240.731 86.3128C241.735 84.594 242.709 82.9219 243.651 81.3038C244.619 79.7001 245.553 78.1504 246.452 76.6617C248.243 73.6844 249.955 70.9876 251.465 68.6C252.99 66.216 254.342 64.1484 255.478 62.462C256.611 60.772 257.521 59.4523 258.154 58.5606C258.786 57.6724 259.124 57.1978 259.124 57.1978L259.613 57.4602C259.613 57.4602 259.405 58.0032 259.013 59.0244C258.617 60.0456 258.02 61.5307 257.233 63.4077C256.456 65.2883 255.475 67.5536 254.331 70.139C253.17 72.7171 251.868 75.6297 250.372 78.7688C249.628 80.3366 248.847 81.9727 248.042 83.6627C247.215 85.3419 246.359 87.0787 245.474 88.8622C243.727 92.4364 241.781 96.1544 239.732 99.9803C237.653 103.792 235.431 107.686 233.14 111.627C230.871 115.579 228.57 119.595 226.261 123.612C221.698 131.666 217.131 139.724 212.849 147.276C210.702 151.051 208.631 154.697 206.66 158.156C204.675 161.605 202.798 164.866 201.068 167.876C197.598 173.895 194.707 178.908 192.683 182.417C190.648 185.923 189.482 187.922 189.482 187.922L188.993 187.66Z" fill="#F0CA19"/>
<mask id="mask1_95_3364" style="mask-type:luminance" maskUnits="userSpaceOnUse" x="208" y="200" width="167" height="24">
<path d="M208.498 200.565H374.931V223.452H208.498V200.565Z" fill="white"/>
</mask>
<g mask="url(#mask1_95_3364)">
<path d="M208.659 201.18C208.659 201.18 211.266 201.439 215.833 201.885C220.393 202.352 226.912 203.014 234.73 203.812C238.642 204.215 242.874 204.646 247.355 205.107C251.832 205.588 256.553 206.092 261.436 206.617C271.203 207.674 281.624 208.799 292.041 209.932C297.252 210.471 302.466 211.011 307.597 211.543C312.732 212.046 317.781 212.582 322.653 213.183C327.522 213.812 332.229 214.466 336.674 215.193C338.9 215.549 341.057 215.89 343.153 216.225C345.243 216.584 347.26 216.937 349.198 217.271C353.071 217.94 356.617 218.623 359.756 219.231C362.895 219.849 365.632 220.414 367.875 220.91C370.123 221.395 371.888 221.798 373.089 222.089C374.29 222.384 374.931 222.539 374.931 222.539L374.859 223.089C374.859 223.089 374.201 223.078 372.964 223.06C371.73 223.039 369.918 222.981 367.624 222.884C365.322 222.794 362.535 222.65 359.342 222.453C356.149 222.251 352.55 222.017 348.63 221.683C346.67 221.521 344.628 221.345 342.517 221.169C340.41 220.96 338.227 220.752 335.987 220.529C331.503 220.108 326.789 219.551 321.916 218.932C317.047 218.278 312.027 217.523 306.935 216.714C301.833 215.93 296.655 215.135 291.477 214.34C281.11 212.801 270.746 211.259 261.027 209.813C256.168 209.087 251.472 208.382 247.02 207.713C242.569 207.027 238.362 206.376 234.478 205.779C226.711 204.571 220.238 203.568 215.707 202.863C211.176 202.144 208.587 201.734 208.587 201.734L208.659 201.18Z" fill="#F0CA19"/>
</g>
<mask id="mask2_95_3364" style="mask-type:luminance" maskUnits="userSpaceOnUse" x="204" y="230" width="73" height="136">
<path d="M204.262 230.604H276.834V365.755H204.262V230.604Z" fill="white"/>
</mask>
<g mask="url(#mask2_95_3364)">
<path d="M204.916 230.705C204.916 230.705 206.099 232.776 208.174 236.4C210.227 240.032 213.165 245.221 216.693 251.449C218.451 254.563 220.357 257.935 222.378 261.506C224.374 265.084 226.485 268.856 228.664 272.761C233.018 280.574 237.657 288.906 242.299 297.241C244.64 301.398 246.981 305.554 249.286 309.643C251.62 313.724 253.875 317.751 255.989 321.692C258.071 325.647 260.049 329.491 261.829 333.184C262.728 335.029 263.602 336.82 264.443 338.553C265.263 340.3 266.058 341.99 266.816 343.612C268.341 346.852 269.668 349.858 270.847 352.519C272.02 355.19 273.016 357.528 273.81 359.466C274.609 361.4 275.22 362.932 275.626 363.986C276.025 365.039 276.241 365.597 276.241 365.597L275.748 365.859C275.748 365.859 275.403 365.363 274.763 364.442C274.116 363.518 273.199 362.152 272.048 360.397C270.89 358.65 269.524 356.506 267.974 354.04C266.439 351.566 264.702 348.776 262.882 345.69C261.969 344.148 261.02 342.544 260.038 340.883C259.081 339.211 258.089 337.478 257.071 335.698C255.025 332.145 252.961 328.352 250.865 324.4C248.797 320.441 246.737 316.302 244.68 312.077C242.598 307.87 240.483 303.595 238.365 299.319C234.093 290.79 229.818 282.264 225.812 274.267C223.813 270.269 221.882 266.4 220.051 262.732C218.239 259.057 216.524 255.58 214.938 252.376C211.781 245.954 209.145 240.604 207.3 236.861C205.474 233.107 204.427 230.96 204.427 230.96L204.916 230.705Z" fill="#F0CA19"/>
</g>
<path d="M152.628 189.483C152.628 189.483 150.226 189.008 146.019 188.177C141.815 187.332 135.814 186.124 128.607 184.675C125.008 183.945 121.106 183.158 116.978 182.323C112.861 181.471 108.51 180.572 104.015 179.641C95.0253 177.768 85.4314 175.768 75.8447 173.769C71.0442 172.795 66.24 171.817 61.5186 170.86C56.7864 169.925 52.1369 168.969 47.6564 167.958C43.1867 166.923 38.8752 165.876 34.8082 164.783C32.7729 164.244 30.7916 163.719 28.8749 163.216C26.9691 162.68 25.128 162.162 23.3552 161.666C19.8168 160.677 16.5841 159.695 13.7218 158.829C10.863 157.951 8.37466 157.16 6.33578 156.481C4.2897 155.805 2.68953 155.254 1.59996 154.866C0.514 154.474 -0.0649414 154.266 -0.0649414 154.266L0.0573195 153.723C0.0573195 153.723 0.67222 153.791 1.82291 153.917C2.97001 154.039 4.6493 154.248 6.78167 154.535C8.91404 154.819 11.4959 155.201 14.4517 155.661C17.4076 156.135 20.7374 156.668 24.3585 157.329C26.1636 157.66 28.0479 158.002 29.9969 158.358C31.9422 158.739 33.9524 159.134 36.0164 159.541C40.1517 160.339 44.4848 161.288 48.9617 162.313C53.4278 163.37 58.027 164.546 62.6873 165.779C67.3584 166.984 72.1014 168.21 76.8444 169.433C86.3412 171.838 95.838 174.244 104.741 176.498C109.186 177.631 113.494 178.728 117.572 179.763C121.642 180.824 125.501 181.82 129.053 182.744C136.162 184.596 142.092 186.139 146.238 187.221C150.384 188.314 152.75 188.943 152.75 188.943L152.628 189.483Z" fill="#F0CA19"/>
<path d="M161.042 219.9C161.042 219.9 159.119 221.859 155.749 225.29C152.369 228.706 147.543 233.592 141.75 239.45C138.852 242.377 135.713 245.548 132.394 248.907C129.06 252.244 125.544 255.768 121.905 259.41C114.619 266.695 106.852 274.458 99.0814 282.225C95.2122 286.123 91.3466 290.021 87.5385 293.861C83.752 297.719 79.9943 301.491 76.3013 305.08C72.5903 308.643 68.9692 312.059 65.4632 315.22C63.7156 316.809 62.0183 318.352 60.3714 319.848C58.7065 321.319 57.0991 322.742 55.5565 324.109C52.4712 326.838 49.5909 329.29 47.0414 331.469C44.4811 333.634 42.2337 335.504 40.3602 337.025C38.4903 338.546 37.0124 339.729 35.9912 340.524C34.9663 341.318 34.4233 341.743 34.4233 341.743L34.0386 341.34C34.0386 341.34 34.4809 340.811 35.3151 339.822C36.1458 338.834 37.3828 337.395 38.9794 335.59C40.5687 333.778 42.5249 331.602 44.7867 329.125C47.0594 326.662 49.6196 323.879 52.4712 320.901C53.8952 319.413 55.3767 317.859 56.9157 316.252C58.4692 314.67 60.0765 313.027 61.7307 311.344C65.0245 307.96 68.5773 304.476 72.2847 300.905C76.01 297.349 79.9188 293.743 83.9246 290.107C87.9053 286.45 91.9507 282.732 95.9961 279.018C104.055 271.549 112.113 264.088 119.668 257.091C123.451 253.596 127.104 250.216 130.571 247.012C134.052 243.826 137.342 240.809 140.377 238.022C146.457 232.46 151.524 227.825 155.066 224.581C158.626 221.345 160.658 219.5 160.658 219.5L161.042 219.9Z" fill="#F0CA19"/>
<path d="M159.96 230.989C159.96 230.989 159.054 232.467 157.465 235.049C155.864 237.627 153.577 241.305 150.834 245.721C149.46 247.929 147.968 250.316 146.393 252.844C144.807 255.365 143.135 258.026 141.405 260.773C137.957 266.282 134.203 272.107 130.474 277.946C128.611 280.866 126.781 283.811 124.99 286.713C123.206 289.622 121.416 292.466 119.614 295.167C117.791 297.853 115.979 300.413 114.199 302.804C112.429 305.199 110.718 307.439 109.103 309.481C107.499 311.531 105.989 313.386 104.626 315.012C103.263 316.637 102.055 318.039 101.038 319.183C99.0059 321.466 97.7689 322.717 97.7689 322.717L97.3086 322.408C97.3086 322.408 98.0134 320.794 99.387 318.061C100.067 316.694 100.926 315.051 101.933 313.185C102.936 311.315 104.101 309.23 105.407 306.975C106.712 304.721 108.157 302.304 109.729 299.773C111.289 297.234 112.998 294.602 114.817 291.912C116.662 289.241 118.636 286.526 120.678 283.793C122.71 281.053 124.771 278.263 126.795 275.451C130.84 269.823 134.861 264.185 138.701 258.939C140.611 256.314 142.466 253.779 144.217 251.374C145.983 248.972 147.651 246.706 149.19 244.61C152.276 240.424 154.85 236.94 156.652 234.499C158.464 232.068 159.5 230.676 159.5 230.676L159.96 230.989Z" fill="#F0CA19"/>
<mask id="mask3_95_3364" style="mask-type:luminance" maskUnits="userSpaceOnUse" x="-11" y="129" width="91" height="31">
<path d="M-10.2126 129.685H79.0666V159.142H-10.2126V129.685Z" fill="white"/>
</mask>
<g mask="url(#mask3_95_3364)">
<path d="M78.3113 158.372C78.3113 158.372 76.9053 158.016 74.4529 157.39C71.9933 156.776 68.5017 155.841 64.2981 154.744C62.1981 154.194 59.9219 153.597 57.5162 152.964C55.1141 152.324 52.579 151.644 49.9576 150.943C44.7112 149.548 39.1447 147.984 33.5675 146.441C30.777 145.672 27.9758 144.942 25.2142 144.234C22.4525 143.532 19.7448 142.806 17.1485 142.022C14.5595 141.209 12.0783 140.372 9.74456 139.505C7.40722 138.646 5.21372 137.793 3.20001 136.97C1.1827 136.15 -0.651212 135.359 -2.26937 134.629C-3.88753 133.896 -5.29353 133.238 -6.43703 132.666C-8.73482 131.533 -10.0186 130.796 -10.0186 130.796L-9.85674 130.264C-9.85674 130.264 -8.37882 130.39 -5.8437 130.764C-4.57435 130.947 -3.04968 131.206 -1.30207 131.522C0.44554 131.842 2.40531 132.234 4.53049 132.709C6.65568 133.176 8.94627 133.723 11.3555 134.349C13.7648 134.964 16.2855 135.683 18.8746 136.492C21.4528 137.322 24.0958 138.261 26.7676 139.261C29.4394 140.249 32.1615 141.242 34.8908 142.195C40.3529 144.104 45.8259 145.985 50.9321 147.822C53.4888 148.735 55.9592 149.62 58.2965 150.458C60.6339 151.306 62.8489 152.112 64.8878 152.853C68.9656 154.345 72.3745 155.56 74.7478 156.456C77.1211 157.337 78.4768 157.84 78.4768 157.84L78.3113 158.372Z" fill="#F0CA19"/>
</g>
<path d="M178.386 224.621C178.386 224.621 178.328 225.761 178.227 227.757C178.134 229.756 177.936 232.596 177.735 236.02C177.634 237.724 177.519 239.576 177.4 241.536C177.267 243.492 177.127 245.552 176.983 247.688C176.706 251.956 176.329 256.501 175.976 261.05C175.8 263.322 175.664 265.602 175.545 267.846C175.43 270.093 175.279 272.297 175.049 274.423C174.797 276.54 174.491 278.583 174.121 280.51C173.765 282.441 173.387 284.261 172.999 285.936C172.618 287.612 172.222 289.144 171.841 290.492C171.46 291.848 171.108 293.024 170.784 293.987C170.155 295.922 169.698 297.015 169.698 297.015L169.148 296.947C169.148 296.947 168.964 295.778 168.81 293.753C168.723 292.739 168.659 291.513 168.608 290.107C168.562 288.701 168.54 287.123 168.562 285.404C168.583 283.685 168.644 281.826 168.756 279.87C168.853 277.907 169.04 275.85 169.295 273.729C169.576 271.614 169.946 269.435 170.37 267.227C170.784 265.016 171.194 262.769 171.557 260.521C172.291 256.016 172.999 251.514 173.74 247.296C174.103 245.189 174.459 243.154 174.79 241.219C175.139 239.288 175.466 237.465 175.771 235.782C176.383 232.413 176.865 229.601 177.249 227.638C177.62 225.675 177.835 224.553 177.835 224.553L178.386 224.621Z" fill="#F0CA19"/>
<mask id="mask4_95_3364" style="mask-type:luminance" maskUnits="userSpaceOnUse" x="229" y="0" width="48" height="81">
<path d="M229.117 0.175781H276.985V80.8974H229.117V0.175781Z" fill="white"/>
</mask>
<g mask="url(#mask4_95_3364)">
<path d="M229.728 80.4551C229.728 80.4551 230.379 79.1606 231.519 76.8988C232.652 74.6299 234.32 71.4225 236.301 67.557C237.29 65.6261 238.369 63.5333 239.505 61.3219C240.652 59.1141 241.861 56.7877 243.116 54.3821C245.608 49.5601 248.34 44.4613 251.052 39.3481C252.407 36.7915 253.724 34.217 255.011 31.6747C256.295 29.1253 257.589 26.6406 258.916 24.2746C260.268 21.923 261.627 19.6828 262.976 17.5901C264.317 15.4973 265.622 13.5376 266.867 11.7505C268.1 9.95984 269.269 8.33455 270.337 6.91781C271.397 5.49748 272.343 4.26772 273.152 3.27169C274.756 1.27603 275.752 0.179321 275.752 0.179321L276.234 0.456196C276.234 0.456196 275.795 1.86934 274.878 4.26412C274.429 5.46152 273.846 6.89983 273.156 8.53591C272.473 10.1684 271.66 11.9986 270.739 13.9691C269.822 15.9432 268.794 18.0647 267.661 20.2797C266.539 22.4983 265.292 24.8032 263.943 27.1584C262.577 29.4993 261.084 31.8725 259.535 34.2637C257.988 36.6585 256.431 39.1 254.91 41.5631C251.868 46.4822 248.847 51.4156 245.949 56.0038C244.504 58.3015 243.108 60.5201 241.782 62.6272C240.447 64.7271 239.185 66.7084 238.017 68.5423C235.683 72.2028 233.759 75.2663 232.375 77.3879C230.997 79.5166 230.206 80.7283 230.206 80.7283L229.728 80.4551Z" fill="#F0CA19"/>
</g>
<path d="M89.4696 205.692C89.4696 205.692 88.6102 205.811 87.1071 206.023C85.604 206.243 83.4536 206.491 80.8718 206.822C79.5844 206.987 78.1892 207.163 76.7113 207.35C75.2298 207.526 73.6728 207.706 72.0618 207.9C68.8363 208.289 65.395 208.623 61.9501 208.983C60.2276 209.162 58.5088 209.385 56.8187 209.612C55.1251 209.853 53.4637 210.043 51.8456 210.151C50.2274 210.241 48.656 210.241 47.1673 210.18C45.6822 210.133 44.2726 210.04 42.9673 209.918C41.6656 209.799 40.4645 209.644 39.4037 209.486C38.3429 209.335 37.4152 209.144 36.6529 208.986C35.121 208.663 34.2436 208.386 34.2436 208.386L34.2148 207.828C34.2148 207.828 35.0635 207.465 36.5522 206.994C37.3001 206.764 38.2027 206.484 39.2455 206.232C40.2847 205.966 41.4642 205.696 42.7515 205.455C44.0353 205.207 45.4305 204.977 46.9084 204.783C48.3827 204.578 49.9433 204.427 51.5615 204.362C53.1797 204.305 54.859 204.337 56.5634 204.409C58.2715 204.474 60.0011 204.527 61.7343 204.538C65.1936 204.563 68.6529 204.556 71.9036 204.635C73.5253 204.668 75.0931 204.696 76.5818 204.729C78.0705 204.768 79.4801 204.808 80.7783 204.847C83.3745 204.927 85.5428 204.963 87.0567 205.038C88.5742 205.099 89.4408 205.135 89.4408 205.135L89.4696 205.692Z" fill="#F0CA19"/>
<path d="M106.23 290.891C106.23 290.891 104.763 293.344 102.494 296.957C101.35 298.759 100.02 300.866 98.5671 303.099C97.136 305.35 95.5394 307.694 93.9644 310.06C93.1769 311.243 92.4253 312.452 91.6954 313.649C90.9618 314.843 90.2246 316.011 89.4299 317.072C88.6316 318.133 87.7902 319.107 86.9416 319.992C86.1037 320.884 85.2731 321.7 84.4784 322.43C83.6909 323.163 82.9285 323.807 82.2345 324.364C81.5477 324.922 80.904 325.378 80.3718 325.749C79.3039 326.493 78.617 326.86 78.617 326.86L78.1711 326.522C78.1711 326.522 78.3509 325.763 78.7896 324.537C79.0126 323.926 79.2859 323.185 79.6491 322.379C80.0087 321.563 80.433 320.664 80.94 319.711C81.4398 318.755 82.008 317.741 82.6588 316.702C83.2953 315.655 84.0145 314.591 84.8344 313.545C85.6542 312.498 86.5892 311.488 87.5601 310.474C88.5238 309.46 89.4947 308.417 90.4368 307.349C92.3139 305.22 94.1693 303.074 95.9745 301.11C97.7545 299.126 99.4481 297.299 100.894 295.731C103.799 292.603 105.784 290.553 105.784 290.553L106.23 290.891Z" fill="#F0CA19"/>
<path d="M175.566 40.456C175.566 43.8469 172.815 46.5976 169.424 46.5976C166.03 46.5976 163.279 43.8469 163.279 40.456C163.279 37.0616 166.03 34.3145 169.424 34.3145C172.815 34.3145 175.566 37.0616 175.566 40.456Z" fill="#F0CA19"/>
<path d="M365.2 198.745C365.2 202.14 362.453 204.887 359.058 204.887C355.664 204.887 352.917 202.14 352.917 198.745C352.917 195.351 355.664 192.607 359.058 192.607C362.453 192.607 365.2 195.351 365.2 198.745Z" fill="#F0CA19"/>
<path d="M107.359 353.918C107.359 357.309 104.608 360.056 101.221 360.056C97.8227 360.056 95.0754 357.309 95.0754 353.918C95.0754 350.524 97.8227 347.776 101.221 347.776C104.608 347.776 107.359 350.524 107.359 353.918Z" fill="#F0CA19"/>
<path d="M323.714 328.7C323.714 332.099 320.963 334.846 317.576 334.846C314.178 334.846 311.431 332.099 311.431 328.7C311.431 325.31 314.178 322.562 317.576 322.562C320.963 322.562 323.714 325.31 323.714 328.7Z" fill="#F0CA19"/>
<path d="M12.2797 262.952C12.2797 266.347 9.53244 269.094 6.13791 269.094C2.74696 269.094 -0.00390625 266.347 -0.00390625 262.952C-0.00390625 259.558 2.74696 256.811 6.13791 256.811C9.53244 256.811 12.2797 259.558 12.2797 262.952Z" fill="#F0CA19"/>
<path d="M94.5506 197.606C82.5259 221.913 94.9929 268.615 94.9929 268.615L95.7445 261.298C95.7445 261.298 102.372 279.525 116.917 286.267C131.459 293.009 153.516 292.61 165.052 290.747C176.588 288.885 174.423 286.134 174.423 286.134L169.162 284.228L184.456 280.057L182.999 284.095C182.999 284.095 190.734 281.211 196.48 278.593C197.76 282.276 198.469 285.825 201.119 289.237C204.301 293.318 208.724 292.031 222.471 291.412C220.526 283.649 215.089 286.134 213.363 286.044C211.641 285.958 208.634 276.598 208.724 274.027C208.724 273.671 209.034 272.963 209.519 272.074C213.32 270.388 216.725 269.057 216.855 269.014C216.855 269.057 216.855 269.104 216.855 269.191L212.834 274.868C212.834 274.868 214.471 273.98 216.945 272.65C217.078 274.113 217.387 275.444 217.829 276.465C219.728 280.988 220.127 285.246 223.309 289.327C226.492 293.408 230.911 292.121 244.658 291.499C242.713 283.739 237.276 286.224 235.553 286.134C233.831 286.044 230.825 276.688 230.911 274.113C230.958 272.297 237.851 262.538 241.918 256.861C243.464 255.753 245.942 254.067 245.942 254.067L245.101 259.212C245.101 259.212 252.131 252.736 257.521 242.668C262.872 232.647 262.206 230.471 263.181 218.807C264.152 207.099 272.505 202.352 272.505 202.352L270.739 208.562C270.739 208.562 276.795 201.378 283.735 197.473C290.675 193.528 293.282 195.301 297.259 184.611C301.193 173.924 297.745 163.014 289.125 156.405C281.038 150.195 251.641 141.325 235.201 141.857C234.093 141.9 233.079 141.947 232.105 142.08C216.592 144.029 201.917 154.762 194.003 162.525C184.146 169.976 157.846 160.22 157.846 160.22L163.459 164.521C163.459 164.521 149.978 163.367 133.537 164.744C117.093 166.118 108.341 172.194 108.341 172.194L120.628 169.886C120.452 169.8 106.572 173.345 94.5506 197.606Z" fill="#956B3A"/>
<path d="M224.104 146.423C224.104 146.423 224.37 134.583 216.635 135.694C208.9 136.801 209.429 147.445 214.956 151.436C223.662 148.908 224.104 146.423 224.104 146.423Z" fill="#956B3A"/>
<mask id="mask5_95_3364" style="mask-type:luminance" maskUnits="userSpaceOnUse" x="238" y="132" width="11" height="14">
<path d="M238.322 132.749H248.448V145.334H238.322V132.749Z" fill="white"/>
</mask>
<g mask="url(#mask5_95_3364)">
<path d="M246.56 144.694C248.592 138.886 249.962 132.763 243.511 132.896C237.056 133.076 238.649 143.097 238.649 143.097C238.649 143.097 241.742 145.05 246.56 144.694Z" fill="#956B3A"/>
</g>
<path d="M217.653 138.308C211.421 139.904 212.834 145.406 215.089 148.642C217.786 147.711 221.939 146.959 221.939 146.959C221.939 146.959 223.928 136.711 217.653 138.308Z" fill="#604525"/>
<path d="M293.811 170.997C293.811 170.997 293.501 168.379 290.143 169.886C286.784 171.439 287.004 173.748 289.258 174.722C291.513 175.697 293.901 174.855 293.811 170.997Z" fill="#3E2D18"/>
<path d="M255.004 157.868C251.023 153.165 245.456 152.766 243.464 154.719C241.523 156.624 243.997 162.881 255.004 157.868Z" fill="#3E2D18"/>
<path d="M249.434 155.56C249.434 155.56 247.445 153.877 246.161 155.028C244.924 156.139 248.592 157.646 249.434 155.56Z" fill="white"/>
<path d="M276.748 189.979C277.633 190.867 284.22 194.369 287.313 193.215C280.553 190.554 277.014 189.623 276.13 187.494L274.626 190.734C274.673 190.734 275.867 189.091 276.748 189.979Z" fill="#3E2D18"/>
<path d="M104.231 271.186C102.904 269.191 94.0183 248.346 92.206 234.33C91.4113 228.343 90.5267 222.179 89.7751 216.678C87.5672 240.629 94.9928 268.658 94.9928 268.658L95.7443 261.341C95.7443 261.341 102.372 279.568 116.917 286.31C131.459 293.052 153.516 292.653 165.052 290.79C176.588 288.928 174.423 286.177 174.423 286.177L169.162 284.271L184.455 280.1L182.999 284.138C182.999 284.138 190.734 281.254 196.48 278.637C197.76 282.319 198.469 285.868 201.119 289.284C204.301 293.361 208.724 292.078 222.471 291.456C220.526 283.696 215.089 286.177 213.363 286.091C211.64 286.001 208.634 276.641 208.724 274.07C208.724 273.714 209.033 273.006 209.519 272.118C213.32 270.435 216.725 269.104 216.855 269.058C216.855 269.104 216.855 269.147 216.855 269.237L212.834 274.912C212.834 274.912 214.47 274.027 216.944 272.697C217.077 274.16 217.387 275.49 217.829 276.508C219.728 281.032 220.127 285.293 223.309 289.37C226.492 293.451 230.911 292.164 244.658 291.546C242.713 283.782 237.276 286.267 235.553 286.177C233.831 286.091 230.825 276.731 230.911 274.16C230.958 272.341 237.851 262.582 241.918 256.907C243.464 255.796 245.942 254.11 245.942 254.11L245.1 259.256C245.1 259.256 252.174 252.78 257.521 242.715C262.871 232.69 262.206 230.518 263.181 218.853C264.152 207.142 272.505 202.399 272.505 202.399L270.739 208.605C270.739 208.605 276.795 201.421 283.735 197.52C290.053 193.927 292.84 194.992 296.288 187.009C292.264 186.473 287.137 185.589 282.408 184.258C280.02 183.593 277.679 183.327 275.511 183.37C274.806 183.37 274.098 183.413 273.436 183.503L281.613 185.01C281.613 185.01 275.777 184.391 271.624 186.872C267.467 189.357 259.29 197.653 259.29 197.653L266.715 195.923C266.715 195.923 259.865 200.846 256.197 205.678C252.573 210.515 244.748 222.978 241.832 229.72C244.924 227.102 247.531 224.218 247.531 224.218C247.531 224.218 248.33 229.63 242.274 236.548C236.262 243.466 229.145 247.371 229.145 247.371L235.643 246.882C235.643 246.882 238.516 249.187 227.729 253.135C216.944 257.127 208.811 260.985 208.811 260.985L216.15 261.83C216.15 261.83 211.73 264.491 204.833 266.174C197.936 267.907 183.085 268.881 183.085 268.881L190.202 272.43C190.202 272.43 188.037 275.401 178.533 276.731C169.029 278.061 156.256 276.555 156.256 276.555L163.416 281.744C163.416 281.744 136.763 283.383 128.762 275.577C120.804 267.774 129.247 282.542 129.247 282.542C129.247 282.542 109.578 276.864 102.462 258.414C102.152 267.418 105.601 273.182 104.231 271.186Z" fill="#6A4D29" fill-opacity="0.78"/>
<path d="M168.367 234.462C159.615 231.625 156.033 235.307 156.033 235.307C156.033 235.307 165.185 236.282 173.715 243.599C182.291 250.917 179.461 258.015 179.461 258.015L174.865 252.247C174.865 252.247 178.224 261.341 175.75 270.701C173.272 280.1 167.925 281.61 167.925 281.61L184.369 278.637C184.369 278.637 187.019 264.444 185.34 258.281C183.618 252.114 179.684 245.063 179.684 245.063L185.074 247.903C185.121 247.903 177.12 237.303 168.367 234.462Z" fill="#74532D"/>
<path d="M67.7258 341.771H69.4662C71.0952 341.771 72.3142 341.451 73.1197 340.807C73.9251 340.167 74.3279 339.225 74.3279 337.988C74.3279 336.751 73.9863 335.837 73.3066 335.241C72.6342 334.647 71.5734 334.349 70.1279 334.349H67.7258V341.771ZM79.6786 337.801C79.6786 340.498 78.8372 342.554 77.1615 343.971C75.4822 345.391 73.0945 346.1 69.9984 346.1H67.7258V354.989H62.4326V330.02H70.4012C73.4289 330.02 75.7303 330.674 77.3053 331.976C78.8875 333.281 79.6786 335.223 79.6786 337.801Z" fill="#956B3A"/>
<path d="M96.1097 354.989L95.1028 352.386H94.9734C94.0888 353.5 93.1826 354.27 92.2549 354.701C91.3343 355.122 90.1261 355.334 88.6302 355.334C86.7963 355.334 85.3543 354.813 84.3007 353.767C83.2435 352.713 82.7185 351.217 82.7185 349.279C82.7185 347.258 83.4269 345.766 84.8473 344.806C86.2641 343.839 88.4036 343.306 91.2624 343.209L94.5706 343.094V342.26C94.5706 340.326 93.5817 339.355 91.6076 339.355C90.0829 339.355 88.2886 339.822 86.2281 340.75L84.5021 337.226C86.6956 336.075 89.1336 335.5 91.809 335.5C94.3693 335.5 96.329 336.061 97.6919 337.183C99.0619 338.298 99.7487 339.988 99.7487 342.26V354.989H96.1097ZM94.5706 346.144L92.5569 346.215C91.0394 346.255 89.9139 346.528 89.1768 347.035C88.436 347.535 88.0692 348.297 88.0692 349.322C88.0692 350.789 88.9107 351.523 90.6007 351.523C91.7982 351.523 92.7583 351.178 93.4775 350.487C94.2038 349.79 94.5706 348.862 94.5706 347.711V346.144Z" fill="#956B3A"/>
<path d="M115.774 335.528C116.483 335.528 117.069 335.582 117.529 335.687L117.141 340.577C116.716 340.462 116.206 340.404 115.602 340.404C113.94 340.404 112.646 340.832 111.718 341.684C110.787 342.54 110.323 343.734 110.323 345.266V354.989H105.116V335.888H109.057L109.834 339.11H110.093C110.675 338.038 111.474 337.175 112.48 336.521C113.494 335.859 114.595 335.528 115.774 335.528Z" fill="#956B3A"/>
<path d="M133.128 354.989L132.122 352.386H131.992C131.108 353.5 130.201 354.27 129.274 354.701C128.353 355.122 127.145 355.334 125.649 355.334C123.815 355.334 122.373 354.813 121.32 353.767C120.262 352.713 119.737 351.217 119.737 349.279C119.737 347.258 120.446 345.766 121.866 344.806C123.283 343.839 125.422 343.306 128.281 343.209L131.589 343.094V342.26C131.589 340.326 130.601 339.355 128.626 339.355C127.102 339.355 125.307 339.822 123.247 340.75L121.521 337.226C123.714 336.075 126.152 335.5 128.828 335.5C131.388 335.5 133.348 336.061 134.711 337.183C136.081 338.298 136.768 339.988 136.768 342.26V354.989H133.128ZM131.589 346.144L129.576 346.215C128.058 346.255 126.933 346.528 126.196 347.035C125.455 347.535 125.088 348.297 125.088 349.322C125.088 350.789 125.929 351.523 127.62 351.523C128.817 351.523 129.777 351.178 130.496 350.487C131.223 349.79 131.589 348.862 131.589 347.711V346.144Z" fill="#956B3A"/>
<path d="M152.764 335.529C155.015 335.529 156.781 336.413 158.057 338.175C159.33 339.93 159.97 342.343 159.97 345.41C159.97 348.567 159.309 351.012 157.986 352.745C156.669 354.471 154.882 355.334 152.62 355.334C150.377 355.334 148.615 354.522 147.342 352.889H146.982L146.119 354.989H142.135V328.409H147.342V334.594C147.342 335.381 147.273 336.644 147.14 338.377H147.342C148.557 336.478 150.366 335.529 152.764 335.529ZM151.081 339.7C149.794 339.7 148.856 340.099 148.262 340.894C147.676 341.681 147.37 342.986 147.342 344.806V345.367C147.342 347.42 147.644 348.891 148.248 349.782C148.859 350.667 149.83 351.106 151.153 351.106C152.225 351.106 153.074 350.617 153.699 349.639C154.332 348.653 154.649 347.219 154.649 345.338C154.649 343.461 154.325 342.052 153.685 341.109C153.052 340.171 152.182 339.7 151.081 339.7Z" fill="#956B3A"/>
<path d="M172.185 339.24C171.081 339.24 170.215 339.592 169.582 340.29C168.956 340.991 168.604 341.983 168.517 343.267H175.824C175.795 341.983 175.454 340.991 174.803 340.29C174.159 339.592 173.286 339.24 172.185 339.24ZM172.919 355.334C169.841 355.334 167.431 354.486 165.698 352.788C163.972 351.091 163.109 348.689 163.109 345.583C163.109 342.382 163.907 339.908 165.511 338.161C167.111 336.406 169.323 335.529 172.142 335.529C174.846 335.529 176.946 336.302 178.442 337.844C179.945 339.38 180.7 341.505 180.7 344.216V346.733H168.388C168.445 348.222 168.881 349.38 169.697 350.214C170.52 351.041 171.675 351.451 173.163 351.451C174.303 351.451 175.386 351.332 176.414 351.091C177.439 350.854 178.514 350.473 179.636 349.955V353.982C178.723 354.435 177.744 354.77 176.702 354.989C175.666 355.219 174.404 355.334 172.919 355.334ZM169.179 333.788V333.328C171.142 331.056 172.48 329.344 173.192 328.193H179.032V328.553C178.446 329.139 177.439 330.016 176.011 331.185C174.58 332.357 173.458 333.224 172.645 333.788H169.179Z" fill="#956B3A"/>
<path d="M202.579 354.989H197.358V343.842C197.358 342.461 197.113 341.425 196.624 340.735C196.135 340.045 195.358 339.699 194.294 339.699C192.834 339.699 191.78 340.188 191.13 341.166C190.475 342.137 190.151 343.748 190.151 345.999V354.989H184.945V335.888H188.929L189.619 338.333H189.921C190.497 337.413 191.291 336.719 192.309 336.247C193.334 335.769 194.495 335.528 195.79 335.528C198.012 335.528 199.702 336.132 200.853 337.341C202.004 338.542 202.579 340.271 202.579 342.533V354.989Z" fill="#956B3A"/>
<path d="M221.258 349.322C221.258 351.278 220.574 352.77 219.215 353.795C217.852 354.823 215.821 355.334 213.116 355.334C211.725 355.334 210.542 355.237 209.564 355.046C208.586 354.866 207.669 354.593 206.816 354.226V349.911C207.784 350.372 208.873 350.756 210.081 351.062C211.297 351.371 212.368 351.522 213.289 351.522C215.177 351.522 216.123 350.976 216.123 349.883C216.123 349.473 215.997 349.142 215.749 348.89C215.497 348.631 215.062 348.34 214.44 348.013C213.825 347.689 213.005 347.308 211.98 346.877C210.513 346.265 209.434 345.697 208.744 345.179C208.061 344.654 207.564 344.05 207.248 343.367C206.931 342.688 206.773 341.853 206.773 340.864C206.773 339.167 207.428 337.855 208.744 336.923C210.067 335.996 211.93 335.528 214.339 335.528C216.64 335.528 218.877 336.032 221.056 337.039L219.488 340.793C218.528 340.383 217.633 340.045 216.799 339.786C215.972 339.527 215.123 339.397 214.253 339.397C212.717 339.397 211.951 339.811 211.951 340.634C211.951 341.105 212.196 341.512 212.685 341.857C213.181 342.195 214.271 342.698 215.95 343.367C217.446 343.971 218.539 344.539 219.229 345.064C219.92 345.593 220.427 346.197 220.754 346.877C221.089 347.56 221.258 348.372 221.258 349.322Z" fill="#956B3A"/>
<path d="M229.701 346.704H225.53L224.667 330.02H230.579L229.701 346.704ZM224.595 352.543C224.595 351.587 224.847 350.861 225.358 350.372C225.875 349.883 226.623 349.638 227.601 349.638C228.551 349.638 229.284 349.893 229.802 350.4C230.32 350.9 230.579 351.616 230.579 352.543C230.579 353.446 230.313 354.154 229.788 354.672C229.259 355.19 228.529 355.449 227.601 355.449C226.641 355.449 225.897 355.194 225.372 354.687C224.854 354.18 224.595 353.464 224.595 352.543Z" fill="#956B3A"/>
<path d="M259.084 330.02H264.435L255.934 354.989H250.167L241.695 330.02H247.045L251.734 344.877C252 345.751 252.274 346.772 252.554 347.941C252.831 349.113 253.004 349.922 253.072 350.372C253.194 349.329 253.622 347.495 254.352 344.877L259.084 330.02Z" fill="#956B3A"/>
<path d="M271.322 345.41C271.322 347.301 271.627 348.728 272.242 349.696C272.864 350.667 273.875 351.148 275.277 351.148C276.665 351.148 277.665 350.67 278.269 349.71C278.88 348.743 279.19 347.308 279.19 345.41C279.19 343.522 278.88 342.109 278.269 341.167C277.654 340.217 276.647 339.743 275.248 339.743C273.857 339.743 272.854 340.214 272.242 341.152C271.627 342.083 271.322 343.504 271.322 345.41ZM284.526 345.41C284.526 348.516 283.706 350.947 282.066 352.702C280.427 354.456 278.14 355.334 275.205 355.334C273.371 355.334 271.757 354.931 270.358 354.126C268.956 353.32 267.877 352.17 267.122 350.674C266.374 349.171 266 347.416 266 345.41C266 342.285 266.812 339.858 268.445 338.132C270.074 336.398 272.361 335.528 275.306 335.528C277.147 335.528 278.765 335.931 280.168 336.737C281.566 337.535 282.642 338.678 283.39 340.174C284.145 341.663 284.526 343.407 284.526 345.41Z" fill="#956B3A"/>
<path d="M296.579 355.334C290.631 355.334 287.661 352.069 287.661 345.539C287.661 342.299 288.47 339.822 290.092 338.103C291.71 336.388 294.026 335.528 297.039 335.528C299.254 335.528 301.232 335.967 302.979 336.837L301.455 340.864C300.628 340.53 299.862 340.26 299.153 340.059C298.452 339.85 297.747 339.743 297.039 339.743C294.335 339.743 292.983 341.666 292.983 345.51C292.983 349.243 294.335 351.105 297.039 351.105C298.046 351.105 298.974 350.976 299.829 350.717C300.682 350.451 301.534 350.026 302.39 349.451V353.91C301.545 354.449 300.692 354.816 299.829 355.017C298.974 355.226 297.891 355.334 296.579 355.334Z" fill="#956B3A"/>
<path d="M314.725 339.24C313.622 339.24 312.755 339.592 312.122 340.29C311.496 340.991 311.144 341.983 311.058 343.267H318.365C318.336 341.983 317.994 340.991 317.343 340.29C316.7 339.592 315.826 339.24 314.725 339.24ZM315.459 355.334C312.381 355.334 309.972 354.486 308.238 352.788C306.512 351.091 305.649 348.689 305.649 345.583C305.649 342.382 306.448 339.908 308.051 338.161C309.652 336.406 311.863 335.529 314.682 335.529C317.386 335.529 319.486 336.302 320.982 337.844C322.485 339.38 323.241 341.505 323.241 344.216V346.733H310.928C310.986 348.222 311.421 349.38 312.237 350.214C313.061 351.041 314.215 351.451 315.704 351.451C316.843 351.451 317.926 351.332 318.954 351.091C319.979 350.854 321.054 350.473 322.176 349.955V353.982C321.263 354.435 320.285 354.77 319.242 354.989C318.206 355.219 316.944 355.334 315.459 355.334ZM318.782 333.788C316.987 332.735 315.653 331.732 314.783 330.782C313.891 331.703 312.586 332.706 310.871 333.788H307.404V333.328C309.551 331.181 311.007 329.47 311.777 328.193H317.876C318.228 328.79 318.839 329.596 319.702 330.61C320.572 331.627 321.421 332.533 322.248 333.328V333.788H318.782Z" fill="#956B3A"/>
<path d="M108.932 404.195C102.985 404.195 100.014 400.93 100.014 394.4C100.014 391.16 100.823 388.683 102.445 386.964C104.063 385.249 106.379 384.39 109.393 384.39C111.608 384.39 113.585 384.828 115.333 385.699L113.808 389.726C112.981 389.391 112.215 389.122 111.507 388.92C110.806 388.712 110.101 388.604 109.393 388.604C106.688 388.604 105.336 390.528 105.336 394.372C105.336 398.104 106.688 399.967 109.393 399.967C110.399 399.967 111.327 399.837 112.183 399.578C113.035 399.312 113.887 398.888 114.743 398.312V402.771C113.898 403.311 113.046 403.677 112.183 403.879C111.327 404.087 110.245 404.195 108.932 404.195Z" fill="#956B3A"/>
<path d="M123.325 394.271C123.325 396.162 123.63 397.59 124.245 398.557C124.867 399.528 125.878 400.01 127.28 400.01C128.668 400.01 129.668 399.531 130.272 398.571C130.883 397.604 131.192 396.169 131.192 394.271C131.192 392.383 130.883 390.97 130.272 390.028C129.657 389.079 128.65 388.604 127.251 388.604C125.86 388.604 124.856 389.075 124.245 390.013C123.63 390.945 123.325 392.365 123.325 394.271ZM136.529 394.271C136.529 397.378 135.709 399.808 134.069 401.563C132.429 403.318 130.142 404.195 127.208 404.195C125.374 404.195 123.76 403.792 122.361 402.987C120.959 402.182 119.88 401.031 119.125 399.535C118.377 398.032 118.003 396.277 118.003 394.271C118.003 391.146 118.815 388.719 120.448 386.993C122.077 385.26 124.364 384.39 127.309 384.39C129.15 384.39 130.768 384.792 132.171 385.598C133.569 386.396 134.645 387.54 135.392 389.035C136.148 390.524 136.529 392.268 136.529 394.271Z" fill="#956B3A"/>
<path d="M158.463 403.85H153.242V392.703C153.242 391.322 152.998 390.287 152.509 389.596C152.02 388.906 151.243 388.561 150.178 388.561C148.719 388.561 147.665 389.05 147.014 390.028C146.36 390.999 146.036 392.61 146.036 394.861V403.85H140.829V384.749H144.813L145.504 387.194H145.806C146.381 386.274 147.176 385.58 148.194 385.109C149.218 384.631 150.38 384.39 151.674 384.39C153.897 384.39 155.587 384.994 156.737 386.202C157.888 387.403 158.463 389.132 158.463 391.394V403.85Z" fill="#956B3A"/>
<path d="M177.142 398.183C177.142 400.139 176.459 401.631 175.099 402.656C173.736 403.685 171.705 404.195 169.001 404.195C167.609 404.195 166.426 404.098 165.448 403.908C164.47 403.728 163.553 403.454 162.701 403.088V398.773C163.668 399.233 164.757 399.618 165.966 399.923C167.181 400.233 168.253 400.384 169.173 400.384C171.061 400.384 172.007 399.837 172.007 398.744C172.007 398.334 171.881 398.003 171.633 397.752C171.381 397.493 170.946 397.201 170.324 396.874C169.709 396.551 168.889 396.169 167.864 395.738C166.397 395.127 165.318 394.559 164.628 394.041C163.945 393.516 163.449 392.912 163.132 392.228C162.816 391.549 162.657 390.715 162.657 389.726C162.657 388.029 163.312 386.716 164.628 385.785C165.951 384.857 167.814 384.39 170.223 384.39C172.525 384.39 174.761 384.893 176.94 385.9L175.373 389.654C174.412 389.244 173.517 388.906 172.683 388.647C171.856 388.388 171.007 388.259 170.137 388.259C168.602 388.259 167.836 388.672 167.836 389.496C167.836 389.967 168.08 390.373 168.569 390.718C169.065 391.056 170.155 391.56 171.834 392.228C173.33 392.833 174.423 393.401 175.114 393.926C175.804 394.454 176.311 395.058 176.638 395.738C176.973 396.421 177.142 397.234 177.142 398.183Z" fill="#956B3A"/>
<path d="M189.124 388.1C188.02 388.1 187.154 388.453 186.521 389.15C185.895 389.852 185.543 390.844 185.456 392.128H192.763C192.734 390.844 192.393 389.852 191.742 389.15C191.098 388.453 190.225 388.1 189.124 388.1ZM189.858 404.195C186.78 404.195 184.37 403.347 182.637 401.649C180.911 399.952 180.048 397.55 180.048 394.443C180.048 391.243 180.846 388.769 182.45 387.022C184.05 385.267 186.262 384.39 189.081 384.39C191.785 384.39 193.885 385.163 195.381 386.705C196.884 388.241 197.639 390.366 197.639 393.077V395.594H185.327C185.384 397.083 185.82 398.241 186.636 399.075C187.459 399.902 188.614 400.312 190.102 400.312C191.242 400.312 192.325 400.193 193.353 399.952C194.378 399.715 195.453 399.334 196.575 398.816V402.843C195.662 403.296 194.683 403.631 193.641 403.85C192.605 404.08 191.343 404.195 189.858 404.195Z" fill="#956B3A"/>
<path d="M218.497 384.749V387.396L215.519 388.172C216.066 389.028 216.339 389.981 216.339 391.035C216.339 393.088 215.623 394.688 214.196 395.839C212.765 396.982 210.78 397.55 208.241 397.55L207.292 397.493L206.529 397.406C205.99 397.82 205.724 398.277 205.724 398.773C205.724 399.531 206.68 399.909 208.601 399.909H211.837C213.937 399.909 215.533 400.362 216.627 401.261C217.727 402.153 218.281 403.472 218.281 405.216C218.281 407.449 217.349 409.179 215.49 410.409C213.628 411.635 210.952 412.25 207.464 412.25C204.796 412.25 202.761 411.782 201.351 410.855C199.949 409.934 199.251 408.632 199.251 406.957C199.251 405.806 199.611 404.842 200.33 404.066C201.049 403.3 202.103 402.75 203.494 402.412C202.955 402.182 202.488 401.808 202.085 401.29C201.689 400.772 201.495 400.225 201.495 399.65C201.495 398.924 201.704 398.32 202.128 397.838C202.549 397.349 203.156 396.871 203.955 396.4C202.948 395.968 202.15 395.278 201.567 394.328C200.981 393.372 200.69 392.239 200.69 390.934C200.69 388.856 201.366 387.245 202.718 386.101C204.077 384.961 206.015 384.39 208.529 384.39C209.064 384.39 209.697 384.444 210.427 384.548C211.164 384.645 211.636 384.713 211.837 384.749H218.497ZM203.768 406.554C203.768 407.262 204.106 407.823 204.789 408.237C205.479 408.647 206.447 408.855 207.694 408.855C209.564 408.855 211.024 408.596 212.081 408.079C213.135 407.568 213.664 406.87 213.664 405.979C213.664 405.267 213.351 404.774 212.729 404.497C212.103 404.228 211.136 404.095 209.823 404.095H207.133C206.173 404.095 205.371 404.314 204.731 404.756C204.088 405.206 203.768 405.806 203.768 406.554ZM205.652 391.006C205.652 392.041 205.886 392.861 206.357 393.465C206.835 394.069 207.558 394.372 208.529 394.372C209.507 394.372 210.219 394.069 210.672 393.465C211.132 392.861 211.362 392.041 211.362 391.006C211.362 388.705 210.417 387.554 208.529 387.554C206.608 387.554 205.652 388.705 205.652 391.006Z" fill="#956B3A"/>
<path d="M235.184 403.85L234.479 401.405H234.205C233.648 402.297 232.857 402.987 231.832 403.476C230.804 403.955 229.635 404.195 228.323 404.195C226.079 404.195 224.385 403.599 223.245 402.398C222.112 401.189 221.548 399.46 221.548 397.205V384.75H226.755V395.911C226.755 397.284 226.999 398.313 227.488 399.003C227.977 399.694 228.758 400.039 229.833 400.039C231.289 400.039 232.339 399.557 232.983 398.586C233.634 397.608 233.961 395.994 233.961 393.739V384.75H239.168V403.85H235.184Z" fill="#956B3A"/>
<path d="M244.426 379.816C244.426 378.119 245.368 377.27 247.26 377.27C249.148 377.27 250.093 378.119 250.093 379.816C250.093 380.621 249.852 381.251 249.374 381.7C248.903 382.153 248.198 382.376 247.26 382.376C245.368 382.376 244.426 381.524 244.426 379.816ZM249.849 403.85H244.642V384.749H249.849V403.85Z" fill="#956B3A"/>
<path d="M268.854 403.85L268.149 401.405H267.876C267.318 402.297 266.527 402.987 265.503 403.476C264.474 403.955 263.305 404.195 261.993 404.195C259.749 404.195 258.055 403.599 256.916 402.398C255.783 401.189 255.218 399.46 255.218 397.205V384.75H260.425V395.911C260.425 397.284 260.67 398.313 261.159 399.003C261.648 399.694 262.428 400.039 263.503 400.039C264.96 400.039 266.01 399.557 266.653 398.586C267.304 397.608 267.631 395.994 267.631 393.739V384.75H272.838V403.85H268.854Z" fill="#956B3A"/>
<path d="M282.685 395.566H278.514L277.651 378.881H283.563L282.685 395.566ZM277.579 401.405C277.579 400.449 277.831 399.722 278.341 399.233C278.859 398.744 279.607 398.5 280.585 398.5C281.535 398.5 282.268 398.755 282.786 399.262C283.304 399.762 283.563 400.478 283.563 401.405C283.563 402.308 283.297 403.016 282.772 403.534C282.243 404.052 281.513 404.311 280.585 404.311C279.625 404.311 278.881 404.055 278.356 403.548C277.838 403.041 277.579 402.326 277.579 401.405Z" fill="#956B3A"/>
</g>
<defs>
<clipPath id="clip0_95_3364">
<rect width="389" height="427" fill="white"/>
</clipPath>
</defs>
</svg>
