<svg width="358" height="248" viewBox="0 0 358 248" fill="none" xmlns="http://www.w3.org/2000/svg">
<g clip-path="url(#clip0_160_1689)">
<path d="M289.266 26.4053C274.037 26.4053 261.723 38.7582 261.723 53.9708C261.723 64.9259 268.107 74.3872 277.38 78.831V88.2631H301.185V78.831C310.426 74.3872 316.842 64.9259 316.842 53.9708C316.81 38.7582 304.467 26.4053 289.266 26.4053Z" fill="#F0CA19"/>
<path d="M277.348 88.292V98.059C277.348 101.254 279.935 103.839 283.127 103.839H295.377C298.569 103.839 301.153 101.254 301.153 98.059V88.292H277.348Z" fill="#52D5F2"/>
<mask id="mask0_160_1689" style="mask-type:luminance" maskUnits="userSpaceOnUse" x="235" y="0" width="109" height="105">
<path d="M235.395 0.292969H343.123V104.661H235.395V0.292969Z" fill="white"/>
</mask>
<g mask="url(#mask0_160_1689)">
<path d="M289.266 25.4943C273.58 25.4943 260.809 38.2724 260.809 53.9713C260.809 64.6818 266.922 74.6003 276.466 79.4081V98.2723C276.466 101.773 279.327 104.632 282.821 104.632H295.773C299.27 104.632 302.127 101.773 302.127 98.2723V79.4401C311.642 74.6323 317.785 64.7138 317.785 54.0033C317.724 38.2724 304.956 25.4943 289.266 25.4943ZM283.307 60.3021C279.111 59.8128 277.075 58.5374 277.075 55.4011C277.075 52.6346 278.564 51.3562 279.935 51.3562C280.755 51.3562 281.544 51.7814 282.152 52.5123C282.911 53.4558 283.307 54.8536 283.307 56.5572V60.3021ZM289.266 62.3696C290.695 62.3696 292.095 62.3405 293.372 62.2794V87.3813H285.132V62.2794C286.438 62.3405 287.838 62.3696 289.266 62.3696ZM300.242 89.2042V92.1861H278.262V89.2042H300.242ZM278.262 94.012H300.242V96.994H278.262V94.012ZM295.743 102.774H282.792C280.482 102.774 278.596 101.042 278.291 98.8198H300.213C299.939 101.042 298.054 102.774 295.743 102.774ZM300.76 78.0074C300.454 78.1617 300.242 78.4966 300.242 78.8315V87.3492H295.196V62.125C299.939 61.6096 303.251 60.0575 303.251 55.372C303.251 51.5368 300.879 49.4984 298.569 49.4984C297.201 49.4984 295.863 50.1681 294.923 51.3562C293.919 52.6346 293.372 54.4285 293.372 56.528V60.4215C292.156 60.4826 290.756 60.5147 289.266 60.5147C287.777 60.5147 286.38 60.4826 285.164 60.4215V56.528C285.164 54.4285 284.617 52.6346 283.613 51.3562C282.67 50.1681 281.332 49.4984 279.964 49.4984C277.622 49.4984 275.282 51.5077 275.282 55.372C275.282 60.0575 278.596 61.6096 283.339 62.125V87.3813H278.262V78.8606C278.262 78.4966 278.049 78.1908 277.744 78.0394C268.564 73.6276 262.604 64.1955 262.604 54.0033C262.604 39.3062 274.552 27.3493 289.237 27.3493C303.92 27.3493 315.867 39.3062 315.867 54.0033C315.899 64.1635 309.972 73.5956 300.76 78.0074ZM295.196 60.3021V56.5572C295.196 54.8536 295.589 53.4558 296.352 52.5123C296.96 51.7523 297.748 51.3562 298.569 51.3562C299.939 51.3562 301.429 52.6346 301.429 55.4011C301.429 58.5374 299.421 59.8128 295.196 60.3021ZM290.18 1.27474V17.1862C290.18 17.7045 289.784 18.1006 289.266 18.1006C288.751 18.1006 288.356 17.7045 288.356 17.1862V1.27474C288.356 0.756391 288.751 0.360352 289.266 0.360352C289.784 0.360352 290.18 0.756391 290.18 1.27474ZM252.449 54.3382H236.306C235.788 54.3382 235.395 53.9421 235.395 53.4238C235.395 52.9084 235.788 52.5123 236.306 52.5123H252.449C252.967 52.5123 253.363 52.9084 253.363 53.4238C253.363 53.9421 252.967 54.3382 252.449 54.3382ZM343.14 53.4238C343.14 53.9421 342.745 54.3382 342.227 54.3382H326.083C325.568 54.3382 325.173 53.9421 325.173 53.4238C325.173 52.9084 325.568 52.5123 326.083 52.5123H342.227C342.713 52.5123 343.14 52.9084 343.14 53.4238ZM263.882 27.1367C264.245 27.5007 264.245 28.0802 263.882 28.4151C263.698 28.5956 263.454 28.6888 263.242 28.6888C263 28.6888 262.788 28.5956 262.604 28.4151L251.172 17.1571C250.808 16.7902 250.808 16.2136 251.172 15.8787C251.539 15.5147 252.115 15.5147 252.449 15.8787L263.882 27.1367ZM327.361 89.6614C327.724 90.0283 327.724 90.6049 327.361 90.9398C327.177 91.1233 326.936 91.2135 326.723 91.2135C326.479 91.2135 326.267 91.1233 326.083 90.9398L314.654 79.6818C314.287 79.3178 314.287 78.7383 314.654 78.4034C315.018 78.0394 315.594 78.0394 315.928 78.4034L327.361 89.6614ZM263.882 78.4034C264.245 78.7703 264.216 79.3469 263.882 79.6818L252.449 90.9398C252.266 91.1233 252.054 91.2135 251.812 91.2135C251.568 91.2135 251.326 91.1233 251.172 90.9398C250.808 90.5758 250.837 89.9963 251.172 89.6614L262.604 78.4034C262.968 78.0394 263.547 78.0394 263.882 78.4034ZM314.622 28.4442C314.258 28.0802 314.287 27.5007 314.622 27.1658L326.054 15.9078C326.418 15.5438 326.997 15.5729 327.332 15.9078C327.695 16.2747 327.663 16.8513 327.332 17.1862L315.899 28.4442C315.716 28.6277 315.504 28.7179 315.262 28.7179C315.047 28.7179 314.805 28.6277 314.622 28.4442ZM275.98 19.5304C276.164 19.9847 275.951 20.5322 275.495 20.7156C275.372 20.7768 275.25 20.7768 275.131 20.7768C274.764 20.7768 274.43 20.5642 274.278 20.2293L271.392 13.3831C271.209 12.9259 271.421 12.3784 271.878 12.1979C272.332 12.0144 272.879 12.227 273.062 12.6842L275.98 19.5304ZM255.551 68.1501L248.588 70.9806C248.466 71.0417 248.347 71.0417 248.254 71.0417C247.89 71.0417 247.555 70.8291 247.404 70.4622C247.221 70.0079 247.433 69.4576 247.89 69.277L254.853 66.4465C255.307 66.263 255.854 66.4785 256.037 66.9328C256.22 67.4512 256.008 67.9666 255.551 68.1501ZM322.982 38.6975L329.945 35.867C330.401 35.6865 330.948 35.8991 331.132 36.3563C331.312 36.8105 331.1 37.358 330.643 37.5415L323.683 40.372C323.561 40.4331 323.438 40.4331 323.348 40.4331C322.982 40.4331 322.647 40.2205 322.496 39.8536C322.283 39.3964 322.528 38.881 322.982 38.6975ZM307.083 13.3831L304.193 20.2293C304.042 20.5642 303.707 20.7768 303.344 20.7768C303.221 20.7768 303.099 20.7476 302.977 20.7156C302.523 20.5322 302.311 19.9847 302.491 19.5304L305.381 12.6842C305.561 12.227 306.111 12.0144 306.565 12.1979C307.083 12.3784 307.295 12.8967 307.083 13.3831ZM247.404 36.3563C247.584 35.8991 248.134 35.6544 248.588 35.867L255.551 38.6975C256.008 38.881 256.25 39.4285 256.037 39.8857C255.886 40.2497 255.551 40.4622 255.187 40.4622C255.065 40.4622 254.943 40.4331 254.853 40.4011L247.89 37.5735C247.433 37.3289 247.191 36.8105 247.404 36.3563ZM331.132 70.4943C330.978 70.8583 330.643 71.0708 330.279 71.0708C330.157 71.0708 330.035 71.0417 329.945 71.0097L322.982 68.1821C322.528 67.9986 322.283 67.4512 322.496 66.994C322.679 66.5368 323.226 66.2951 323.683 66.5077L330.643 69.3382C331.1 69.5187 331.312 70.0371 331.132 70.4943Z" fill="#3F3F3F"/>
</g>
<path d="M49.9764 127.941H12.2661V54.8369H49.0802V62.4898H20.4832V86.3686H46.2635V94.0332H20.4832V120.277H49.9764V127.941Z" fill="#F0CA19"/>
<path d="M75.7487 72.2979C77.4015 72.2979 79.2404 72.4843 81.2656 72.857C83.2908 73.2298 85.0512 73.9257 86.5497 74.942C88.054 75.9525 88.8077 77.3969 88.8077 79.2752H89.0288C88.9502 76.2001 88.892 73.4977 88.8542 71.168C88.8222 68.8384 88.8077 66.9252 88.8077 65.4255V49.083H96.4545V127.941H89.0288V121.523C89.0288 123.474 87.7892 125.201 85.316 126.707C82.8398 128.282 79.4994 129.071 75.2948 129.071C69.4433 129.071 65.2795 127.834 62.8062 125.356C60.3998 122.802 59.1981 118.256 59.1981 111.715V87.7201C59.1981 83.521 59.8528 80.3119 61.1651 78.0987C62.4832 75.8797 64.3804 74.3567 66.8566 73.5326C69.3298 72.7114 72.2949 72.2979 75.7487 72.2979ZM76.9825 122.082C79.1619 122.082 81.1521 121.896 82.9533 121.523C84.7515 121.145 86.1772 120.356 87.2248 119.159C88.2781 117.956 88.8077 116.116 88.8077 113.637V86.7067C88.8077 81.832 85.089 79.3917 77.6575 79.3917C73.0776 79.3917 70.1155 79.843 68.7654 80.7429C67.4152 81.6456 66.7402 83.6316 66.7402 86.7067V113.637C66.7402 117.318 67.6771 119.648 69.5568 120.626C71.4336 121.599 73.9098 122.082 76.9825 122.082Z" fill="#F0CA19"/>
<path d="M123.127 129.071C118.253 129.071 114.671 127.944 112.384 125.693C110.094 123.433 108.95 119.339 108.95 113.404V73.416H116.492V112.845C116.492 117.429 117.843 120.169 120.543 121.069C121.666 121.599 123.243 121.861 125.268 121.861C129.464 121.861 132.391 121.334 134.044 120.277C135.697 119.228 136.523 117.315 136.523 114.534V73.416H144.065V127.941H136.523V121.29C135.77 126.479 131.303 129.071 123.127 129.071Z" fill="#F0CA19"/>
<path d="M186.839 127.487C183.013 128.541 178.663 129.071 173.792 129.071C172.139 129.071 170.766 129.051 169.671 129.013C168.583 128.972 167.571 128.876 166.634 128.722C165.703 128.573 164.556 128.238 163.2 127.72C161.399 127.114 160.049 126.215 159.15 125.018C158.248 123.815 157.462 122.047 156.787 119.718C156.112 117.467 155.775 114.651 155.775 111.273V91.2146C155.775 88.3666 155.961 85.8331 156.333 83.6199C156.711 81.4009 157.392 79.5751 158.37 78.1453C159.339 76.7941 160.293 75.7079 161.233 74.8838C162.17 74.0626 163.468 73.4598 165.121 73.0783C166.919 72.7055 168.417 72.4842 169.613 72.4143C170.815 72.3386 172.468 72.2979 174.571 72.2979C178.473 72.2979 182.375 72.8628 186.28 73.9868V81.4184C181.779 79.9129 177.577 79.1587 173.675 79.1587C169.468 79.1587 166.73 79.8401 165.458 81.1971C164.178 82.6182 163.538 85.472 163.538 89.7585V112.053C163.538 116.116 164.251 118.745 165.679 119.939C167.184 121.29 170.149 121.966 174.571 121.966C178.697 121.966 182.789 121.255 186.839 119.834V127.487Z" fill="#52D5F2"/>
<path d="M228.708 127.941H221.399V122.758C220.724 126.969 216.595 129.071 209.015 129.071C203.457 129.071 199.555 127.906 197.306 125.577C195.202 123.396 194.152 118.774 194.152 111.715C194.152 105.635 195.167 101.43 197.201 99.1004C199.226 96.8494 203.125 95.7224 208.898 95.7224H221.177V87.0445C221.177 84.048 220.462 82.0212 219.036 80.9641C217.607 79.9158 215.015 79.3916 211.261 79.3916C207.062 79.3916 202.375 79.843 197.201 80.7428V73.3112C202.826 72.6356 207.889 72.2979 212.39 72.2979C219.216 72.2979 223.645 73.387 225.67 75.5594C227.695 77.8133 228.708 82.4318 228.708 89.4207V127.941ZM201.589 112.053C201.589 115.961 202.037 118.666 202.939 120.172C203.838 121.672 205.791 122.42 208.794 122.42H210.365C211.791 122.42 213.347 122.368 215.032 122.257C216.723 122.141 218.169 121.692 219.373 120.906C220.575 120.114 221.177 118.78 221.177 116.899V102.036H209.352C207.1 102.036 205.412 102.263 204.289 102.711C203.163 103.163 202.43 104.083 202.09 105.472C201.755 106.864 201.589 109.057 201.589 112.053Z" fill="#F0CA19"/>
<path d="M188.399 194.993C184.573 196.047 180.223 196.577 175.352 196.577C173.699 196.577 172.326 196.557 171.232 196.519C170.144 196.478 169.131 196.382 168.194 196.228C167.263 196.079 166.117 195.744 164.761 195.226C162.96 194.62 161.609 193.72 160.71 192.524C159.808 191.321 159.023 189.553 158.348 187.224C157.673 184.973 157.335 182.157 157.335 178.779V158.72C157.335 155.872 157.521 153.339 157.894 151.126C158.272 148.907 158.953 147.081 159.931 145.651C160.9 144.3 161.854 143.214 162.794 142.39C163.731 141.568 165.028 140.966 166.681 140.584C168.479 140.211 169.978 139.99 171.174 139.92C172.376 139.844 174.028 139.804 176.132 139.804C180.034 139.804 183.936 140.369 187.841 141.493V148.924C183.339 147.419 179.138 146.665 175.236 146.665C171.028 146.665 168.29 147.346 167.019 148.703C165.738 150.124 165.098 152.978 165.098 157.264V179.559C165.098 183.621 165.811 186.251 167.24 187.445C168.744 188.796 171.709 189.472 176.132 189.472C180.258 189.472 184.349 188.761 188.399 187.34V194.993Z" fill="#F0CA19"/>
<path d="M234.214 159.291V178.208C234.214 182.791 233.632 186.49 232.468 189.309C231.304 192.127 229.41 194.061 226.788 195.109C224.833 195.861 223.087 196.292 221.551 196.402C220.014 196.519 217.931 196.577 215.301 196.577C212.071 196.577 209.539 196.464 207.7 196.239C205.867 196.012 203.9 195.226 201.799 193.875C199.844 192.672 198.471 190.759 197.679 188.132C196.894 185.5 196.504 182.192 196.504 178.208V159.291C196.504 154.556 197.065 150.631 198.191 147.515C199.315 144.402 201.229 142.317 203.929 141.26C205.885 140.439 207.61 139.99 209.109 139.92C210.613 139.844 212.676 139.804 215.301 139.804C218.001 139.804 220.084 139.844 221.551 139.92C223.017 139.99 224.763 140.439 226.788 141.26C228.656 142.014 230.041 143.086 230.943 144.475C231.851 145.867 232.602 147.759 233.201 150.159C233.876 152.637 234.214 155.68 234.214 159.291ZM226.451 179.676V157.602C226.451 152.57 225.662 149.454 224.088 148.249C222.659 147.046 219.729 146.443 215.301 146.443C210.948 146.443 208.02 147.046 206.525 148.249C205.018 149.524 204.267 152.64 204.267 157.602V179.676C204.267 181.929 204.453 183.787 204.826 185.255C205.204 186.717 205.957 187.783 207.084 188.458C208.364 189.213 209.566 189.646 210.692 189.763C211.815 189.874 213.351 189.926 215.301 189.926C217.326 189.926 218.9 189.874 220.026 189.763C221.158 189.646 222.36 189.213 223.634 188.458C224.757 187.783 225.508 186.717 225.88 185.255C226.259 183.787 226.451 181.929 226.451 179.676Z" fill="#52D5F2"/>
<path d="M260.999 139.804C262.651 139.804 264.49 139.99 266.516 140.363C268.541 140.736 270.301 141.432 271.8 142.448C273.304 143.458 274.058 144.903 274.058 146.781H274.279C274.2 143.706 274.142 141.004 274.104 138.674C274.072 136.344 274.058 134.431 274.058 132.931V116.589H281.704V195.447H274.279V189.029C274.279 190.98 273.039 192.707 270.566 194.213C268.09 195.788 264.749 196.577 260.545 196.577C254.693 196.577 250.529 195.34 248.056 192.861C245.65 190.308 244.448 185.762 244.448 179.221V155.226C244.448 151.027 245.103 147.818 246.415 145.605C247.733 143.386 249.63 141.863 252.106 141.038C254.58 140.217 257.545 139.804 260.999 139.804ZM262.232 189.588C264.412 189.588 266.402 189.402 268.203 189.029C270.001 188.651 271.427 187.861 272.475 186.665C273.528 185.462 274.058 183.621 274.058 181.143V154.213C274.058 149.338 270.339 146.898 262.907 146.898C258.327 146.898 255.365 147.349 254.015 148.249C252.665 149.151 251.99 151.137 251.99 154.213V181.143C251.99 184.824 252.927 187.154 254.807 188.132C256.683 189.105 259.16 189.588 262.232 189.588Z" fill="#52D5F2"/>
<path d="M310.739 139.804C314.493 139.804 317.63 140.348 320.144 141.434C322.658 142.524 324.549 144.402 325.823 147.072C327.104 149.737 327.744 153.508 327.744 158.383V170.439H300.276V178.662C300.276 182.943 301.434 185.776 303.756 187.165C306.084 188.557 308.973 189.25 312.427 189.25C316.329 189.25 320.906 188.351 326.161 186.548V194.317C320.985 195.823 316.07 196.577 311.414 196.577C298.882 196.577 292.617 191.018 292.617 179.897V158.383C292.617 153.508 293.33 149.737 294.759 147.072C296.185 144.402 298.251 142.524 300.951 141.434C303.651 140.348 306.913 139.804 310.739 139.804ZM310.297 146.56C307.294 146.56 304.873 147.069 303.034 148.086C301.195 149.096 300.276 151.475 300.276 155.226V163.787H320.202V155.226C320.202 151.475 319.317 149.096 317.548 148.086C315.785 147.069 313.37 146.56 310.297 146.56Z" fill="#52D5F2"/>
<mask id="mask1_160_1689" style="mask-type:luminance" maskUnits="userSpaceOnUse" x="-1" y="0" width="355" height="237">
<path d="M-0.0114746 0.263672H353.31V236.559H-0.0114746V0.263672Z" fill="white"/>
</mask>
<g mask="url(#mask1_160_1689)">
<path d="M345.107 0.263672H8.19109C3.73919 0.263672 0.0670929 3.94451 0.0670929 8.40286V228.423C0.0670929 232.951 3.73919 236.559 8.19109 236.559H345.037C349.559 236.559 353.161 232.881 353.161 228.423V8.40286C353.231 3.94451 349.559 0.263672 345.107 0.263672ZM118.729 1.75173H234.569V44.5647H233.297C230.117 44.5647 227.01 43.5746 224.466 41.6643C217.687 36.2858 207.939 36.9235 201.864 43.0796C201.087 43.8571 200.382 44.7773 199.745 45.6975C197.909 48.5281 196.92 51.7837 196.92 55.1821C197.062 64.3114 204.267 71.8128 213.377 72.1652C217.335 72.3079 221.289 71.1052 224.397 68.627C227.01 66.6469 230.26 65.584 233.58 65.584H234.639V117.739H185.761V120.217C185.761 123.825 186.89 127.366 189.081 130.266C194.307 137.13 193.035 146.897 186.256 152.203C183.57 154.329 180.25 155.459 176.79 155.459H176.72C168.102 155.459 161.11 148.452 161.11 139.821C161.11 136.353 162.239 132.954 164.43 130.197C166.548 127.436 167.68 123.968 167.68 120.499V117.739H118.802V65.5141H120.074C123.251 65.4413 126.359 66.5042 128.902 68.4145C136.319 74.2182 147.053 72.9427 152.846 65.5141C155.177 62.471 156.448 58.7901 156.448 54.9695C156.448 45.5578 148.819 37.9136 139.426 37.9835C137.73 37.9835 136.036 38.2689 134.483 38.7639L134.27 38.8338C133.988 38.9037 133.633 39.0464 133.351 39.1862L132.929 39.3289C132.644 39.3988 132.434 39.5415 132.222 39.6841C131.94 39.8239 131.797 39.8938 131.657 39.9666C131.515 40.0365 131.302 40.1792 131.09 40.319C130.88 40.4617 130.595 40.6044 130.386 40.7441C130.173 40.8868 130.031 40.9567 129.891 41.0994C129.748 41.2392 129.396 41.3819 129.184 41.5945C126.501 43.5746 123.321 44.7074 120.001 44.6375H118.942L118.729 1.75173ZM1.55106 8.40286C1.55106 4.72203 4.58883 1.68184 8.26093 1.68184H117.318V45.98H119.861C123.463 45.98 126.993 44.8501 129.891 42.6544C130.103 42.5147 130.313 42.372 130.525 42.2293C130.738 42.0895 130.88 41.9468 131.02 41.8769C131.163 41.7342 131.302 41.6643 131.515 41.5945C131.727 41.5217 132.009 41.312 132.222 41.1693L132.361 41.0994C134.692 39.8938 137.308 39.3289 139.921 39.3988C145.994 39.6841 151.432 43.4349 153.763 49.0959C154.542 50.9363 154.964 52.9864 154.964 54.9695C154.964 63.6038 148.042 70.6072 139.426 70.6072H139.354C138.085 70.6072 136.741 70.4675 135.469 70.1122C133.351 69.5473 131.445 68.627 129.748 67.2817C128.832 66.5741 127.77 65.9392 126.641 65.4413C124.523 64.524 122.262 64.026 120.001 64.026H117.318V117.739H69.9242V116.609C69.9242 113.423 70.9106 110.31 72.8194 107.762C78.6098 100.331 77.3382 89.5734 69.9242 83.7726C66.9562 81.4372 63.2114 80.1617 59.3996 80.1617C50.0041 80.2345 42.3747 87.8757 42.4475 97.2875C42.4475 101.038 43.719 104.649 45.977 107.619C47.9556 110.237 49.0148 113.493 48.9449 116.822V117.669H1.55106V8.40286ZM117.318 235.144H8.19109C4.51609 235.144 1.47832 232.171 1.47832 228.423V119.157H50.3591V116.822C50.3591 113.636 49.5094 110.523 47.816 107.832C47.6036 107.48 47.3213 107.124 47.1089 106.772C41.883 99.9782 43.1516 90.1413 49.9343 84.9025C52.617 82.7796 56.0069 81.6497 59.3996 81.6497C68.0154 81.6497 75.0075 88.6532 75.0075 97.2875C75.0075 100.331 74.0909 103.304 72.4644 105.852C72.2549 106.204 71.9726 106.559 71.7602 106.912C69.639 109.672 68.51 113.141 68.51 116.609V119.157H117.318V166.216H116.047C115.27 166.216 114.423 166.146 113.646 166.003C111.312 165.651 109.124 164.661 107.218 163.245C100.436 157.937 90.6881 158.502 84.6155 164.661C81.4351 167.844 79.5991 172.232 79.6689 176.76C79.7417 185.89 87.016 193.391 96.1264 193.746C99.0944 193.816 101.99 193.178 104.602 191.833L104.885 191.693C105.24 191.481 105.592 191.338 105.874 191.126C106.017 191.056 106.156 190.916 106.369 190.773C106.581 190.63 106.863 190.491 107.076 190.278C109.759 188.295 112.939 187.165 116.329 187.235H117.388V235.144H117.318ZM234.569 188.508V235.214H118.729V185.75H116.186C112.584 185.75 109.054 186.88 106.156 189.075C105.947 189.215 105.665 189.428 105.452 189.57L105.027 189.853C104.815 189.996 104.533 190.135 104.32 190.278C104.108 190.418 104.038 190.491 103.826 190.561C103.686 190.63 103.404 190.773 103.191 190.843C102.979 190.916 102.839 191.056 102.627 191.126C102.414 191.198 102.272 191.268 102.059 191.338C101.92 191.411 101.568 191.551 101.355 191.623C101.282 191.623 101.213 191.693 101.143 191.693C92.949 194.241 84.2605 189.57 81.7174 181.361C81.2955 179.873 81.0132 178.318 81.0132 176.83C81.0132 168.199 87.9355 161.193 96.5512 161.193H96.6211C97.0459 161.193 97.4707 161.193 97.9654 161.262C101 161.475 103.898 162.608 106.229 164.518C108.63 166.358 111.525 167.491 114.632 167.704C115.057 167.704 115.552 167.774 115.977 167.774H118.729V119.297H166.126V120.572C166.126 123.755 165.137 126.868 163.228 129.416C157.438 136.848 158.709 147.605 166.126 153.409C167.75 154.681 169.656 155.671 171.634 156.309C172.129 156.452 172.693 156.591 173.188 156.661H173.258C173.753 156.734 174.317 156.874 174.812 156.874H174.884C175.449 156.947 175.944 156.947 176.508 156.947H176.578C185.973 156.874 193.6 149.233 193.53 139.821C193.53 136.07 192.258 132.459 189.998 129.489C188.022 126.868 186.963 123.615 186.963 120.287V119.157H234.357V170.392H236.9C240.502 170.392 244.032 169.259 246.93 167.066C249.755 164.87 253.215 163.741 256.747 163.81H256.96C263.597 164.093 269.32 168.481 271.296 174.85C271.79 176.335 272.003 177.823 272.003 179.308C272.003 187.943 265.081 194.949 256.465 194.949C253.002 194.949 249.612 193.816 246.857 191.623C244.104 189.501 240.642 188.368 237.182 188.368L234.569 188.508ZM351.747 228.493C351.747 232.174 348.71 235.214 345.037 235.214H235.98V189.923H237.252C240.429 189.853 243.537 190.916 246.08 192.826C253.497 198.627 264.164 197.354 270.024 189.923C272.428 186.88 273.699 183.129 273.627 179.308C273.487 170.179 266.282 162.678 257.169 162.325C253.215 162.183 249.33 163.455 246.153 165.863C243.537 167.844 240.29 168.907 236.97 168.907H235.98V119.157H284.858V116.822C284.858 113.211 283.729 109.672 281.538 106.772C276.312 99.9782 277.584 90.1413 284.363 84.9025C287.049 82.7796 290.439 81.6497 293.829 81.6497H293.899C302.517 81.6497 309.509 88.6532 309.44 97.2875C309.44 100.756 308.238 104.154 306.12 106.842C304.001 109.603 302.8 113.071 302.869 116.536V119.084H351.747V228.493ZM304.353 117.739V116.609C304.284 113.423 305.343 110.31 307.249 107.762C313.042 100.331 311.77 89.5734 304.353 83.7726C301.385 81.4372 297.644 80.1617 293.829 80.1617H293.759C284.646 80.2345 277.159 87.5234 276.807 96.6527C276.664 100.613 277.936 104.506 280.339 107.692C282.315 110.31 283.374 113.566 283.374 116.891V117.739H235.98V64.0988H233.507C229.905 64.0988 226.375 65.2316 223.48 67.4244C220.582 69.6171 217.052 70.8198 213.45 70.68C211.402 70.6072 209.423 70.1122 207.587 69.2648C202.006 66.7167 198.404 61.1955 198.334 55.1093C198.334 46.478 205.256 39.4716 213.872 39.4716C217.404 39.4716 220.794 40.6044 223.55 42.7971C226.302 44.92 229.765 46.1227 233.225 46.0528H235.98V1.75173H345.107C348.782 1.75173 351.817 4.72203 351.817 8.47275V117.739H304.353Z" fill="black"/>
</g>
<path d="M66.5151 58.3853V61H51.4248V58.3853H57.5601V39.8599L52.1255 43.7393V40.834L57.8164 36.9204H60.6533V58.3853H66.5151Z" fill="#F2F2F2"/>
</g>
<defs>
<clipPath id="clip0_160_1689">
<rect width="358" height="248" fill="white"/>
</clipPath>
</defs>
</svg>
