<svg width="120" height="91" viewBox="0 0 120 91" fill="none" xmlns="http://www.w3.org/2000/svg">
<mask id="mask0_0_1" style="mask-type:luminance" maskUnits="userSpaceOnUse" x="36" y="0" width="84" height="74">
<path d="M36.3638 0.949707H119.835V73.7103H36.3638V0.949707Z" fill="white"/>
</mask>
<g mask="url(#mask0_0_1)">
<path d="M86.2383 19.9095C97.0375 30.7099 99.6722 46.5473 94.3949 59.8663L85.8557 44.0367L79.4582 47.4276L93.5153 73.5641L119.634 59.4952L116.238 53.0805L101.554 60.9992C107.075 45.4144 103.68 27.1927 91.2632 14.7541C76.571 0.0495735 54.2192 -2.07814 37.1448 8.09461L42.4142 13.3803C56.5976 5.95506 74.4333 8.09461 86.2383 19.9095Z" fill="#52D5F2"/>
</g>
<mask id="mask1_0_1" style="mask-type:luminance" maskUnits="userSpaceOnUse" x="0" y="18" width="84" height="73">
<path d="M0.483154 18.1294H83.8202V90.2623H0.483154V18.1294Z" fill="white"/>
</mask>
<g mask="url(#mask1_0_1)">
<path d="M82.9682 83.8674L77.7027 78.5935C63.6338 86.1332 45.8099 83.9937 34.0049 72.1788C23.2018 61.3784 20.571 45.541 25.8483 32.222L34.3836 48.0516L40.785 44.6646L26.5977 18.5242L0.483154 32.5931L3.86728 39.0078L18.5594 31.0891C13.0375 46.6739 16.4217 64.8956 28.8499 77.3342C43.5459 92.0387 66.024 94.1664 82.9682 83.8674Z" fill="#52D5F2"/>
</g>
</svg>
