<svg width="200" height="196" viewBox="0 0 200 196" fill="none" xmlns="http://www.w3.org/2000/svg">
<g filter="url(#filter0_d_152_24)">
<mask id="mask0_152_24" style="mask-type:luminance" maskUnits="userSpaceOnUse" x="37" y="33" width="135" height="129">
<path d="M37.7522 33.9653H171.969V161.968H37.7522V33.9653Z" fill="white"/>
</mask>
<g mask="url(#mask0_152_24)">
<path d="M145.816 102.271L145.015 102.423L140.164 103.338L139.347 103.492L138.528 103.646L122.465 106.675L116.311 107.835L106.843 98.8043H164.204L146.618 102.122L145.816 102.271ZM104.181 154.562L100.702 137.79L100.546 137.026L100.387 136.262L99.4266 131.635L99.2677 130.856L99.1043 130.078L95.9282 114.756L94.7121 108.887L104.181 99.8567V154.562ZM80.3325 120.498L76.4369 124.213L78.6948 121.001L79.1407 120.363L79.5865 119.728L87.6625 108.23L92.282 109.102L80.3325 120.498ZM82.8509 122.767L95.1646 114.901L98.2789 129.93C92.4696 128.823 87.1901 126.305 82.8509 122.767ZM71.5459 104.433L87.3027 107.405L79.0568 119.149C75.3466 115.008 72.7046 109.973 71.5459 104.433ZM69.8949 104.121C71.0669 110.295 73.9914 115.894 78.1563 120.428L75.4636 124.264C72.2323 120.961 69.6632 117.187 67.818 113.025C66.4187 109.868 65.4762 106.578 65.0061 103.202L69.8949 104.121ZM89.2693 133.483C84.9057 131.724 80.9505 129.273 77.4853 126.194L81.5089 123.626C86.2631 127.598 92.1341 130.387 98.6055 131.503L99.5722 136.167C96.0298 135.717 92.58 134.82 89.2693 133.483ZM63.0991 97.3182H45.7178L63.3044 94.0008L64.1034 93.8513L64.9045 93.6997L69.7581 92.7841L70.5725 92.6325L71.3914 92.4768L87.455 89.4477L93.6085 88.2879L103.077 97.3182H63.0991ZM82.8509 73.3575C87.1901 69.819 92.4696 67.2994 98.2789 66.1943L95.1646 81.2237L82.8509 73.3575ZM81.4361 74.5741L80.3347 73.5238L77.5383 70.8589L80.9086 73.0101L81.5751 73.4375L82.2439 73.8648L94.2994 81.5647L93.3856 85.9704L81.4361 74.5741ZM79.0568 76.9759L87.3027 88.7194L71.5459 91.6895C72.7046 86.1493 75.3466 81.1142 79.0568 76.9759ZM78.1563 75.6961C73.9914 80.2301 71.0669 85.8293 69.8949 92.001L65.0061 92.923C65.4762 89.5446 66.4187 86.2545 67.818 83.0971C69.6632 78.9356 72.2323 75.1635 75.4636 71.8587L78.1563 75.6961ZM99.5722 59.9573L98.6055 64.6219C92.1341 65.7375 86.2631 68.5266 81.5067 72.4986L77.4853 69.9306C80.9505 66.8489 84.9057 64.3988 89.2693 62.639C92.58 61.3045 96.0298 60.4078 99.5722 59.9573ZM127.071 122.767C122.73 126.305 117.45 128.823 111.641 129.93L114.757 114.901L127.071 122.767ZM128.484 121.548L129.035 122.075L129.587 122.599L132.382 125.264L129.011 123.112L128.345 122.687L127.678 122.26L115.623 114.558L116.536 110.152L128.484 121.548ZM130.865 119.149L122.617 107.405L138.376 104.433C137.215 109.973 134.575 115.008 130.865 119.149ZM131.766 120.428C135.931 115.894 138.855 110.295 140.025 104.121L144.916 103.202C144.444 106.578 143.503 109.868 142.102 113.025C140.257 117.187 137.69 120.961 134.458 124.264L131.766 120.428ZM110.348 136.167L111.314 131.503C117.788 130.387 123.657 127.598 128.413 123.626L132.434 126.194C128.971 129.273 125.014 131.724 120.651 133.483C117.34 134.82 113.89 135.717 110.348 136.167ZM105.739 41.5621L109.217 58.3344L109.374 59.0964L109.533 59.8605L110.493 64.4893L110.654 65.266L110.815 66.047L113.992 81.3689L115.208 87.2354L105.739 96.2657V41.5621ZM130.865 76.9759C134.575 81.1142 137.215 86.1493 138.376 91.6895L122.617 88.7194L130.865 76.9759ZM129.587 75.6266L130.689 74.5762L133.483 71.9093L131.227 75.1235L130.781 75.7592L130.333 76.397L122.257 87.8943L117.638 87.0228L129.587 75.6266ZM127.071 73.3575L114.757 81.2237L111.641 66.1943C117.45 67.2994 122.73 69.819 127.071 73.3575ZM120.651 62.639C125.014 64.3988 128.971 66.8489 132.434 69.9306L128.413 72.4986C123.657 68.5266 117.788 65.7375 111.314 64.6219L110.348 59.9573C113.89 60.4078 117.34 61.3045 120.651 62.639ZM140.025 92.001C138.855 85.8293 135.931 80.2301 131.766 75.6961L134.458 71.8587C137.688 75.1635 140.257 78.9356 142.102 83.0971C143.503 86.2545 144.444 89.5446 144.916 92.923L140.025 92.001ZM146.527 93.2261C146.061 89.5425 145.064 85.9556 143.539 82.5182C141.574 78.0894 138.822 74.0816 135.348 70.5915L138.564 66.0133L133.763 69.0802C130.104 65.7691 125.904 63.1421 121.26 61.2708C117.653 59.8163 113.894 58.8627 110.03 58.4207L104.96 33.9653L99.8901 58.4207C96.0276 58.8627 92.2666 59.8163 88.6623 61.2708C84.0185 63.1421 79.816 65.7691 76.1566 69.0802L71.356 66.0133L74.5719 70.5915C71.1 74.0816 68.3455 78.0894 66.3833 82.5182C64.8582 85.9556 63.8584 89.5425 63.3927 93.2282L37.7522 98.0612L63.3927 102.896C63.8584 106.582 64.8582 110.169 66.3833 113.606C68.3455 118.035 71.1 122.041 74.5719 125.531L71.356 130.109L76.1566 127.042C79.816 130.355 84.0185 132.98 88.6623 134.854C92.2666 136.308 96.0276 137.262 99.8901 137.704L104.96 162.157L110.03 137.704C113.894 137.262 117.653 136.308 121.26 134.854C125.904 132.98 130.104 130.355 133.763 127.042L138.564 130.109L135.348 125.531C138.822 122.041 141.574 118.035 143.539 113.606C145.064 110.169 146.064 106.582 146.527 102.896L172.168 98.0612L146.527 93.2261Z" fill="#FF3131"/>
</g>
<path d="M110.828 27.371H108.374L100.896 12.7037V27.371H99.0861V9.8999H101.576L109.054 24.3315V9.8999H110.828V27.371Z" fill="black"/>
<path d="M104.169 181.892C103.227 181.892 102.45 181.644 101.838 181.143C101.225 180.638 100.92 179.83 100.92 178.718V177.506C100.92 175.464 102.443 174.441 105.493 174.441C105.663 174.441 106.008 174.458 106.526 174.491C107.043 174.525 107.736 174.58 108.601 174.651V176.403C108.001 176.281 107.431 176.188 106.897 176.125C106.361 176.058 105.866 176.024 105.414 176.024C104.394 176.024 103.697 176.15 103.322 176.403C102.962 176.655 102.783 177.076 102.783 177.666V178.769C102.783 179.651 103.414 180.091 104.681 180.091H105.864C108.029 180.091 109.113 181.116 109.113 183.164V184.292C109.113 185.69 108.727 186.658 107.957 187.197C107.202 187.736 106.098 188.005 104.646 188.005C103.538 188.005 102.364 187.898 101.123 187.685V185.825C101.971 186.006 102.688 186.136 103.277 186.22C103.871 186.3 104.339 186.338 104.681 186.338C105.546 186.338 106.184 186.229 106.597 186.01C107.007 185.831 107.215 185.41 107.215 184.747V183.425C107.215 182.781 107.041 182.364 106.694 182.179C106.345 181.989 105.891 181.892 105.326 181.892H104.169Z" fill="black"/>
<path d="M192.02 107.553H183.209V90.082H185.275V105.726H192.02V107.553Z" fill="black"/>
<path d="M16.3586 94.7975V103.083C16.3586 104.089 16.1776 104.897 15.82 105.508C15.4603 106.12 14.9835 106.592 14.3898 106.922C13.8005 107.255 13.1671 107.493 12.4917 107.638C12.1849 107.705 11.867 107.751 11.5382 107.781C11.2137 107.808 10.8804 107.823 10.5405 107.823C6.70231 107.823 4.7843 106.244 4.7843 103.083V94.8228C4.7843 91.4843 6.70231 89.813 10.5405 89.813C14.4185 89.813 16.3586 91.4759 16.3586 94.7975ZM10.5405 91.5138C9.86295 91.5138 9.23391 91.598 8.65123 91.7664C8.06854 91.9348 7.60062 92.2547 7.24748 92.7262C6.89875 93.1935 6.72659 93.8629 6.72659 94.7386V103.057C6.72659 105.068 8.00674 106.072 10.567 106.072C13.092 106.072 14.3545 105.068 14.3545 103.057V94.7386C14.3545 92.5894 13.0832 91.5138 10.5405 91.5138Z" fill="black"/>
</g>
<defs>
<filter id="filter0_d_152_24" x="-3" y="0" width="207" height="199" filterUnits="userSpaceOnUse" color-interpolation-filters="sRGB">
<feFlood flood-opacity="0" result="BackgroundImageFix"/>
<feColorMatrix in="SourceAlpha" type="matrix" values="0 0 0 0 0 0 0 0 0 0 0 0 0 0 0 0 0 0 127 0" result="hardAlpha"/>
<feOffset dy="4"/>
<feGaussianBlur stdDeviation="2"/>
<feComposite in2="hardAlpha" operator="out"/>
<feColorMatrix type="matrix" values="0 0 0 0 0 0 0 0 0 0 0 0 0 0 0 0 0 0 0.25 0"/>
<feBlend mode="normal" in2="BackgroundImageFix" result="effect1_dropShadow_152_24"/>
<feBlend mode="normal" in="SourceGraphic" in2="effect1_dropShadow_152_24" result="shape"/>
</filter>
</defs>
</svg>
