<svg width="199" height="191" viewBox="0 0 199 191" fill="none" xmlns="http://www.w3.org/2000/svg">
<mask id="mask0_153_97" style="mask-type:luminance" maskUnits="userSpaceOnUse" x="36" y="33" width="135" height="129">
<path d="M36.7522 33.9653H170.969V161.968H36.7522V33.9653Z" fill="white"/>
</mask>
<g mask="url(#mask0_153_97)">
<path d="M144.816 102.271L144.015 102.423L139.164 103.338L138.347 103.492L137.528 103.646L121.465 106.675L115.311 107.835L105.843 98.8043H163.204L145.618 102.122L144.816 102.271ZM103.181 154.562L99.7023 137.79L99.5456 137.026L99.3867 136.262L98.4266 131.635L98.2677 130.856L98.1043 130.078L94.9282 114.756L93.7121 108.887L103.181 99.8567V154.562ZM79.3325 120.498L75.4369 124.213L77.6948 121.001L78.1407 120.363L78.5865 119.728L86.6625 108.23L91.282 109.102L79.3325 120.498ZM81.8509 122.767L94.1646 114.901L97.2789 129.93C91.4696 128.823 86.1901 126.305 81.8509 122.767ZM70.5459 104.433L86.3027 107.405L78.0568 119.149C74.3466 115.008 71.7046 109.973 70.5459 104.433ZM68.8949 104.121C70.0669 110.295 72.9914 115.894 77.1563 120.428L74.4636 124.264C71.2323 120.961 68.6632 117.187 66.818 113.025C65.4187 109.868 64.4762 106.578 64.0061 103.202L68.8949 104.121ZM88.2693 133.483C83.9057 131.724 79.9505 129.273 76.4853 126.194L80.5089 123.626C85.2631 127.598 91.1341 130.387 97.6055 131.503L98.5722 136.167C95.0298 135.717 91.58 134.82 88.2693 133.483ZM62.0991 97.3182H44.7178L62.3044 94.0008L63.1034 93.8513L63.9045 93.6997L68.7581 92.7841L69.5725 92.6325L70.3914 92.4768L86.455 89.4477L92.6085 88.2879L102.077 97.3182H62.0991ZM81.8509 73.3575C86.1901 69.819 91.4696 67.2994 97.2789 66.1943L94.1646 81.2237L81.8509 73.3575ZM80.4361 74.5741L79.3347 73.5238L76.5383 70.8589L79.9086 73.0101L80.5751 73.4375L81.2439 73.8648L93.2994 81.5647L92.3856 85.9704L80.4361 74.5741ZM78.0568 76.9759L86.3027 88.7194L70.5459 91.6895C71.7046 86.1493 74.3466 81.1142 78.0568 76.9759ZM77.1563 75.6961C72.9914 80.2301 70.0669 85.8293 68.8949 92.001L64.0061 92.923C64.4762 89.5446 65.4187 86.2545 66.818 83.0971C68.6632 78.9356 71.2323 75.1635 74.4636 71.8587L77.1563 75.6961ZM98.5722 59.9573L97.6055 64.6219C91.1341 65.7375 85.2631 68.5266 80.5067 72.4986L76.4853 69.9306C79.9505 66.8489 83.9057 64.3988 88.2693 62.639C91.58 61.3045 95.0298 60.4078 98.5722 59.9573ZM126.071 122.767C121.73 126.305 116.45 128.823 110.641 129.93L113.757 114.901L126.071 122.767ZM127.484 121.548L128.035 122.075L128.587 122.599L131.382 125.264L128.011 123.112L127.345 122.687L126.678 122.26L114.623 114.558L115.536 110.152L127.484 121.548ZM129.865 119.149L121.617 107.405L137.376 104.433C136.215 109.973 133.575 115.008 129.865 119.149ZM130.766 120.428C134.931 115.894 137.855 110.295 139.025 104.121L143.916 103.202C143.444 106.578 142.503 109.868 141.102 113.025C139.257 117.187 136.69 120.961 133.458 124.264L130.766 120.428ZM109.348 136.167L110.314 131.503C116.788 130.387 122.657 127.598 127.413 123.626L131.434 126.194C127.971 129.273 124.014 131.724 119.651 133.483C116.34 134.82 112.89 135.717 109.348 136.167ZM104.739 41.5621L108.217 58.3344L108.374 59.0964L108.533 59.8605L109.493 64.4893L109.654 65.266L109.815 66.047L112.992 81.3689L114.208 87.2354L104.739 96.2657V41.5621ZM129.865 76.9759C133.575 81.1142 136.215 86.1493 137.376 91.6895L121.617 88.7194L129.865 76.9759ZM128.587 75.6266L129.689 74.5762L132.483 71.9093L130.227 75.1235L129.781 75.7592L129.333 76.397L121.257 87.8943L116.638 87.0228L128.587 75.6266ZM126.071 73.3575L113.757 81.2237L110.641 66.1943C116.45 67.2994 121.73 69.819 126.071 73.3575ZM119.651 62.639C124.014 64.3988 127.971 66.8489 131.434 69.9306L127.413 72.4986C122.657 68.5266 116.788 65.7375 110.314 64.6219L109.348 59.9573C112.89 60.4078 116.34 61.3045 119.651 62.639ZM139.025 92.001C137.855 85.8293 134.931 80.2301 130.766 75.6961L133.458 71.8587C136.688 75.1635 139.257 78.9356 141.102 83.0971C142.503 86.2545 143.444 89.5446 143.916 92.923L139.025 92.001ZM145.527 93.2261C145.061 89.5425 144.064 85.9556 142.539 82.5182C140.574 78.0894 137.822 74.0816 134.348 70.5915L137.564 66.0133L132.763 69.0802C129.104 65.7691 124.904 63.1421 120.26 61.2708C116.653 59.8163 112.894 58.8627 109.03 58.4207L103.96 33.9653L98.8901 58.4207C95.0276 58.8627 91.2666 59.8163 87.6623 61.2708C83.0185 63.1421 78.816 65.7691 75.1566 69.0802L70.356 66.0133L73.5719 70.5915C70.1 74.0816 67.3455 78.0894 65.3833 82.5182C63.8582 85.9556 62.8584 89.5425 62.3927 93.2282L36.7522 98.0612L62.3927 102.896C62.8584 106.582 63.8582 110.169 65.3833 113.606C67.3455 118.035 70.1 122.041 73.5719 125.531L70.356 130.109L75.1566 127.042C78.816 130.355 83.0185 132.98 87.6623 134.854C91.2666 136.308 95.0276 137.262 98.8901 137.704L103.96 162.157L109.03 137.704C112.894 137.262 116.653 136.308 120.26 134.854C124.904 132.98 129.104 130.355 132.763 127.042L137.564 130.109L134.348 125.531C137.822 122.041 140.574 118.035 142.539 113.606C144.064 110.169 145.064 106.582 145.527 102.896L171.168 98.0612L145.527 93.2261Z" fill="#52D5F2"/>
</g>
<path d="M109.828 27.371H107.374L99.8959 12.7037V27.371H98.0861V9.8999H100.576L108.054 24.3315V9.8999H109.828V27.371Z" fill="black"/>
<path d="M103.169 181.892C102.227 181.892 101.45 181.644 100.838 181.143C100.225 180.638 99.9202 179.83 99.9202 178.718V177.506C99.9202 175.464 101.443 174.441 104.493 174.441C104.663 174.441 105.008 174.458 105.526 174.491C106.043 174.525 106.736 174.58 107.601 174.651V176.403C107.001 176.281 106.431 176.188 105.897 176.125C105.361 176.058 104.866 176.024 104.414 176.024C103.394 176.024 102.697 176.15 102.322 176.403C101.962 176.655 101.783 177.076 101.783 177.666V178.769C101.783 179.651 102.414 180.091 103.681 180.091H104.864C107.029 180.091 108.113 181.116 108.113 183.164V184.292C108.113 185.69 107.727 186.658 106.957 187.197C106.202 187.736 105.098 188.005 103.646 188.005C102.538 188.005 101.364 187.898 100.123 187.685V185.825C100.971 186.006 101.688 186.136 102.277 186.22C102.871 186.3 103.339 186.338 103.681 186.338C104.546 186.338 105.184 186.229 105.597 186.01C106.007 185.831 106.215 185.41 106.215 184.747V183.425C106.215 182.781 106.041 182.364 105.694 182.179C105.345 181.989 104.891 181.892 104.326 181.892H103.169Z" fill="black"/>
<path d="M191.02 107.553H182.209V90.082H184.275V105.726H191.02V107.553Z" fill="black"/>
<path d="M15.3586 94.7975V103.083C15.3586 104.089 15.1776 104.897 14.82 105.508C14.4603 106.12 13.9835 106.592 13.3898 106.922C12.8005 107.255 12.1671 107.493 11.4917 107.638C11.1849 107.705 10.867 107.751 10.5382 107.781C10.2137 107.808 9.88045 107.823 9.54055 107.823C5.70231 107.823 3.7843 106.244 3.7843 103.083V94.8228C3.7843 91.4843 5.70231 89.813 9.54055 89.813C13.4185 89.813 15.3586 91.4759 15.3586 94.7975ZM9.54055 91.5138C8.86295 91.5138 8.23391 91.598 7.65123 91.7664C7.06854 91.9348 6.60062 92.2547 6.24748 92.7262C5.89875 93.1935 5.72659 93.8629 5.72659 94.7386V103.057C5.72659 105.068 7.00674 106.072 9.56703 106.072C12.092 106.072 13.3545 105.068 13.3545 103.057V94.7386C13.3545 92.5894 12.0832 91.5138 9.54055 91.5138Z" fill="black"/>
</svg>
