<svg width="383" height="249" viewBox="0 0 383 249" fill="none" xmlns="http://www.w3.org/2000/svg">
<path d="M73.9648 144.678C60.7754 171.359 74.45 222.634 74.45 222.634L75.2743 214.596C75.2743 214.596 82.5474 234.61 98.4978 242.012C114.448 249.413 138.642 248.975 151.295 246.931C163.948 244.882 161.573 241.866 161.573 241.866L155.803 239.77L172.578 235.195L170.98 239.624C170.98 239.624 179.464 236.462 185.767 233.588C187.171 237.63 187.948 241.522 190.859 245.273C194.35 249.753 199.197 248.34 214.276 247.661C212.142 239.138 206.178 241.866 204.285 241.767C202.396 241.668 199.099 231.397 199.197 228.571C199.197 228.184 199.536 227.402 200.069 226.431C204.238 224.58 207.973 223.119 208.119 223.072C208.119 223.119 208.119 223.166 208.119 223.265L203.705 229.498C203.705 229.498 205.5 228.523 208.214 227.063C208.36 228.669 208.699 230.13 209.184 231.251C211.27 236.217 211.704 240.891 215.195 245.371C218.686 249.852 223.533 248.438 238.612 247.756C236.482 239.237 230.518 241.961 228.625 241.866C226.736 241.767 223.438 231.496 223.533 228.669C223.584 226.672 231.145 215.962 235.606 209.729C237.302 208.513 240.02 206.662 240.02 206.662L239.097 212.311C239.097 212.311 246.808 205.201 252.72 194.148C258.589 183.143 257.859 180.758 258.928 167.953C259.993 155.099 269.159 149.889 269.159 149.889L267.219 156.706C267.219 156.706 273.861 148.819 281.473 144.532C289.086 140.198 291.945 142.148 296.307 130.412C300.622 118.68 296.84 106.699 287.386 99.4474C278.515 92.6301 246.275 82.8916 228.238 83.4758C227.027 83.5232 225.911 83.5745 224.842 83.7205C207.827 85.8601 191.731 97.6434 183.05 106.166C172.239 114.345 143.391 103.632 143.391 103.632L149.548 108.357C149.548 108.357 134.761 107.09 116.728 108.598C98.6911 110.11 89.0909 116.781 89.0909 116.781L102.568 114.247C102.375 114.152 87.1503 118.044 73.9648 144.678Z" fill="#956B3A"/>
<path d="M216.067 88.4893C216.067 88.4893 216.359 75.4902 207.875 76.706C199.391 77.9258 199.97 89.6104 206.033 93.9922C215.586 91.2171 216.067 88.4893 216.067 88.4893Z" fill="#956B3A"/>
<mask id="mask0_0_1" style="mask-type:luminance" maskUnits="userSpaceOnUse" x="230" y="73" width="14" height="15">
<path d="M230.976 73.4768H243.092V87.0484H230.976V73.4768Z" fill="white"/>
</mask>
<g mask="url(#mask0_0_1)">
<path d="M240.698 86.5904C242.927 80.2112 244.43 73.4925 237.354 73.6386C230.274 73.8359 232.021 84.8377 232.021 84.8377C232.021 84.8377 235.413 86.9812 240.698 86.5904Z" fill="#956B3A"/>
</g>
<path d="M208.991 79.5798C202.155 81.3325 203.705 87.3722 206.178 90.9249C209.137 89.9025 213.692 89.0735 213.692 89.0735C213.692 89.0735 215.873 77.8271 208.991 79.5798Z" fill="#604525"/>
<path d="M292.525 115.467C292.525 115.467 292.186 112.593 288.502 114.247C284.818 115.952 285.059 118.482 287.532 119.556C290.005 120.626 292.624 119.702 292.525 115.467Z" fill="#3E2D18"/>
<path d="M249.959 101.054C245.593 95.8909 239.487 95.4527 237.306 97.5962C235.172 99.6884 237.886 106.553 249.959 101.054Z" fill="#3E2D18"/>
<path d="M243.85 98.5199C243.85 98.5199 241.669 96.6685 240.26 97.9356C238.904 99.1554 242.927 100.809 243.85 98.5199Z" fill="white"/>
<path d="M273.814 136.306C274.78 137.277 282.006 141.126 285.398 139.858C277.983 136.937 274.102 135.915 273.131 133.578L271.487 137.131C271.534 137.131 272.843 135.331 273.814 136.306Z" fill="#3E2D18"/>
<path d="M84.5827 225.456C83.1273 223.265 73.3811 200.381 71.3933 184.994C70.5216 178.421 69.5513 171.655 68.727 165.616C66.3052 191.91 74.45 222.681 74.45 222.681L75.2743 214.648C75.2743 214.648 82.5475 234.658 98.4978 242.059C114.448 249.461 138.642 249.023 151.295 246.978C163.948 244.933 161.573 241.913 161.573 241.913L155.803 239.821L172.578 235.242L170.98 239.675C170.98 239.675 179.464 236.509 185.767 233.635C187.171 237.678 187.948 241.574 190.859 245.324C194.35 249.8 199.197 248.391 214.276 247.708C212.142 239.185 206.178 241.913 204.285 241.815C202.396 241.72 199.099 231.444 199.197 228.622C199.197 228.231 199.536 227.453 200.069 226.478C204.238 224.627 207.973 223.166 208.119 223.119C208.119 223.166 208.119 223.218 208.119 223.313L203.705 229.546C203.705 229.546 205.5 228.571 208.214 227.11C208.36 228.717 208.699 230.177 209.184 231.298C211.27 236.264 211.704 240.938 215.195 245.419C218.686 249.899 223.533 248.486 238.612 247.807C236.482 239.284 230.518 242.012 228.625 241.913C226.736 241.815 223.438 231.543 223.533 228.717C223.584 226.723 231.145 216.01 235.606 209.777C237.302 208.561 240.02 206.709 240.02 206.709L239.097 212.358C239.097 212.358 246.855 205.249 252.72 194.196C258.589 183.194 257.859 180.806 258.928 168C259.993 155.147 269.159 149.936 269.159 149.936L267.219 156.753C267.219 156.753 273.861 148.866 281.473 144.583C288.407 140.636 291.46 141.808 295.242 133.041C290.829 132.457 285.204 131.485 280.018 130.025C277.399 129.295 274.831 129.002 272.453 129.05C271.68 129.05 270.903 129.097 270.177 129.196L279.146 130.85C279.146 130.85 272.745 130.171 268.189 132.895C263.63 135.622 254.661 144.729 254.661 144.729L262.805 142.831C262.805 142.831 255.292 148.235 251.269 153.54C247.293 158.85 238.71 172.532 235.511 179.929C238.904 177.06 241.763 173.894 241.763 173.894C241.763 173.894 242.639 179.835 235.997 187.43C229.402 195.025 221.596 199.308 221.596 199.308L228.724 198.775C228.724 198.775 231.875 201.305 220.042 205.64C208.214 210.021 199.292 214.257 199.292 214.257L207.342 215.181C207.342 215.181 202.495 218.106 194.93 219.953C187.365 221.852 171.075 222.926 171.075 222.926L178.881 226.818C178.881 226.818 176.506 230.083 166.082 231.543C155.657 233.004 141.647 231.35 141.647 231.35L149.5 237.046C149.5 237.046 120.266 238.846 111.49 230.276C102.761 221.706 112.022 237.922 112.022 237.922C112.022 237.922 90.4477 231.689 82.6421 211.434C82.3029 221.319 86.0854 227.647 84.5827 225.456Z" fill="#6A4D29" fill-opacity="0.78"/>
<path d="M154.931 185.14C145.331 182.026 141.403 186.064 141.403 186.064C141.403 186.064 151.441 187.138 160.796 195.171C170.203 203.204 167.099 210.997 167.099 210.997L162.059 204.665C162.059 204.665 165.743 214.648 163.029 224.919C160.311 235.242 154.446 236.9 154.446 236.9L172.483 233.636C172.483 233.636 175.39 218.055 173.548 211.289C171.659 204.519 167.344 196.778 167.344 196.778L173.256 199.892C173.307 199.892 164.532 188.259 154.931 185.14Z" fill="#74532D"/>
<path d="M13.3152 83.2976L28.0034 93.198C29.6836 94.3349 30.8984 95.7086 31.6478 97.3192C32.4051 98.9219 32.6418 100.659 32.3578 102.53C32.0817 104.405 31.2929 106.312 29.9913 108.246C28.0231 111.175 25.7473 112.943 23.1599 113.551C20.5725 114.151 17.9812 113.575 15.3819 111.814L0.756836 101.946L3.99108 97.1455L17.8905 106.525C19.6377 107.705 21.1562 108.222 22.4499 108.072C23.7436 107.926 24.9348 107.03 26.0313 105.388C27.0923 103.821 27.4512 102.404 27.1041 101.14C26.757 99.8693 25.7 98.6376 23.933 97.4455L10.0809 88.0978L13.3152 83.2976Z" fill="#F0CA19"/>
<path d="M46.7343 86.7491C45.1133 88.5926 43.1688 89.4492 40.8969 89.3229L40.7076 89.5598C42.1472 90.5506 42.9716 91.1348 43.1846 91.3125L49.5584 96.9179L45.7877 101.213L23.1165 81.3016L26.1929 77.812L28.7803 78.9962L28.9381 78.8067C28.2558 76.4303 28.7803 74.2513 30.5158 72.2697C32.1487 70.4064 34.1444 69.5853 36.511 69.8064C38.8775 70.0196 41.3387 71.2433 43.8945 73.4855C45.5669 74.9619 46.8014 76.4935 47.6021 78.0804C48.4106 79.6712 48.738 81.2029 48.5802 82.6753C48.4303 84.1517 47.815 85.5096 46.7343 86.7491ZM32.7403 76.6751C31.8055 77.7409 31.4545 78.8028 31.6833 79.8647C31.9041 80.9187 32.7561 82.1187 34.2391 83.4648L34.6966 83.8596C36.3926 85.3557 37.8204 86.1768 38.9879 86.3228C40.1633 86.461 41.2322 85.9833 42.1906 84.8859C43.8827 82.9714 43.1451 80.6187 39.9819 77.8278C38.4357 76.4698 37.0671 75.6882 35.8799 75.475C34.6809 75.254 33.6356 75.6566 32.7403 76.6751Z" fill="#F0CA19"/>
<path d="M60.7159 63.7237C62.1674 65.2948 62.7235 67.0041 62.3882 68.8554C62.0609 70.6989 60.8106 72.6293 58.6334 74.6504C57.5053 75.6846 56.4798 76.4899 55.5569 77.0663C54.6418 77.6466 53.6992 78.1045 52.7328 78.44L49.5144 74.9662C50.6424 74.6109 51.802 74.1056 53.001 73.4503C54.208 72.799 55.1861 72.124 55.9355 71.4292C57.4501 70.0318 57.8011 68.887 56.9926 68.0028C56.6849 67.6791 56.3378 67.5054 55.9513 67.4817C55.5608 67.462 54.9929 67.5528 54.2474 67.7501C53.5098 67.9515 52.5672 68.2554 51.4234 68.666C49.7944 69.266 48.5047 69.6134 47.558 69.7081C46.6114 69.7949 45.7595 69.6844 45.0022 69.3765C44.237 69.0607 43.4837 68.5041 42.7461 67.7028C41.484 66.3369 41.0422 64.7895 41.4209 63.0605C41.7916 61.3236 42.9433 59.563 44.876 57.7708C46.7298 56.0576 48.907 54.7944 51.4076 53.9812L52.9379 58.1656C51.8651 58.5564 50.8988 58.9551 50.035 59.3656C49.1752 59.7683 48.3903 60.2933 47.6843 60.9446C46.4458 62.0933 46.1342 62.9973 46.7534 63.6605C47.1005 64.0395 47.6014 64.1816 48.2522 64.0868C48.907 63.9921 50.1612 63.5934 52.0229 62.8868C53.6637 62.2552 54.9574 61.8999 55.904 61.8131C56.8585 61.7183 57.7223 61.8249 58.4914 62.1289C59.2565 62.4249 59.9981 62.9578 60.7159 63.7237Z" fill="#F0CA19"/>
<path d="M69.5536 59.553C70.6146 61.9333 71.6243 64.9532 72.5828 68.6165L69.3643 71.1902C67.9207 68.0835 66.4495 65.2374 64.9468 62.6478L69.0487 59.3793L69.5536 59.553Z" fill="#F0CA19"/>
<path d="M88.5721 46.3015C89.4122 45.7764 90.3154 44.9593 91.2857 43.854L93.526 47.4541C92.674 48.7489 91.3685 49.949 89.6133 51.0543C87.6767 52.2661 85.9571 52.6609 84.4543 52.2385C82.9476 51.8082 81.5829 50.6082 80.3523 48.6384L74.9882 40.0802L72.669 41.5329L71.3911 39.4801L73.0477 36.2116L72.1011 31.5851L75.1933 29.6429L77.5598 33.4168L82.5295 30.3061L84.8014 33.9378L79.8317 37.0485L85.1958 45.6067C85.6376 46.3133 86.1503 46.708 86.7419 46.7909C87.3296 46.8659 87.941 46.7041 88.5721 46.3015Z" fill="#F0CA19"/>
<path d="M96.3672 27.1051C95.2943 27.6538 94.6159 28.4275 94.3319 29.4262C94.0559 30.417 94.1939 31.5658 94.7421 32.8684L101.905 29.2683C101.25 28.0288 100.438 27.2235 99.4594 26.8524C98.4812 26.4735 97.4479 26.5603 96.3672 27.1051ZM105.013 42.5319C101.992 44.0478 99.2149 44.4031 96.6827 43.5899C94.1466 42.7806 92.1193 40.8543 90.5928 37.8107C89.0152 34.6646 88.5852 31.8381 89.2991 29.3315C90.0052 26.8287 91.7406 24.8787 94.5055 23.4891C97.156 22.1628 99.5896 21.8865 101.81 22.6523C104.039 23.422 105.821 25.1392 107.158 27.7998L108.389 30.2631L96.3198 36.3265C97.1166 37.7712 98.1223 38.695 99.3332 39.1055C100.552 39.5082 101.889 39.3384 103.341 38.6002C104.453 38.0436 105.455 37.3962 106.338 36.6581C107.229 35.912 108.097 35.0119 108.941 33.958L110.929 37.9055C110.255 38.7897 109.462 39.6029 108.547 40.3371C107.64 41.0753 106.464 41.8056 105.013 42.5319Z" fill="#F0CA19"/>
<path d="M133.446 30.5127L128.067 32.4707L123.87 20.9755C123.341 19.5544 122.695 18.5834 121.929 18.0544C121.172 17.5294 120.245 17.4662 119.153 17.8649C117.646 18.4255 116.743 19.3255 116.439 20.565C116.131 21.8085 116.4 23.5928 117.244 25.9178L120.636 35.1866L115.272 37.1604L108.077 17.4702L112.195 15.9701L113.82 18.2123L114.12 18.1018C114.372 16.9333 114.932 15.9148 115.808 15.0385C116.68 14.1661 117.784 13.4871 119.121 13.0016C121.401 12.1608 123.365 12.145 125.006 12.9542C126.655 13.7674 127.909 15.3385 128.761 17.6754L133.446 30.5127Z" fill="#F0CA19"/>
<path d="M145.297 23.1396C146.263 22.8988 147.372 22.3975 148.626 21.6396L149.683 25.745C148.46 26.7161 146.847 27.4582 144.84 27.9714C142.631 28.5398 140.872 28.3938 139.57 27.5293C138.265 26.6687 137.33 25.1134 136.762 22.8712L134.253 13.0814L131.603 13.7603L131.019 11.4234L133.591 8.78646L134.096 4.09681L137.63 3.19678L138.734 7.50746L144.414 6.03899L145.471 10.2076L139.791 11.676L142.299 21.4659C142.497 22.2672 142.867 22.7922 143.404 23.0449C143.94 23.2975 144.571 23.3291 145.297 23.1396Z" fill="#F0CA19"/>
<path d="M158.563 7.2287C157.364 7.41818 156.481 7.95109 155.913 8.82349C155.353 9.688 155.14 10.8249 155.266 12.2341L163.186 10.9867C162.933 9.5972 162.397 8.57874 161.577 7.92346C160.764 7.27212 159.762 7.03921 158.563 7.2287ZM162.097 24.5662C158.76 25.0951 156.011 24.582 153.846 23.0345C151.689 21.4871 150.344 19.0318 149.807 15.6606C149.263 12.1868 149.709 9.36825 151.148 7.19712C152.588 5.01809 154.832 3.68778 157.885 3.20223C160.819 2.75221 163.225 3.23381 165.111 4.65492C167.004 6.06813 168.179 8.23926 168.645 11.1762L169.071 13.9079L155.723 16.008C156.039 17.6107 156.709 18.787 157.743 19.5449C158.772 20.3029 160.094 20.5555 161.703 20.3029C162.941 20.1134 164.093 19.8055 165.158 19.3712C166.231 18.941 167.335 18.3409 168.471 17.5712L169.149 21.945C168.234 22.5885 167.229 23.1253 166.136 23.5556C165.051 23.978 163.706 24.3135 162.097 24.5662Z" fill="#F0CA19"/>
<path d="M202.15 22.0619L196.423 22.0303L196.502 9.79301C196.51 8.27717 196.249 7.14028 195.713 6.38236C195.184 5.61654 194.34 5.22574 193.173 5.2139C191.571 5.206 190.412 5.73497 189.686 6.80869C188.96 7.87452 188.59 9.64301 188.582 12.1142L188.519 21.9829L182.807 21.9356L182.934 0.966371L187.304 0.997951L188.045 3.68226H188.377C189.016 2.68354 189.899 1.92562 191.027 1.40849C192.151 0.895315 193.425 0.642675 194.845 0.65057C197.283 0.662413 199.128 1.33744 200.383 2.6717C201.633 3.99806 202.252 5.90471 202.244 8.3877L202.15 22.0619Z" fill="#F0CA19"/>
<path d="M212.199 12.5124C211.947 14.5769 212.089 16.1757 212.625 17.3125C213.169 18.4494 214.207 19.1126 215.733 19.3021C217.248 19.4916 218.399 19.1087 219.188 18.1494C219.985 17.1823 220.513 15.6625 220.766 13.5861C221.018 11.5334 220.876 9.95043 220.34 8.83328C219.803 7.72008 218.77 7.06479 217.248 6.87531C215.733 6.68583 214.573 7.06085 213.777 7.99641C212.988 8.93591 212.459 10.4399 212.199 12.5124ZM226.572 14.2966C226.15 17.6876 224.931 20.2298 222.911 21.9232C220.892 23.6049 218.281 24.2483 215.086 23.8496C213.098 23.6049 211.394 22.9535 209.974 21.8917C208.562 20.8179 207.549 19.4126 206.93 17.6757C206.306 15.9309 206.133 13.965 206.409 11.786C206.827 8.38721 208.042 5.85685 210.053 4.191C212.073 2.51726 214.68 1.88171 217.879 2.28041C219.886 2.53305 221.594 3.19228 223.006 4.25416C224.426 5.31999 225.44 6.71346 226.051 8.43853C226.67 10.1675 226.844 12.1176 226.572 14.2966Z" fill="#F0CA19"/>
<path d="M233.255 26.5822L230.321 4.33398L236.142 5.70772L237.325 18.2766C237.42 19.8477 237.361 21.3043 237.152 22.6504L237.262 22.682C237.598 21.5254 238.201 20.1951 239.077 18.6871L245.75 7.99728L251.556 9.37101L238.966 27.9401L233.255 26.5822Z" fill="#F0CA19"/>
<path d="M260.678 34.7669L260.584 31.7036L260.442 31.6562C259.124 32.4852 257.91 32.955 256.797 33.0616C255.693 33.1642 254.368 32.9392 252.822 32.3826C250.916 31.7194 249.611 30.6496 248.909 29.1772C248.203 27.6929 248.207 25.9521 248.925 23.9507C249.658 21.8585 250.936 20.5716 252.758 20.0979C254.577 19.6242 256.987 19.8611 259.984 20.8085L263.439 21.898L263.755 21.0295C264.457 19.0203 263.79 17.6584 261.751 16.9399C260.174 16.3715 258.146 16.1978 255.677 16.4188L255.188 12.1397C257.878 11.7529 260.607 12.045 263.376 13.024C266.015 13.9635 267.833 15.2622 268.835 16.9241C269.845 18.5781 269.931 20.5835 269.103 22.9401L264.433 36.109L260.678 34.7669ZM262.319 25.0402L260.221 24.3928C258.631 23.8796 257.365 23.7454 256.419 23.9981C255.472 24.2428 254.813 24.8942 254.447 25.956C253.91 27.4719 254.514 28.5417 256.261 29.1614C257.491 29.6035 258.604 29.5956 259.606 29.1456C260.615 28.6838 261.329 27.8587 261.751 26.6666L262.319 25.0402Z" fill="#F0CA19"/>
<path d="M284.778 45.969L279.729 43.2847L285.441 32.4685C286.154 31.1343 286.458 30.0132 286.356 29.1052C286.261 28.1894 285.732 27.4789 284.778 26.9736C283.484 26.2907 282.293 26.2709 281.212 26.9104C280.128 27.5539 279.008 28.9631 277.852 31.1422L273.245 39.8583L268.197 37.1898L277.994 18.6522L281.859 20.6891L281.26 23.4208L281.559 23.5787C282.506 22.9905 283.571 22.7063 284.762 22.7261C285.961 22.7379 287.168 23.0655 288.391 23.705C291.156 25.1696 292.544 27.0644 292.556 29.3895L293.013 29.6263C293.96 29.05 295.041 28.7736 296.263 28.8052C297.494 28.8368 298.713 29.1763 299.924 29.8158C302.026 30.9211 303.324 32.3027 303.821 33.9528C304.325 35.595 303.951 37.6003 302.7 39.9688L296.311 52.064L291.246 49.3955L296.958 38.5793C297.672 37.2411 297.983 36.12 297.888 35.216C297.794 34.3002 297.265 33.5896 296.311 33.0843C295.08 32.4212 293.921 32.3738 292.84 32.9422C291.755 33.5028 290.702 34.7423 289.685 36.6687L284.778 45.969Z" fill="#F0CA19"/>
<path d="M316.503 45.7689C315.533 45.0544 314.546 44.8018 313.537 45.011C312.527 45.2242 311.569 45.8716 310.665 46.9532L317.134 51.6902C317.931 50.5336 318.27 49.4322 318.144 48.3901C318.025 47.3479 317.481 46.4755 316.503 45.7689ZM306.753 60.501C304.015 58.4997 302.434 56.1904 302.004 53.5692C301.57 50.9481 302.359 48.2598 304.37 45.5005C306.441 42.6583 308.748 40.9845 311.296 40.4793C313.852 39.9661 316.377 40.6214 318.869 42.453C321.267 44.2018 322.628 46.2426 322.955 48.5796C323.291 50.9165 322.581 53.285 320.826 55.6851L319.201 57.9273L308.299 49.9533C307.384 51.3033 307.021 52.606 307.21 53.8692C307.4 55.1324 308.149 56.2456 309.466 57.2167C310.476 57.951 311.509 58.547 312.574 59.001C313.647 59.451 314.846 59.8102 316.171 60.0747L313.568 63.6433C312.472 63.4538 311.391 63.1222 310.318 62.6485C309.253 62.1748 308.066 61.4563 306.753 60.501Z" fill="#F0CA19"/>
<path d="M330.43 80.3226L326.233 76.4225L334.532 67.4379C335.561 66.3208 336.133 65.3062 336.251 64.3904C336.366 63.4667 335.991 62.6061 335.131 61.8166C333.952 60.735 332.737 60.3442 331.487 60.6482C330.244 60.9442 328.781 62.0022 327.101 63.822L320.412 71.0696L316.231 67.1853L330.446 51.7742L333.648 54.7427L332.386 57.2217L332.639 57.4586C333.782 57.1428 334.942 57.1744 336.109 57.5533C337.285 57.9323 338.397 58.6073 339.438 59.5745C341.237 61.2285 342.152 62.9693 342.184 64.801C342.215 66.6208 341.387 68.4485 339.707 70.2801L330.43 80.3226Z" fill="#F0CA19"/>
<path d="M342.388 87.5083C343.05 88.2544 344.005 89.0084 345.259 89.7663L342.088 92.5769C340.656 91.9453 339.256 90.8558 337.891 89.3084C336.377 87.5912 335.702 85.953 335.872 84.3977C336.049 82.8503 337 81.3107 338.728 79.7712L346.3 73.0762L344.486 71.0393L346.285 69.4287L349.803 70.5182L354.205 68.8445L356.618 71.5604L353.29 74.5131L357.171 78.9185L353.968 81.7607L350.087 77.3553L342.514 84.0503C341.903 84.5951 341.603 85.1714 341.615 85.7714C341.623 86.3714 341.883 86.9478 342.388 87.5083Z" fill="#F0CA19"/>
<path d="M362.58 92.0467C361.862 91.0677 360.995 90.5269 359.977 90.4203C358.955 90.3177 357.847 90.6414 356.648 91.3993L361.365 97.8732C362.501 97.0206 363.164 96.0771 363.353 95.0468C363.55 94.0244 363.294 93.0257 362.58 92.0467ZM348.807 103.116C346.819 100.388 346.014 97.7035 346.393 95.0626C346.78 92.4336 348.349 90.1124 351.095 88.0992C353.934 86.0268 356.648 85.1386 359.235 85.4307C361.823 85.7149 364.032 87.1044 365.862 89.5993C367.605 91.9993 368.279 94.36 367.881 96.689C367.491 99.0259 366.09 101.067 363.685 102.816L361.46 104.458L353.508 93.531C352.215 94.5415 351.465 95.6784 351.268 96.9416C351.067 98.2048 351.446 99.4996 352.404 100.826C353.15 101.837 353.958 102.713 354.834 103.463C355.705 104.221 356.735 104.931 357.926 105.595L354.36 108.2C353.37 107.671 352.44 107.02 351.568 106.242C350.692 105.472 349.773 104.43 348.807 103.116Z" fill="#F0CA19"/>
<path d="M366.118 112.225L363.736 108.325L378.834 97.9507L382.226 103.477L366.118 112.225ZM357.741 110.804C358.632 110.259 359.452 110.085 360.202 110.283C360.959 110.48 361.614 111.041 362.174 111.956C362.718 112.841 362.904 113.666 362.726 114.436C362.557 115.201 362.036 115.857 361.164 116.393C360.32 116.907 359.508 117.065 358.719 116.867C357.938 116.678 357.283 116.149 356.747 115.288C356.198 114.38 356.009 113.539 356.179 112.762C356.356 111.98 356.877 111.329 357.741 110.804Z" fill="#F0CA19"/>
</svg>
