<svg width="119" height="157" viewBox="0 0 119 157" fill="none" xmlns="http://www.w3.org/2000/svg">
<path d="M1 156.5H111.624L114 156L116 154.5L118 152L118.5 150V39H69.5V36.5V35L70 33L71 31L72 29L73 27L74.5 25L75.5 22.5L76 20V17.5V15L75 12L73.5 9L72 6.5L68.5 3.5L64.5 2L60.5 1H57.5L54.5 2L52 3.5L49.5 5.5L46.5 8.5L45 12L44 14.5L43.5 17.5V19V20L44 21.5L45 24L46 26L48 28.5L49.5 31.5L50 34V36.5V39H1.22217V90.1782H3.64931H5.21768L6.5 90L8 89.5L9.5 89L13 86.5L15 85.5L19 84L22.5 83.5H25L27 84L28.5 84.5L32 86.5L35 89.5L37 92.5L38.5 96.5L39 100.5V102.5L38.5 103.5L37.5 105.5L35 110L33.5 112L32 113.5L29 115L26.5 116L24.5 116.5H22H20.5L18.5 116L16 115L13.5 113.5L12 112.5L9 111L6.5 110H1.22217L1 156.5Z" fill="#52D5F2" stroke="black"/>
<path d="M70.7842 107.759V110H57.8496V107.759H63.1084V91.8799L58.4502 95.2051V92.7148L63.3281 89.3604H65.7598V107.759H70.7842ZM85.2568 107.759V110H72.3223V107.759H77.5811V91.8799L72.9229 95.2051V92.7148L77.8008 89.3604H80.2324V107.759H85.2568ZM102.249 99.6729C102.249 103.12 101.639 105.752 100.418 107.568C99.207 109.385 97.415 110.293 95.042 110.293C92.6689 110.293 90.8867 109.39 89.6953 107.583C88.5039 105.776 87.9082 103.14 87.9082 99.6729C87.9082 96.1279 88.4844 93.4717 89.6367 91.7041C90.7988 89.9365 92.6299 89.0527 95.1299 89.0527C97.5615 89.0527 99.3535 89.9463 100.506 91.7334C101.668 93.5205 102.249 96.167 102.249 99.6729ZM99.5684 99.6729C99.5684 97.6807 99.417 96.0645 99.1143 94.8242C98.8213 93.5742 98.3477 92.6562 97.6934 92.0703C97.0391 91.4844 96.1846 91.1914 95.1299 91.1914C94.0557 91.1914 93.1816 91.4795 92.5078 92.0557C91.834 92.6318 91.3408 93.5449 91.0283 94.7949C90.7256 96.0352 90.5742 97.6611 90.5742 99.6729C90.5742 101.626 90.7305 103.228 91.043 104.478C91.3652 105.728 91.8584 106.65 92.5225 107.246C93.1865 107.842 94.0361 108.14 95.0713 108.14C96.624 108.14 97.7617 107.446 98.4844 106.06C99.207 104.673 99.5684 102.544 99.5684 99.6729Z" fill="#F2F2F2"/>
</svg>
