<svg width="119" height="157" viewBox="0 0 119 157" fill="none" xmlns="http://www.w3.org/2000/svg">
<path d="M1 1H118V45H114H112L110.5 44L107.5 42.5L104.5 40.5L102.5 39.5L99.5 39L96.5 38.5L92.5 39.5L86.5 42.5L83.5 45.5L82 48.5L81 53V57L81.5 60.5L83 63.5L85.5 66.5L88 69L92 70.5L95.5 71.5H98.5L102.5 70.5L105.5 69L107.5 67.5L110.5 66L113.5 65H118V118H69.5V122L70 124.5L70.5 126.5L71.5 128.5L73 130.5L74.5 133L75.5 135.5L76 139V142L75.5 144L74.5 146.5L73 149L70 152.5L67.5 154L64.5 155.5L61 156.5L56.5 156L53 155L48.5 151.5L45 147.5L44 144.5L43 140.5L43.5 137.5L44.5 133.5L45.5 132L47 129L49 126L49.5 123.5V118H1.5V65H3.5H6.35534L8.5 66L10.5 67L13 68.5L16 70L19.5 71L22.5 71.5H25.5L28 70.5L30.5 69.5L32.5 68L34.5 66L35.5 64.5L37 62L38 60L38.5 57.5L39 54.5L38.5 52L37.5 49.5L36.5 47L35 44.5L33.5 43L30.5 40.5L27.5 39.5L25 39L23 38.5H20.2496L17.5 39L16.5 39.5L15 40.5L13 41.5L11 43L9.5 43.5L7 44.5L4.5 45H1V1Z" fill="#52D5F2" stroke="black"/>
<path d="M58.2739 63.3853V66H43.1836V63.3853H49.3188V44.8599L43.8843 48.7393V45.834L49.5752 41.9204H52.4121V63.3853H58.2739ZM78.0981 53.9517C78.0981 57.9735 77.3861 61.0439 75.9619 63.1631C74.5492 65.2822 72.4585 66.3418 69.6899 66.3418C66.9214 66.3418 64.8421 65.2879 63.4521 63.1802C62.0622 61.0724 61.3672 57.9963 61.3672 53.9517C61.3672 49.8159 62.0394 46.717 63.3838 44.6548C64.7396 42.5926 66.8758 41.5615 69.7925 41.5615C72.6294 41.5615 74.7201 42.604 76.0645 44.689C77.4202 46.7739 78.0981 49.8615 78.0981 53.9517ZM74.9707 53.9517C74.9707 51.6274 74.7941 49.7419 74.4409 48.2949C74.0991 46.8366 73.5465 45.7656 72.7832 45.082C72.0199 44.3984 71.0229 44.0566 69.7925 44.0566C68.5392 44.0566 67.5195 44.3927 66.7334 45.0649C65.9473 45.7371 65.3719 46.8024 65.0073 48.2607C64.6541 49.7077 64.4775 51.6047 64.4775 53.9517C64.4775 56.2303 64.6598 58.0988 65.0244 59.5571C65.4004 61.0155 65.9757 62.0921 66.7505 62.7871C67.5252 63.4821 68.5164 63.8296 69.7241 63.8296C71.5356 63.8296 72.863 63.0207 73.7061 61.4028C74.5492 59.785 74.9707 57.3013 74.9707 53.9517Z" fill="#F2F2F2"/>
</svg>
