<svg width="194" height="119" viewBox="0 0 194 119" fill="none" xmlns="http://www.w3.org/2000/svg">
<path d="M38.5 118.5H155.5V72H158.5L162 72.5L164.5 73L167.5 75L170.5 77L173.5 78L177 78.5H180L183.2 77L187 74.5L190.5 71.5L192 68.5L193.5 65V62.5V60.5L193 59L192 56L189.5 51L186.5 49L183 46.5L180 45.5H176L173.5 46L170.5 47L168.5 48L166 49.5L164 51L161 52L159 52.5H155.5V1H106.796V3V4.5L107 6L107.5 7L108 8.5L110 12.5L112.5 16.5L113 19.5L113.5 22.5V24L113 26L112.5 27.5L112 29L111.5 30L110.5 32L109 33.5C109 33.6667 108.7 34.2 107.5 35C106.3 35.8 104.667 37 104 37.5L102.5 38L100 38.5H98H93L89 36.5L84.5 33L82 28.5L80.5 24V21L81 18.5L82 16.5L83 14L84.5 12L86 10L87 7.5L87.5 5.5V3.5V1H38.5V49.5H35.5H33L31 48.5L28.5 47L25 45L21 43.5L18 43H15L12.5 43.5L10.5 44.5L7.5 46L5.5 47.5L4 49.5L2.5 51.5L1.5 53.5L1 56V58.5V61L1.5 63.5L3 67L5.5 70.5L9 73.5L13 75L15 75.5H18H20L22 75L24 74L27.5 72L30 70.5L31.5 69.5H34.5H38.5V118.5Z" fill="#FAC51B"/>
<path d="M83 14L82 16.5L81 18.5L80.5 21V24L82 28.5L84.5 33L89 36.5L93 38.5H98H100L102.5 38L104 37.5C104.667 37 106.3 35.8 107.5 35C108.7 34.2 109 33.6667 109 33.5L110.5 32L111.5 30L112 29L112.5 27.5L113 26L113.5 24V22.5L113 19.5L112.5 16.5L110 12.5L108 8.5L107.5 7L107 6L106.796 4.5V3V1H155.5V52.5H159L161 52L164 51L166 49.5L168.5 48L170.5 47L173.5 46L176 45.5H180L183 46.5L186.5 49L189.5 51L192 56L193 59L193.5 60.5V62.5V65L192 68.5L190.5 71.5L187 74.5L183.2 77L180 78.5H177L173.5 78L170.5 77L167.5 75L164.5 73L162 72.5L158.5 72H155.5V118.5H38.5V69.5H34.5H31.5L30 70.5L27.5 72L24 74L22 75L20 75.5H18H15L13 75L9 73.5L5.5 70.5L3 67L1.5 63.5L1 61V58.5V56L1.5 53.5L2.5 51.5L4 49.5L5.5 47.5L7.5 46L10.5 44.5L12.5 43.5L15 43H18L21 43.5L25 45L28.5 47L31 48.5L33 49.5H35.5H38.5V1H87.5V3.5V5.5L87 7.5L86 10M83 14C83 14 83.3 13.6 84.5 12M83 14L84.5 12M84.5 12C85.7 10.4 86 10 86 10M84.5 12L86 10" stroke="black"/>
<path d="M84.5327 74.3853V77H69.4424V74.3853H75.5776V55.8599L70.1431 59.7393V56.834L75.834 52.9204H78.6709V74.3853H84.5327ZM104.357 64.9517C104.357 68.9735 103.645 72.0439 102.221 74.1631C100.808 76.2822 98.7173 77.3418 95.9487 77.3418C93.1802 77.3418 91.1009 76.2879 89.7109 74.1802C88.321 72.0724 87.626 68.9963 87.626 64.9517C87.626 60.8159 88.2982 57.717 89.6426 55.6548C90.9984 53.5926 93.1346 52.5615 96.0513 52.5615C98.8882 52.5615 100.979 53.604 102.323 55.689C103.679 57.7739 104.357 60.8615 104.357 64.9517ZM101.229 64.9517C101.229 62.6274 101.053 60.7419 100.7 59.2949C100.358 57.8366 99.8053 56.7656 99.042 56.082C98.2786 55.3984 97.2817 55.0566 96.0513 55.0566C94.798 55.0566 93.7783 55.3927 92.9922 56.0649C92.2061 56.7371 91.6307 57.8024 91.2661 59.2607C90.9129 60.7077 90.7363 62.6047 90.7363 64.9517C90.7363 67.2303 90.9186 69.0988 91.2832 70.5571C91.6592 72.0155 92.2345 73.0921 93.0093 73.7871C93.784 74.4821 94.7752 74.8296 95.9829 74.8296C97.7944 74.8296 99.1217 74.0207 99.9648 72.4028C100.808 70.785 101.229 68.3013 101.229 64.9517ZM123.498 74.3853V77H108.407V74.3853H114.542V55.8599L109.108 59.7393V56.834L114.799 52.9204H117.636V74.3853H123.498Z" fill="#F2F2F2"/>
</svg>
