<svg width="157" height="119" viewBox="0 0 157 119" fill="none" xmlns="http://www.w3.org/2000/svg">
<path d="M38.5 1V45.5H36.5H34L32.5 44.5L30.5 44L28.5 42.5L26.5 41.5L23.5 40L21 39L18 38.5H16L13 39L11 40L8.5 41.5L7 42.5L5.5 44L4.5 45.5L3 47.5L1.5 51.5L1 53.5V56.5L1.5 59.5L2.5 61.5L3.5 63.5L5.5 66L8 68.5L10.5 70L12.5 71L15.5 71.5H18.5L21.5 71L24 70L26.5 69L28.5 67.5L31.5 66L34.5 65H38.5V118.5H87.5V113.5L86 110L83.5 106.5L82 103L81 99.5V95.5L81.5 92.5L83.5 88L85 86.5L87 84.5L91 82L94 81H96.5H98H100L102.5 82L104.5 82.5L106.5 83.5L108.5 85L110 86.5L112 89.5L113 92L114 95V98L113.5 101.5L112 104.5L110.5 107.5L108.5 110.5L107.5 113L107 115V118.5H156V6.74745L155 4L153 2L150.5 1H38.5Z" fill="#FAC51B" stroke="black"/>
<path d="M96.5728 65.3853V68H81.4824V65.3853H87.6177V46.8599L82.1831 50.7393V47.834L87.874 43.9204H90.7109V65.3853H96.5728ZM113.458 65.3853V68H98.3672V65.3853H104.502V46.8599L99.0679 50.7393V47.834L104.759 43.9204H107.596V65.3853H113.458Z" fill="#F2F2F2"/>
</svg>
