<svg width="119" height="157" viewBox="0 0 119 157" fill="none" xmlns="http://www.w3.org/2000/svg">
<path d="M1 39V149V150L1.5 151L2 152.5L3 154L4.5 155.5L7 156.5H9H118.5V107H117H115H113.5H112.5L111.5 107.5L110 108.5L108 109.5L106.5 111L104.5 112L102.5 112.5L101.5 113L99.5 113.5H96H94L92 113L91 112.5L89.5 111.5L86 109.5L84.5 107.5L82.5 104.5L81.5 102L81 98.5V95.5V93.5L81.5 92L83 89L84.5 86.5L87.5 84L90 82.5L93 81L97.5 80.5H100L102.5 81.5L106.5 83.5L109 85.5L112 87L115 87.5H118.5V39H70H69.5V37.5V35L70 33L71 30.5L72 28.5L73.5 26.5L75 24.5L75.5 23L76 21V16.5V13.5L73.5 9L71.5 6L69.5 4.5L67 3L63 1.5L61 1H59.5L57.5 1.5L54.5 2.5L50.5 4.5L48.5 6L46.5 8L45.5 10.5L44 14.5L43.5 16.5V18.5L44 20.5L45 24.5L46.5 27L49 31L50 33.5V37V39H1Z" fill="#52D5F2" stroke="black"/>
<path d="M30.5327 108.385V111H15.4424V108.385H21.5776V89.8599L16.1431 93.7393V90.834L21.834 86.9204H24.6709V108.385H30.5327ZM50.3569 98.9517C50.3569 102.973 49.6449 106.044 48.2207 108.163C46.8079 110.282 44.7173 111.342 41.9487 111.342C39.1802 111.342 37.1009 110.288 35.7109 108.18C34.321 106.072 33.626 102.996 33.626 98.9517C33.626 94.8159 34.2982 91.717 35.6426 89.6548C36.9984 87.5926 39.1346 86.5615 42.0513 86.5615C44.8882 86.5615 46.9788 87.604 48.3232 89.689C49.679 91.7739 50.3569 94.8615 50.3569 98.9517ZM47.2295 98.9517C47.2295 96.6274 47.0529 94.7419 46.6997 93.2949C46.3579 91.8366 45.8053 90.7656 45.042 90.082C44.2786 89.3984 43.2817 89.0566 42.0513 89.0566C40.798 89.0566 39.7783 89.3927 38.9922 90.0649C38.2061 90.7371 37.6307 91.8024 37.2661 93.2607C36.9129 94.7077 36.7363 96.6047 36.7363 98.9517C36.7363 101.23 36.9186 103.099 37.2832 104.557C37.6592 106.015 38.2345 107.092 39.0093 107.787C39.784 108.482 40.7752 108.83 41.9829 108.83C43.7944 108.83 45.1217 108.021 45.9648 106.403C46.8079 104.785 47.2295 102.301 47.2295 98.9517ZM69.8394 98.9517C69.8394 102.973 69.1273 106.044 67.7031 108.163C66.2904 110.282 64.1997 111.342 61.4312 111.342C58.6626 111.342 56.5833 110.288 55.1934 108.18C53.8034 106.072 53.1084 102.996 53.1084 98.9517C53.1084 94.8159 53.7806 91.717 55.125 89.6548C56.4808 87.5926 58.617 86.5615 61.5337 86.5615C64.3706 86.5615 66.4613 87.604 67.8057 89.689C69.1615 91.7739 69.8394 94.8615 69.8394 98.9517ZM66.7119 98.9517C66.7119 96.6274 66.5353 94.7419 66.1821 93.2949C65.8403 91.8366 65.2878 90.7656 64.5244 90.082C63.7611 89.3984 62.7642 89.0566 61.5337 89.0566C60.2804 89.0566 59.2607 89.3927 58.4746 90.0649C57.6885 90.7371 57.1131 91.8024 56.7485 93.2607C56.3953 94.7077 56.2188 96.6047 56.2188 98.9517C56.2188 101.23 56.401 103.099 56.7656 104.557C57.1416 106.015 57.717 107.092 58.4917 107.787C59.2664 108.482 60.2576 108.83 61.4653 108.83C63.2769 108.83 64.6042 108.021 65.4473 106.403C66.2904 104.785 66.7119 102.301 66.7119 98.9517Z" fill="#F2F2F2"/>
</svg>
