<svg width="157" height="118" viewBox="0 0 157 118" fill="none" xmlns="http://www.w3.org/2000/svg">
<path d="M118.379 1V44.4383V44.9319H119.883H120.887L121.89 44.4383H122.893H123.896L124.9 43.9447H125.903L126.405 43.4511L127.408 42.9574H128.411L128.913 42.4638L129.916 41.4766L131.421 40.4894L137.44 38.0213L141.955 38.5149L144.964 39.0085L146.971 39.5021L148.476 40.4894L151.485 42.9574L154.997 47.8936L156 51.3489V53.3234V54.8043L155.498 58.2596L154.997 61.2213L153.994 62.2085L152.99 64.183L149.479 67.6383L145.968 69.1191L142.456 70.1064L137.942 70.6L132.926 69.1191L128.411 66.1574L124.398 64.6766L120.887 64.183H118.379V117H69.7217V113.051V111.57L70.2233 110.583L70.7249 109.102L71.2265 107.621L74.7379 102.685L75.7411 99.7234V97.7489V93.8L75.2395 90.8383L74.2363 88.8638L71.2265 84.4213L67.2136 81.4596L61.6958 79.9787H58.1845H56.178L52.6667 81.4596L50.1586 82.9404L47.6505 84.9149L46.1456 87.383L44.6408 89.3574L44.1392 91.3319L43.6375 94.2936V97.2553V99.7234L45.1424 103.179L47.1489 106.14L48.6537 109.102L49.657 111.57V113.545V117H1V7.41702L2.00324 4.45532L4.00971 2.48085L6.01618 1H11.0324H117.375H118.379Z" fill="#FAC51B" stroke="black"/>
<path d="M67.5151 57.3853V60H52.4248V57.3853H58.5601V38.8599L53.1255 42.7393V39.834L58.8164 35.9204H61.6533V57.3853H67.5151Z" fill="#F2F2F2"/>
</svg>
